<svg width="72" height="60" viewBox="0 0 72 60" fill="none" xmlns="http://www.w3.org/2000/svg">
<g clip-path="url(#clip0_4162_651)">
<path d="M28.849 -7.86252e-06C28.849 3.92405 28.849 7.8481 28.849 11.8987C23.152 11.7721 18.4247 13.6709 14.9096 18.3544C12.9702 20.8861 11.6368 24.4304 11.6368 27.2152C18.1823 27.2152 24.849 27.2152 31.5156 27.2152C31.5156 38.2278 31.5156 49.1139 31.5156 60C21.0914 60 10.6671 60 0.121691 60C0.121691 59.6203 0.121691 59.3671 0.121691 58.9873C0.121692 48.9873 0.121693 38.9873 0.121693 29.1139C0.121695 15.0633 8.84897 3.67088 21.9399 0.632903C24.1217 -8.27579e-06 26.4247 -0.126591 28.849 -7.86252e-06ZM8.84897 30C8.84897 29.8734 8.72775 29.7468 8.72775 29.7468C8.2429 20 14.7884 11.2658 24.0005 9.36708C24.7278 9.2405 25.6974 9.2405 26.0611 8.86075C26.4247 8.35442 26.1823 7.34177 26.1823 6.58227C26.1823 5.31645 26.1823 4.05063 26.1823 2.65823C24.4853 3.03797 22.9096 3.16455 21.3338 3.5443C10.3035 6.58227 2.78836 16.7089 2.78836 28.7342C2.78836 37.9747 2.78836 47.0886 2.78836 56.3291C2.78836 56.5823 2.78836 56.8354 2.78836 57.0886C11.5156 57.0886 20.1217 57.0886 28.7277 57.0886C28.7277 47.9747 28.7277 38.9873 28.7278 30C22.0611 30 15.5156 30 8.84897 30Z" fill="#F16319"/>
<path d="M69.4544 -2.33127e-07C69.4544 3.92405 69.4544 7.8481 69.4544 11.8987C63.9999 11.7722 59.3938 13.5443 55.8787 17.9747C53.6969 20.6329 52.3635 24.1772 52.2423 27.3418C58.7878 27.3418 65.4544 27.3418 72.1211 27.3418C71.9999 38.2278 71.9999 49.1139 71.9999 60C61.5756 60 51.1514 60 40.7271 60C40.7271 59.7468 40.7272 59.4937 40.7272 59.2405C40.7272 49.1139 40.7272 38.8608 40.7272 28.7342C40.8484 15.443 49.212 4.17721 61.5756 0.886073C64.1211 0.126582 66.6666 -0.126584 69.4544 -2.33127e-07ZM43.2726 57.2152C51.9999 57.2152 60.6059 57.2152 69.212 57.2152C69.212 48.1013 69.212 39.1139 69.212 30C62.5453 30 55.8787 30 49.3332 30C48.7272 19.4937 56.2423 9.87342 66.6666 8.98734C66.6666 6.96203 66.6666 4.81013 66.6666 2.65823C65.0908 3.03797 63.515 3.16456 61.9393 3.67089C50.909 6.58228 43.3938 16.8354 43.2726 28.8608C43.2726 38.1013 43.2726 47.2152 43.2726 56.4557C43.2726 56.5823 43.2726 56.8354 43.2726 57.2152Z" fill="#F16319"/>
</g>
<defs>
<clipPath id="clip0_4162_651">
<rect width="72" height="60" fill="white" transform="translate(72 60) rotate(-180)"/>
</clipPath>
</defs>
</svg>
