<svg width="42" height="58" viewBox="0 0 42 58" fill="none" xmlns="http://www.w3.org/2000/svg">
<path d="M41.9977 40.4504C42.014 39.9799 41.9448 39.5106 41.7944 39.0716C41.6441 38.6325 41.4158 38.2331 41.1236 37.8979C40.1611 36.8453 38.4919 36.3927 35.5441 36.4559C32.5097 36.6053 29.4943 37.0775 26.538 37.8663C24.6797 38.3249 22.8476 38.9102 21.0516 39.6189C19.6567 40.1452 18.6943 40.5188 17.5738 40.5188H17.5319C17.1729 40.5408 16.8146 40.4608 16.4898 40.2862C16.165 40.1116 15.8839 39.8478 15.6721 39.5189C15.4698 39.1554 15.3492 38.7413 15.3208 38.3129C15.2925 37.8845 15.3572 37.4547 15.5094 37.0611C16.252 34.7673 16.5363 32.3156 16.3416 29.8826C16.0348 26.488 14.5423 24.5355 12.2408 24.5144C11.8812 24.4895 11.521 24.5506 11.1837 24.6939C10.8464 24.8372 10.5396 25.0594 10.2833 25.346C9.44177 26.3354 9.42782 27.8406 9.48826 29.4247C9.53941 30.8667 8.15385 32.3351 7.32624 33.214C5.46643 35.2033 4.03438 38.1084 3.72286 40.6136C3.67637 40.9872 3.64382 41.3293 3.61128 41.6661C3.60479 42.2236 3.50213 42.7742 3.30906 43.2871C2.38117 44.234 1.40462 45.1179 0.384513 45.9343C0.285808 46.0169 0.202532 46.1209 0.139489 46.2401C0.0764463 46.3593 0.0348851 46.4915 0.0172022 46.629C0.0172022 46.7606 -0.359408 49.8604 2.4117 53.8444C4.39704 56.7021 7.23325 57.9915 9.06051 57.9915H9.1256C9.39937 58.0204 9.67529 57.9753 9.93069 57.86C10.1861 57.7447 10.4137 57.5626 10.5948 57.3284C11.0598 56.5969 12.8592 54.3865 13.5705 53.9549C15.3699 52.855 17.1832 51.8498 18.8152 51.034C22.6743 50.9498 32.5266 50.8761 34.7584 51.5024C35.1324 51.6085 35.5166 51.6616 35.9021 51.6603C37.5806 51.6603 39.3288 50.7077 39.8682 48.771C40.0529 48.2179 40.1327 47.6269 40.1023 47.0366C40.0718 46.4463 39.9319 45.8699 39.6915 45.3449C39.5143 44.9892 39.2883 44.6677 39.022 44.3923C41.4165 43.4871 41.9884 41.8135 41.9977 40.4504ZM38.0967 48.1395C37.7713 49.3026 36.3113 49.7709 35.2094 49.4604C33.3775 48.9341 27.7097 48.8605 23.4926 48.8763L23.9297 48.6921C27.9041 46.9829 32.0283 45.7585 36.2323 45.0396C37.1622 45.3449 37.7852 45.7975 38.0595 46.3606C38.1726 46.6385 38.2343 46.9397 38.2407 47.2457C38.2471 47.5516 38.1981 47.8558 38.0967 48.1395ZM37.0924 42.7766C29.6207 44.0713 25.6546 45.7449 23.2834 46.7448L22.5813 46.9869C19.185 48.4292 15.8793 50.1312 12.6871 52.0813C11.6038 52.7392 9.80443 55.0654 9.23254 55.8653C8.47467 55.9864 5.79655 55.297 3.87165 52.5234C2.14668 50.0446 1.88166 48.1026 1.85376 47.3079C2.72787 46.5659 4.3831 45.1291 4.7876 44.5397C5.25255 43.8292 5.35949 42.9608 5.47108 41.8661C5.49898 41.5714 5.53153 41.2504 5.57337 40.8978C5.82909 38.8663 7.04727 36.3927 8.6095 34.7402C9.59985 33.6876 11.4457 31.7298 11.3527 29.3247C11.3248 28.5879 11.2737 27.2196 11.6317 26.7985C11.6735 26.7512 11.7944 26.6091 12.2222 26.6091C13.5194 26.6091 14.2819 27.7879 14.4865 30.0878C14.6635 32.1999 14.4237 34.33 13.7844 36.3243C13.5241 37.0354 13.4219 37.8078 13.4868 38.574C13.5516 39.3402 13.7816 40.0766 14.1564 40.7188C14.5372 41.3268 15.0443 41.8195 15.6329 42.1536C16.2215 42.4876 16.8737 42.6528 17.5319 42.6345C18.9826 42.6345 20.1031 42.2187 21.656 41.6293C23.3995 40.9375 25.179 40.3681 26.9844 39.9241C29.8181 39.164 32.7091 38.7094 35.6185 38.5663C37.8782 38.5189 39.2916 38.7979 39.831 39.4031C39.9475 39.5421 40.0354 39.7085 40.0885 39.8905C40.1416 40.0725 40.1584 40.2655 40.1379 40.4557C40.1332 40.8767 40.1239 42.2503 37.0924 42.7766Z" fill="#151518"/>
<path d="M8.91172 19.0937C8.98147 19.0937 16.0813 20.2936 19.0105 23.6092C21.9397 26.9248 22.9905 34.9507 22.9905 35.0297C22.9905 35.3088 23.0884 35.5765 23.2628 35.7739C23.4372 35.9713 23.6737 36.0822 23.9204 36.0822C24.167 36.0822 24.4035 35.9713 24.5779 35.7739C24.7523 35.5765 24.8503 35.3088 24.8503 35.0297C24.8503 34.9507 25.9103 26.9143 28.8395 23.5987C31.7687 20.2831 38.8592 19.0937 38.929 19.0937C39.1756 19.0937 39.4121 18.9828 39.5865 18.7854C39.7609 18.588 39.8589 18.3203 39.8589 18.0411C39.8589 17.762 39.7609 17.4942 39.5865 17.2968C39.4121 17.0994 39.1756 16.9885 38.929 16.9885C38.8592 16.9885 31.7594 15.7886 28.8302 12.473C25.901 9.15739 24.8503 1.13152 24.8503 1.05257C24.8503 0.773414 24.7523 0.505687 24.5779 0.308292C24.4035 0.110896 24.167 0 23.9204 0C23.6737 0 23.4372 0.110896 23.2628 0.308292C23.0884 0.505687 22.9905 0.773414 22.9905 1.05257C22.9905 1.13152 21.9304 9.16792 19.0012 12.4835C16.072 15.7991 8.98147 16.9885 8.91172 16.9885C8.6651 16.9885 8.42857 17.0994 8.25418 17.2968C8.07979 17.4942 7.98182 17.762 7.98182 18.0411C7.98182 18.3203 8.07979 18.588 8.25418 18.7854C8.42857 18.9828 8.6651 19.0937 8.91172 19.0937ZM20.3263 13.9834C22.0838 11.9941 23.2276 8.72057 23.9204 6.03125C24.6131 8.73636 25.7802 11.9941 27.5144 13.9834C29.2487 15.9728 32.1639 17.2675 34.5398 18.0516C32.1453 18.8358 29.2719 20.1568 27.5144 22.1198C25.7569 24.0829 24.6131 27.3564 23.9204 30.0615C23.2276 27.3564 22.0605 24.0987 20.3263 22.1093C18.592 20.1199 15.6768 18.8253 13.3009 18.0411C15.6954 17.2569 18.5688 15.9623 20.3263 13.9729V13.9834Z" fill="#151518"/>
<path d="M32.2895 9.62052C32.5357 9.61935 32.7715 9.50768 32.9451 9.31001L34.8049 7.20487C34.9572 7.00351 35.0368 6.74449 35.0278 6.47959C35.0187 6.21468 34.9217 5.96339 34.7561 5.77593C34.5905 5.58847 34.3685 5.47866 34.1345 5.46842C33.9004 5.45819 33.6716 5.5483 33.4937 5.72074L31.6339 7.82589C31.5046 7.97307 31.4167 8.16022 31.3811 8.36382C31.3456 8.56742 31.364 8.77837 31.434 8.97016C31.5041 9.16195 31.6227 9.32601 31.7749 9.44173C31.9271 9.55745 32.1061 9.61965 32.2895 9.62052ZM31.6339 26.7722C31.4607 26.9694 31.3635 27.2362 31.3635 27.5143C31.3635 27.7924 31.4607 28.0591 31.6339 28.2563L33.4937 30.3615C33.6716 30.5339 33.9004 30.624 34.1345 30.6138C34.3685 30.6036 34.5905 30.4938 34.7561 30.3063C34.9217 30.1188 35.0187 29.8675 35.0278 29.6026C35.0368 29.3377 34.9572 29.0787 34.8049 28.8774L32.9451 26.7722C32.7708 26.5762 32.5351 26.4661 32.2895 26.4661C32.0438 26.4661 31.8081 26.5762 31.6339 26.7722ZM14.8956 9.31001C15.0735 9.48245 15.3024 9.57256 15.5364 9.56233C15.7704 9.5521 15.9924 9.44228 16.1581 9.25482C16.3237 9.06736 16.4207 8.81607 16.4297 8.55117C16.4388 8.28626 16.3592 8.02724 16.2068 7.82589L14.347 5.72074C14.1691 5.5483 13.9403 5.45819 13.7063 5.46842C13.4722 5.47866 13.2502 5.58847 13.0846 5.77593C12.919 5.96339 12.822 6.21468 12.8129 6.47959C12.8039 6.74449 12.8835 7.00351 13.0358 7.20487L14.8956 9.31001Z" fill="#151518"/>
</svg>
