<svg width="28" height="40" viewBox="0 0 28 40" fill="none" xmlns="http://www.w3.org/2000/svg">
<path d="M27.9984 27.9045C28.0093 27.5881 27.9632 27.2726 27.863 26.9773C27.7627 26.6821 27.6105 26.4135 27.4157 26.1882C26.7741 25.4804 25.6613 25.1761 23.6961 25.2185C21.6731 25.319 19.6629 25.6365 17.692 26.1669C16.4531 26.4753 15.2317 26.8688 14.0344 27.3454C13.1045 27.6992 12.4629 27.9505 11.7158 27.9505H11.6879C11.4486 27.9653 11.2098 27.9115 10.9932 27.7941C10.7767 27.6766 10.5893 27.4993 10.4481 27.2781C10.3132 27.0337 10.2328 26.7553 10.2139 26.4672C10.195 26.1791 10.2381 25.8901 10.3396 25.6255C10.8347 24.0831 11.0242 22.4346 10.8944 20.7985C10.6899 18.516 9.69486 17.2031 8.16052 17.1889C7.92079 17.1721 7.68066 17.2132 7.4558 17.3096C7.23094 17.4059 7.02641 17.5553 6.85555 17.7481C6.29451 18.4134 6.28521 19.4255 6.32551 20.4906C6.3596 21.4603 5.4359 22.4476 4.88416 23.0386C3.64429 24.3763 2.68959 26.3297 2.48191 28.0142C2.45091 28.2654 2.42922 28.4955 2.40752 28.722C2.4032 29.0968 2.33475 29.4671 2.20604 29.8119C1.58745 30.4486 0.936413 31.043 0.256342 31.5919C0.190539 31.6475 0.135021 31.7174 0.0929927 31.7976C0.0509642 31.8777 0.0232567 31.9666 0.0114682 32.0591C0.0114682 32.1475 -0.239606 34.2319 1.6078 36.9108C2.93136 38.8324 4.82217 39.6994 6.04034 39.6994H6.08373C6.26625 39.7188 6.45019 39.6885 6.62046 39.611C6.79073 39.5334 6.94247 39.4109 7.06323 39.2535C7.3732 38.7616 8.57277 37.2753 9.04702 36.9851C10.2466 36.2455 11.4555 35.5696 12.5435 35.0211C15.1162 34.9644 21.6844 34.9149 23.1722 35.336C23.4216 35.4074 23.6777 35.443 23.9348 35.4422C25.0538 35.4422 26.2192 34.8017 26.5788 33.4994C26.702 33.1275 26.7551 32.7301 26.7348 32.3332C26.7145 31.9362 26.6212 31.5486 26.461 31.1956C26.3429 30.9564 26.1922 30.7402 26.0147 30.5551C27.611 29.9464 27.9922 28.821 27.9984 27.9045ZM25.3978 33.0747C25.1808 33.8568 24.2075 34.1717 23.4729 33.963C22.2516 33.6091 18.4731 33.5595 15.6617 33.5701L15.9531 33.4463C18.6027 32.297 21.3522 31.4737 24.1548 30.9903C24.7748 31.1956 25.1901 31.4999 25.373 31.8786C25.4484 32.0655 25.4895 32.268 25.4938 32.4737C25.4981 32.6794 25.4654 32.884 25.3978 33.0747ZM24.7283 29.4686C19.7471 30.3392 17.1031 31.4645 15.5222 32.1369L15.0542 32.2997C12.79 33.2695 10.5862 34.414 8.45809 35.7253C7.73586 36.1676 6.53629 37.7318 6.15503 38.2697C5.64978 38.3511 3.86437 37.8875 2.5811 36.0226C1.43112 34.3558 1.25444 33.0499 1.23584 32.5156C1.81858 32.0166 2.92206 31.0505 3.19174 30.6542C3.5017 30.1764 3.573 29.5925 3.64739 28.8564C3.66599 28.6583 3.68768 28.4424 3.71558 28.2053C3.88606 26.8393 4.69818 25.1761 5.73967 24.0649C6.3999 23.3571 7.63047 22.0407 7.56848 20.4234C7.54988 19.928 7.51578 19.0079 7.75446 18.7248C7.78236 18.6929 7.86295 18.5974 8.14812 18.5974C9.01293 18.5974 9.52127 19.3901 9.65766 20.9365C9.77565 22.3567 9.61578 23.7891 9.18961 25.13C9.01609 25.6082 8.94796 26.1276 8.99119 26.6428C9.03443 27.158 9.1877 27.6532 9.43758 28.085C9.69149 28.4938 10.0295 28.8251 10.4219 29.0497C10.8143 29.2743 11.2491 29.3854 11.6879 29.3731C12.655 29.3731 13.4021 29.0935 14.4374 28.6972C15.5997 28.232 16.786 27.8491 17.9896 27.5506C19.8787 27.0395 21.806 26.7338 23.7457 26.6376C25.2521 26.6057 26.1944 26.7933 26.554 27.2003C26.6317 27.2937 26.6903 27.4056 26.7257 27.528C26.761 27.6504 26.7723 27.7801 26.7586 27.908C26.7555 28.1911 26.7493 29.1148 24.7283 29.4686Z" fill="#151518"/>
<path d="M5.94115 13.5439C5.98764 13.5439 10.7208 14.3508 12.6736 16.5802C14.6264 18.8097 15.327 24.2064 15.327 24.2595C15.327 24.4472 15.3923 24.6272 15.5085 24.76C15.6248 24.8927 15.7825 24.9673 15.9469 24.9673C16.1113 24.9673 16.269 24.8927 16.3853 24.76C16.5015 24.6272 16.5668 24.4472 16.5668 24.2595C16.5668 24.2064 17.2736 18.8026 19.2264 16.5732C21.1792 14.3437 25.9062 13.5439 25.9527 13.5439C26.1171 13.5439 26.2748 13.4694 26.391 13.3366C26.5073 13.2039 26.5726 13.0239 26.5726 12.8362C26.5726 12.6485 26.5073 12.4684 26.391 12.3357C26.2748 12.203 26.1171 12.1284 25.9527 12.1284C25.9062 12.1284 21.173 11.3216 19.2202 9.09209C17.2674 6.86263 16.5668 1.46593 16.5668 1.41284C16.5668 1.22513 16.5015 1.04511 16.3853 0.912378C16.269 0.779646 16.1113 0.705078 15.9469 0.705078C15.7825 0.705078 15.6248 0.779646 15.5085 0.912378C15.3923 1.04511 15.327 1.22513 15.327 1.41284C15.327 1.46593 14.6202 6.86971 12.6674 9.09917C10.7147 11.3286 5.98764 12.1284 5.94115 12.1284C5.77673 12.1284 5.61905 12.203 5.50279 12.3357C5.38653 12.4684 5.32121 12.6485 5.32121 12.8362C5.32121 13.0239 5.38653 13.2039 5.50279 13.3366C5.61905 13.4694 5.77673 13.5439 5.94115 13.5439ZM13.5509 10.1077C14.7225 8.77006 15.4851 6.56891 15.9469 4.76057C16.4088 6.57953 17.1868 8.77006 18.343 10.1077C19.4991 11.4454 21.4426 12.316 23.0266 12.8432C21.4302 13.3705 19.5146 14.2588 18.343 15.5788C17.1713 16.8987 16.4088 19.0999 15.9469 20.9188C15.4851 19.0999 14.707 16.9094 13.5509 15.5717C12.3947 14.234 10.4512 13.3635 8.86724 12.8362C10.4636 12.3089 12.3792 11.4383 13.5509 10.1007V10.1077Z" fill="#151518"/>
<path d="M21.5263 7.17405C21.6905 7.17326 21.8477 7.09817 21.9634 6.96526L23.2032 5.54973C23.3048 5.41433 23.3579 5.24017 23.3519 5.06204C23.3458 4.88391 23.2811 4.71494 23.1707 4.58889C23.0603 4.46285 22.9123 4.389 22.7563 4.38212C22.6003 4.37524 22.4477 4.43583 22.3291 4.55178L21.0893 5.96731C21.0031 6.06628 20.9445 6.19213 20.9208 6.32903C20.8971 6.46593 20.9093 6.60778 20.956 6.73674C21.0027 6.8657 21.0818 6.97602 21.1833 7.05383C21.2847 7.13164 21.4041 7.17346 21.5263 7.17405ZM21.0893 18.7071C20.9738 18.8397 20.909 19.0191 20.909 19.2061C20.909 19.393 20.9738 19.5724 21.0893 19.705L22.3291 21.1206C22.4477 21.2365 22.6003 21.2971 22.7563 21.2902C22.9123 21.2833 23.0603 21.2095 23.1707 21.0834C23.2811 20.9574 23.3458 20.7884 23.3519 20.6103C23.3579 20.4322 23.3048 20.258 23.2032 20.1226L21.9634 18.7071C21.8472 18.5753 21.6901 18.5013 21.5263 18.5013C21.3625 18.5013 21.2054 18.5753 21.0893 18.7071ZM9.93043 6.96526C10.049 7.08121 10.2016 7.1418 10.3576 7.13492C10.5136 7.12804 10.6616 7.0542 10.772 6.92815C10.8824 6.8021 10.9471 6.63313 10.9531 6.455C10.9592 6.27687 10.9061 6.10271 10.8045 5.96731L9.56467 4.55178C9.44608 4.43583 9.29353 4.37524 9.1375 4.38212C8.98148 4.389 8.83348 4.46285 8.72307 4.58889C8.61266 4.71494 8.54798 4.88391 8.54196 5.06204C8.53593 5.24017 8.589 5.41433 8.69056 5.54973L9.93043 6.96526Z" fill="#151518"/>
</svg>
