<svg width="64" height="68" viewBox="0 0 64 68" fill="none" xmlns="http://www.w3.org/2000/svg">
<path fill-rule="evenodd" clip-rule="evenodd" d="M35.5906 65.9394C34.2308 65.9394 33.1223 64.8547 33.1223 63.5192C33.1223 62.1838 34.2308 61.0972 35.5906 61.0972C36.9505 61.0972 38.0682 62.1838 38.0682 63.5192C38.0682 64.8547 36.9505 65.9394 35.5906 65.9394ZM51.621 18.5683L51.4627 20.4676L50.8478 20.4019C48.8553 20.1875 47.0445 21.6106 46.8333 23.5564C46.7308 24.5007 47.001 25.4311 47.6156 26.1755C47.6156 26.181 47.6249 26.1883 47.6343 26.1938C47.625 26.1992 47.6156 26.203 47.6064 26.2085C46.8519 26.805 46.3769 27.6535 46.2652 28.5977C46.1627 29.5429 46.4421 30.4724 47.0475 31.2177C47.0569 31.2222 47.0569 31.2296 47.0662 31.235C47.0569 31.2405 47.0475 31.245 47.0475 31.2488C46.6707 31.5412 46.3572 31.9042 46.1251 32.3166C45.8931 32.7289 45.7473 33.1824 45.6961 33.6506C45.6449 34.1188 45.6895 34.5923 45.8272 35.0434C45.9648 35.4945 46.1928 35.9143 46.4979 36.2782C46.4887 36.2827 46.4793 36.2865 46.4793 36.291C45.7156 36.8885 45.2404 37.737 45.138 38.6812C45.0821 39.1199 45.1194 39.557 45.2311 39.9739L44.6536 45.0123L42.8838 48.6157C42.6271 49.1217 41.9882 49.3501 41.4587 49.1011C41.0768 48.9169 40.9743 48.7362 40.9371 48.6176C40.8068 48.2281 41.0023 47.6076 41.2818 46.9938L42.2599 45.0688L42.3158 44.7923L42.7908 38.0489C42.8281 37.4814 42.3903 36.9898 41.8129 36.9506C41.2261 36.9105 40.7325 37.3392 40.6858 37.9076L40.2294 44.4632L39.9779 44.933C39.773 45.317 39.5494 45.7312 39.3538 46.1627L37.6213 49.5418C37.0045 50.7578 35.3235 50.3675 35.0504 49.519C34.9293 49.1395 35.0131 48.6287 35.19 48.0776L36.9691 44.5233L37.053 44.2734L37.2765 38.0125C37.2951 37.4433 36.8387 36.967 36.2612 36.9489C35.6837 36.9279 35.19 37.3749 35.1714 37.9432L34.9758 43.8136C34.8422 44.071 34.7025 44.3253 34.5567 44.5763C34.091 45.4165 33.5694 46.3588 33.234 47.3158L32.0324 49.7315C31.595 50.6031 30.3766 50.8039 29.6758 50.0198C30.8274 48.219 31.308 45.8294 31.9672 43.8145C32.6286 41.7875 33.1875 30.8449 32.9267 26.5827H36.8387C38.8973 26.5827 40.5739 24.9434 40.5739 22.9299V22.6536C40.5739 20.6393 38.8973 18.9999 36.8387 18.9999H30.4676C29.1433 18.9999 28.498 19.5434 27.4777 20.2124L29.0333 16.3954C29.5548 15.0991 30.356 14.1366 31.5389 13.3639L34.3146 11.554C35.5254 10.7621 36.4197 9.81338 37.1276 8.56723L39.2978 4.74026C44.9643 6.15299 49.9978 9.09226 53.996 13.3748C52.5804 14.837 51.7979 16.5375 51.621 18.5683ZM54.2103 23.2828C53.9495 22.9662 53.5862 22.7701 53.1764 22.7264L50.6242 22.4499C50.2069 22.4069 49.8227 22.5173 49.4971 22.7738C48.4074 23.632 48.957 25.2994 50.2794 25.4432L52.8409 25.7195C53.6884 25.8107 54.443 25.2132 54.5361 24.3867C54.583 23.9898 54.4712 23.5984 54.2103 23.2828ZM52.8412 39.512C52.9343 38.6865 52.3196 37.9421 51.4813 37.8498L48.9199 37.5752C48.5233 37.5281 48.1115 37.647 47.7927 37.899C46.7091 38.7558 47.2578 40.4253 48.5845 40.5665L51.1459 40.8428C51.9842 40.9334 52.7479 40.3376 52.8412 39.512ZM48.752 46.7089C49.1339 45.9425 49.3203 45.2555 49.3947 44.4091L49.5438 42.7433C48.6889 42.6516 47.8641 42.6341 47.0847 42.2434L46.7214 45.4162C46.7091 45.6326 46.4915 46.1198 46.4141 46.3093C45.5944 48.3164 45.6875 48.767 46.3954 49.1009C46.9264 49.3509 47.5597 49.132 47.8112 48.6155L48.752 46.7089ZM53.4093 34.4698C53.5024 33.6452 52.8876 32.8999 52.0494 32.8095L49.488 32.533C49.086 32.4884 48.6862 32.6044 48.361 32.8577C47.2906 33.6919 47.7998 35.3811 49.1528 35.5261L51.7142 35.8017C52.5484 35.8923 53.3127 35.2921 53.4093 34.4698ZM53.9774 29.4287C54.056 28.5916 53.4456 27.8563 52.6175 27.7675L50.0561 27.4919C49.6563 27.4443 49.2521 27.5647 48.929 27.8159C47.8602 28.647 48.364 30.3392 49.7207 30.4852L52.2729 30.7617C53.1155 30.8504 53.8805 30.2552 53.9774 29.4287ZM26.2111 50.1992C26.9003 49.8398 27.5057 49.5278 27.8504 48.9932C28.8764 47.4248 29.3339 45.0749 29.9554 43.1848C30.6168 41.195 31.1943 28.1525 30.7285 25.7404C30.6103 25.1158 31.1132 24.5216 31.7624 24.5216H36.8387C37.7422 24.5216 38.4688 23.8073 38.4688 22.9296V22.6533C38.4688 21.7757 37.7422 21.0595 36.8387 21.0595H30.4676C30.123 21.0595 29.8528 21.1406 29.5641 21.3277L22.1032 26.1992C20.6874 27.1252 19.7839 28.3567 19.3462 29.9697L17.7441 35.8429C17.3808 37.1684 16.7846 38.2659 15.8625 39.2994L7.01372 49.1994C9.11799 52.3448 11.822 55.0632 14.9776 57.2054C16.3727 58.1568 17.463 58.7547 18.9735 59.4962L23.7612 52.1242C24.4133 51.127 25.3634 50.6334 26.2111 50.1992ZM22.3175 2.06078C23.6773 2.06078 24.7858 3.14737 24.7858 4.48282C24.7858 5.81827 23.6773 6.90393 22.3175 6.90393C20.9482 6.90393 19.8399 5.81827 19.8399 4.48282C19.8399 3.14737 20.9482 2.06078 22.3175 2.06078ZM56.865 13.4066C56.0598 12.4287 55.2673 11.6063 54.3593 10.7254L53.9682 10.3559C50.5684 7.21679 46.4979 4.82941 42.0735 3.38983C42.0641 3.38702 42.0549 3.38343 42.0549 3.38077C41 3.05136 40.0778 2.78643 38.9904 2.54975C38.534 2.45217 38.0682 2.65731 37.8446 3.05604L35.2831 7.56541C34.7429 8.52695 34.0816 9.22933 33.1408 9.83976L30.3743 11.6497C28.8374 12.6513 27.7569 13.953 27.0769 15.6309L24.3943 22.2274L20.9294 24.4844C19.0944 25.684 17.8743 27.3508 17.306 29.4389L15.7133 35.3112C15.4338 36.3347 14.9867 37.1448 14.2788 37.9421L5.87718 47.3503C3.45537 43.0819 2.10491 38.2094 2.10491 33.1381C2.10491 22.0669 8.50397 11.9571 18.5264 6.99713C19.3555 8.18396 20.7432 8.96393 22.3173 8.96393C24.8416 8.96393 26.8907 6.9542 26.8907 4.48282C26.8907 2.01145 24.8416 0 22.3173 0C19.513 0 17.4002 2.4745 17.7812 5.06031C6.93928 10.3331 0 21.2137 0 33.138C0 45.5072 7.44952 56.7199 18.9364 61.7521C19.4052 61.9575 19.9668 61.8031 20.2497 61.3652L25.5403 53.2314C26.0442 52.4514 27.2486 52.0535 28.1856 51.4699C29.6918 53.0734 32.3243 52.8885 33.6067 51.1442C35.1175 52.9021 38.2562 52.8654 39.5028 50.4545L39.5867 50.2995C40.9215 51.616 43.1388 51.5981 44.3651 50.1352C45.8579 51.8282 48.6768 51.5945 49.7116 49.5112L50.6524 47.6028C51.4812 45.9137 51.4823 44.679 51.6398 42.8992C54.512 42.6476 55.9926 39.3217 54.136 37.1C54.8718 36.528 55.3841 35.6805 55.4959 34.6953C55.5504 34.2259 55.5084 33.7505 55.3724 33.2973C55.2364 32.844 55.0092 32.422 54.7041 32.0561C54.7041 32.0525 54.7135 32.0487 54.7228 32.0442C55.4772 31.4467 55.9616 30.5974 56.064 29.654C56.2409 28.0249 55.2722 27.0543 55.2722 27.0176C57.7715 25.0749 56.6764 21.1519 53.5491 20.6955L53.726 18.7423C53.8472 17.2726 54.3874 16.0293 55.3747 14.9546C59.4731 20.0139 61.8949 26.3797 61.8949 33.1378C61.8949 46.5537 52.7946 58.0664 39.6519 61.4491C38.8882 60.0168 37.3512 59.0361 35.5908 59.0361C33.0665 59.0361 31.0174 61.0477 31.0174 63.5189C31.0174 65.9901 33.0665 68 35.5908 68C38.1258 68 40.1642 66.0118 40.1642 63.445C54.179 59.8243 64 47.3669 64 33.1377C63.9998 25.9694 61.4663 18.9623 56.865 13.4066Z" fill="#514DE0"/>
</svg>
