<svg width="70" height="70" viewBox="0 0 70 70" fill="none" xmlns="http://www.w3.org/2000/svg">
<path d="M55.5356 56.4291C49.8117 62.153 42.2014 65.3053 34.1067 65.3053H1.09375C0.803669 65.3053 0.52547 65.1901 0.320352 64.985C0.115234 64.7799 0 64.5017 0 64.2116C0 63.9215 0.115234 63.6433 0.320352 63.4382C0.52547 63.2331 0.803669 63.1178 1.09375 63.1178H34.1067C49.6109 63.1178 62.2244 50.5043 62.2244 35.0001C62.2244 20.7711 51.3998 8.81656 37.5577 7.09595L40.7918 9.62156C40.9714 9.76176 41.1027 9.95454 41.1675 10.173C41.2322 10.3914 41.2271 10.6247 41.1528 10.8401C41.0786 11.0555 40.939 11.2423 40.7534 11.3745C40.5678 11.5067 40.3456 11.5777 40.1178 11.5775C39.874 11.5777 39.6373 11.4961 39.4454 11.3457L33.4335 6.65093C33.3025 6.54864 33.1966 6.41784 33.1237 6.26848C33.0508 6.11912 33.0129 5.95511 33.0129 5.78892C33.0129 5.62273 33.0508 5.45872 33.1237 5.30936C33.1966 5.16 33.3025 5.0292 33.4335 4.92691L39.4454 0.232124C39.6742 0.0550714 39.9637 -0.0241595 40.2507 0.0117705C40.5378 0.0477004 40.7989 0.195865 40.9769 0.423841C41.1549 0.651816 41.2354 0.941036 41.2007 1.22821C41.166 1.51538 41.019 1.77712 40.7918 1.95615L37.0964 4.84201C44.1585 5.53093 50.7034 8.6488 55.7304 13.7678C61.3287 19.4686 64.4119 27.0092 64.4119 35.0004C64.4118 43.095 61.2596 50.7053 55.5356 56.4291ZM14.7968 58.3577C14.9926 58.5202 15.2391 58.6091 15.4935 58.6088C15.7186 58.6089 15.9383 58.5396 16.1226 58.4102C16.3068 58.2808 16.4466 58.0977 16.5229 57.8859C16.5993 57.6741 16.6084 57.4439 16.549 57.2268C16.4897 57.0096 16.3648 56.816 16.1913 56.6725C9.70758 51.3064 5.98897 43.4072 5.98897 35.0001C5.98897 22.2478 14.5883 11.0685 26.9012 7.81386C27.1816 7.73973 27.4212 7.55722 27.5671 7.30649C27.7129 7.05576 27.7533 6.75734 27.6791 6.47689C27.605 6.19644 27.4225 5.95692 27.1717 5.81103C26.921 5.66514 26.6226 5.62483 26.3421 5.69896C13.0706 9.20703 3.80146 21.256 3.80146 35.0001C3.80146 44.0611 7.8091 52.5746 14.7968 58.3577ZM69.5795 63.3494L63.5675 58.6546C63.3388 58.4776 63.0492 58.3984 62.7622 58.4343C62.4752 58.4702 62.2141 58.6184 62.036 58.8464C61.858 59.0743 61.7775 59.3636 61.8122 59.6507C61.8469 59.9379 61.9939 60.1996 62.2211 60.3787L65.7286 63.1177H53.7143C53.4243 63.1177 53.1461 63.2329 52.9409 63.438C52.7358 63.6432 52.6206 63.9214 52.6206 64.2114C52.6206 64.5015 52.7358 64.7797 52.9409 64.9848C53.1461 65.19 53.4243 65.3052 53.7143 65.3052H65.7286L62.2211 68.0442C62.0415 68.1844 61.9102 68.3772 61.8455 68.5956C61.7807 68.8141 61.7859 69.0473 61.8601 69.2627C61.9343 69.4781 62.074 69.665 62.2595 69.7972C62.4451 69.9294 62.6673 70.0003 62.8951 70.0001C63.1389 70.0003 63.3756 69.9187 63.5675 69.7684L69.5795 65.0736C69.7105 64.9713 69.8164 64.8405 69.8893 64.6911C69.9622 64.5417 70.0001 64.3777 70.0001 64.2115C70.0001 64.0453 69.9622 63.8813 69.8893 63.7319C69.8164 63.5825 69.7105 63.4517 69.5795 63.3494ZM23.3097 35.003C23.3097 29.0496 28.1533 24.206 34.1067 24.206C40.0601 24.206 44.9036 29.0496 44.9036 35.003C44.9036 40.9564 40.0601 45.7999 34.1067 45.7999C28.1533 45.7998 23.3097 40.9563 23.3097 35.003ZM25.4972 35.003C25.4972 39.7503 29.3594 43.6124 34.1067 43.6124C38.854 43.6124 42.7161 39.7503 42.7161 35.003C42.7161 30.2557 38.854 26.3935 34.1067 26.3935C29.3594 26.3934 25.4972 30.2556 25.4972 35.003ZM24.6471 19.7897C26.3084 18.7515 28.1305 17.9962 30.039 17.5544L31.1047 14.7858C31.1842 14.5796 31.3242 14.4022 31.5064 14.2771C31.6886 14.152 31.9045 14.085 32.1255 14.085H36.0876C36.3086 14.085 36.5245 14.152 36.7067 14.2771C36.8889 14.4022 37.0289 14.5796 37.1083 14.7858L38.1741 17.5544C40.0826 17.9962 41.9046 18.7516 43.566 19.7897L46.2796 18.5847C46.4816 18.495 46.706 18.4686 46.9233 18.509C47.1407 18.5494 47.3406 18.6547 47.4969 18.811L50.2987 21.6126C50.455 21.7689 50.5603 21.9689 50.6006 22.1862C50.641 22.4035 50.6146 22.628 50.5248 22.83L49.3202 25.5425C50.3587 27.2042 51.1142 29.0268 51.556 30.9359L54.3237 32.0012C54.53 32.0806 54.7074 32.2206 54.8325 32.4028C54.9576 32.585 55.0245 32.8009 55.0245 33.0219V36.9842C55.0245 37.2052 54.9576 37.421 54.8324 37.6033C54.7073 37.7855 54.53 37.9255 54.3237 38.0049L51.5551 39.0706C51.1132 40.9792 50.3578 42.8012 49.3196 44.4626L50.5248 47.1761C50.6145 47.3782 50.6409 47.6026 50.6005 47.8199C50.5601 48.0372 50.4549 48.2372 50.2986 48.3935L47.4969 51.1953C47.3406 51.3516 47.1407 51.4569 46.9233 51.4972C46.706 51.5376 46.4816 51.5112 46.2796 51.4215L43.5671 50.2168C41.9054 51.2553 40.0829 52.0108 38.1738 52.4525L37.1085 55.2203C37.0291 55.4266 36.8891 55.604 36.7069 55.7291C36.5246 55.8542 36.3088 55.9211 36.0877 55.9211H32.1255C31.9045 55.9211 31.6886 55.8541 31.5064 55.729C31.3242 55.6039 31.1842 55.4265 31.1047 55.2203L30.039 52.4517C28.1305 52.0099 26.3084 51.2545 24.6471 50.2164L21.9335 51.4215C21.7315 51.5113 21.507 51.5378 21.2897 51.4974C21.0724 51.457 20.8724 51.3516 20.7162 51.1953L17.9144 48.3936C17.7581 48.2373 17.6528 48.0374 17.6125 47.82C17.5721 47.6027 17.5985 47.3783 17.6883 47.1763L18.893 44.4638C17.8545 42.8021 17.099 40.9796 16.6573 39.0705L13.8894 38.0052C13.6831 37.9258 13.5057 37.7858 13.3806 37.6036C13.2555 37.4213 13.1885 37.2055 13.1886 36.9844V33.0218C13.1886 32.8008 13.2555 32.5849 13.3806 32.4027C13.5057 32.2205 13.6831 32.0805 13.8894 32.001L16.6578 30.9355C17.0995 29.0267 17.8549 27.2045 18.8933 25.5431L17.6883 22.8298C17.5986 22.6278 17.5722 22.4034 17.6126 22.186C17.6529 21.9687 17.7582 21.7688 17.9145 21.6125L20.7163 18.8108C20.8726 18.6545 21.0726 18.5492 21.2899 18.5089C21.5072 18.4685 21.7316 18.4949 21.9337 18.5846L24.6471 19.7897ZM24.3003 22.0292L21.732 20.8885L19.9922 22.6283L21.1328 25.1963C21.2078 25.3653 21.2388 25.5507 21.2228 25.7349C21.2067 25.9192 21.1443 26.0964 21.0412 26.25C19.874 27.9882 19.0784 29.9073 18.6765 31.9543C18.6408 32.1358 18.5597 32.3054 18.4407 32.447C18.3217 32.5887 18.1687 32.6978 17.996 32.7642L15.3759 33.7727V36.233L17.9955 37.2413C18.1681 37.3078 18.3211 37.417 18.4401 37.5586C18.5591 37.7002 18.6402 37.8697 18.6759 38.0513C19.0781 40.0994 19.8738 42.019 21.0409 43.7565C21.144 43.9101 21.2066 44.0873 21.2226 44.2716C21.2386 44.4559 21.2076 44.6412 21.1325 44.8102L19.9922 47.3775L21.732 49.1173L24.3003 47.9766C24.4693 47.9016 24.6546 47.8706 24.8388 47.8866C25.0231 47.9026 25.2003 47.965 25.3538 48.0681C27.0925 49.2353 29.0116 50.0308 31.0579 50.4328C31.2394 50.4684 31.4089 50.5495 31.5505 50.6685C31.6922 50.7875 31.8013 50.9405 31.8678 51.1131L32.8765 53.7335H35.3367L36.345 51.1141C36.4115 50.9414 36.5206 50.7884 36.6623 50.6694C36.8039 50.5504 36.9734 50.4693 37.155 50.4336C39.203 50.0314 41.1225 49.2357 42.8602 48.0686C43.0138 47.9655 43.191 47.903 43.3753 47.887C43.5595 47.871 43.7449 47.9019 43.9139 47.977L46.4812 49.1173L48.221 47.3775L47.0803 44.8093C47.0053 44.6402 46.9743 44.455 46.9903 44.2707C47.0063 44.0865 47.0687 43.9093 47.1718 43.7557C48.339 42.0171 49.1345 40.0979 49.5365 38.0517C49.5721 37.8702 49.6532 37.7007 49.7722 37.559C49.8912 37.4174 50.0442 37.3082 50.2168 37.2418L52.8372 36.2332V33.7729L50.2178 32.7646C50.0451 32.6982 49.8921 32.589 49.7731 32.4474C49.6541 32.3057 49.573 32.1362 49.5373 31.9547C49.1349 29.9067 48.3392 27.987 47.1723 26.2493C47.0692 26.0958 47.0067 25.9185 46.9906 25.7343C46.9746 25.55 47.0056 25.3646 47.0807 25.1956L48.2208 22.6284L46.4811 20.8887L43.9128 22.0293C43.7438 22.1044 43.5585 22.1353 43.3743 22.1193C43.19 22.1033 43.0129 22.0409 42.8593 21.9379C41.1206 20.7707 39.2015 19.9751 37.1552 19.5732C36.9737 19.5375 36.8042 19.4564 36.6626 19.3374C36.5209 19.2185 36.4118 19.0655 36.3453 18.8929L35.3367 16.2725H32.8765L31.8679 18.8929C31.8015 19.0655 31.6923 19.2185 31.5507 19.3374C31.409 19.4564 31.2395 19.5375 31.058 19.5732C29.0119 19.975 27.0927 20.7706 25.3539 21.9379C25.2003 22.0409 25.0231 22.1033 24.8389 22.1192C24.6546 22.1352 24.4693 22.1042 24.3003 22.0292Z" fill="#514DE0"/>
</svg>
