<svg width="63" height="62" viewBox="0 0 63 62" fill="none" xmlns="http://www.w3.org/2000/svg">
<path d="M50.9305 21.1153C50.9557 20.8979 50.9087 20.6781 50.7969 20.4899C50.6851 20.3017 50.5146 20.1553 50.3115 20.0734L43.1035 17.1664C40.3679 16.074 37.8484 14.5039 35.6624 12.5294L32.6094 9.75944C32.4254 9.59248 32.1859 9.5 31.9374 9.5C31.6889 9.5 31.4494 9.59248 31.2654 9.75944L28.2124 12.5294C26.0264 14.5039 23.5069 16.074 20.7713 17.1664L13.5633 20.0734C13.36 20.1552 13.1893 20.3014 13.0773 20.4897C12.9653 20.6779 12.9182 20.8977 12.9432 21.1153L13.6203 26.9393C14.8603 37.6352 21.2173 47.1841 31.0584 53.1371L31.4184 53.3551C31.5749 53.4498 31.7544 53.5 31.9374 53.5C32.1204 53.5 32.2999 53.4498 32.4564 53.3551L32.8154 53.1371C42.6575 47.1841 49.0135 37.6352 50.2555 26.9393L50.9305 21.1153ZM48.2685 26.7093C47.1055 36.7292 41.1575 45.6931 31.9374 51.3311C22.7173 45.6931 16.7693 36.7292 15.6063 26.7093L15.0183 21.6423L21.5193 19.0204C24.4741 17.8399 27.1955 16.1435 29.5564 14.0104L31.9374 11.8504L34.3174 14.0104C36.6786 16.1436 39.4003 17.84 42.3555 19.0204L48.8565 21.6423L48.2685 26.7093Z" fill="#514DE0"/>
<path d="M31.9374 62C36.9788 61.9993 41.9443 60.7721 46.4055 58.424L45.4695 56.655C39.8208 59.6317 33.3477 60.6615 27.0541 59.5846C20.7605 58.5078 14.9981 55.3845 10.6604 50.6991C6.32269 46.0137 3.65214 40.0281 3.06287 33.6704C2.47361 27.3127 3.99854 20.9382 7.40121 15.5354L5.70919 14.4654C2.75377 19.1558 1.11 24.5529 0.9491 30.0944C0.788198 35.6359 2.11604 41.1192 4.79434 45.9732C7.47264 50.8272 11.4034 54.8744 16.1773 57.6931C20.9511 60.5119 26.3935 61.9991 31.9374 62ZM31.9374 2.00051C37.1234 2.00135 42.2144 3.39259 46.68 6.02932C51.1457 8.66605 54.8228 12.4518 57.3283 16.9924C59.8338 21.533 61.076 26.6622 60.9257 31.846C60.7754 37.0297 59.238 42.0784 56.4736 46.4661L58.1656 47.5341C61.8033 41.7584 63.4336 34.9438 62.8037 28.1472C62.1738 21.3505 59.3188 14.9516 54.6816 9.94282C50.0444 4.93401 43.8841 1.59518 37.156 0.444124C30.4278 -0.706932 23.5079 0.394109 17.4693 3.57649L18.4053 5.34548C22.5778 3.14905 27.2221 2.00103 31.9374 2.00051Z" fill="#514DE0"/>
<path d="M38.9375 21.0003H24.9373C24.1419 21.0011 23.3793 21.3175 22.8169 21.8799C22.2544 22.4423 21.9381 23.2049 21.9373 24.0003V26.0003C21.9395 26.7408 22.2176 27.4538 22.7173 28.0003C22.2176 28.5467 21.9395 29.2598 21.9373 30.0003V32.0003C21.9395 32.7407 22.2176 33.4538 22.7173 34.0002C22.2176 34.5467 21.9395 35.2598 21.9373 36.0002V38.0002C21.9381 38.7956 22.2544 39.5582 22.8169 40.1206C23.3793 40.6831 24.1419 40.9994 24.9373 41.0002H38.9375C39.7329 40.9994 40.4955 40.6831 41.0579 40.1206C41.6204 39.5582 41.9367 38.7956 41.9375 38.0002V36.0002C41.9353 35.2598 41.6572 34.5467 41.1575 34.0002C41.6572 33.4538 41.9353 32.7407 41.9375 32.0003V30.0003C41.9353 29.2598 41.6572 28.5467 41.1575 28.0003C41.6572 27.4538 41.9353 26.7408 41.9375 26.0003V24.0003C41.9367 23.2049 41.6204 22.4423 41.0579 21.8799C40.4955 21.3175 39.7329 21.0011 38.9375 21.0003ZM39.9375 38.0002C39.9372 38.2653 39.8318 38.5195 39.6443 38.707C39.4568 38.8945 39.2026 38.9999 38.9375 39.0002H24.9373C24.6722 38.9999 24.418 38.8945 24.2305 38.707C24.043 38.5195 23.9376 38.2653 23.9373 38.0002V36.0002C23.9376 35.7351 24.043 35.4809 24.2305 35.2934C24.418 35.1059 24.6722 35.0005 24.9373 35.0002H38.9375C39.2026 35.0005 39.4568 35.1059 39.6443 35.2934C39.8318 35.4809 39.9372 35.7351 39.9375 36.0002V38.0002ZM39.9375 32.0003C39.9372 32.2654 39.8318 32.5196 39.6443 32.7071C39.4568 32.8945 39.2026 33 38.9375 33.0002H24.9373C24.6722 33 24.418 32.8945 24.2305 32.7071C24.043 32.5196 23.9376 32.2654 23.9373 32.0003V30.0003C23.9376 29.7351 24.043 29.4809 24.2305 29.2935C24.418 29.106 24.6722 29.0005 24.9373 29.0003H38.9375C39.2026 29.0005 39.4568 29.106 39.6443 29.2935C39.8318 29.4809 39.9372 29.7351 39.9375 30.0003V32.0003ZM39.9375 26.0003C39.9372 26.2654 39.8318 26.5196 39.6443 26.7071C39.4568 26.8946 39.2026 27 38.9375 27.0003H24.9373C24.6722 27 24.418 26.8946 24.2305 26.7071C24.043 26.5196 23.9376 26.2654 23.9373 26.0003V24.0003C23.9376 23.7352 24.043 23.481 24.2305 23.2935C24.418 23.106 24.6722 23.0006 24.9373 23.0003H38.9375C39.2026 23.0006 39.4568 23.106 39.6443 23.2935C39.8318 23.481 39.9372 23.7352 39.9375 24.0003V26.0003Z" fill="#514DE0"/>
<path d="M24.9373 24.0003H26.9374V26.0003H24.9373V24.0003ZM30.9374 24.0003H38.9375V26.0003H30.9374V24.0003ZM24.9373 30.0003H26.9374V32.0003H24.9373V30.0003ZM30.9374 30.0003H38.9375V32.0003H30.9374V30.0003ZM24.9373 36.0002H26.9374V38.0002H24.9373V36.0002ZM30.9374 36.0002H38.9375V38.0002H30.9374V36.0002ZM48.9375 57H54.9376C55.2028 57 55.4572 56.8947 55.6447 56.7072C55.8322 56.5196 55.9376 56.2653 55.9376 56.0001V50.0001C55.9376 49.7349 55.8322 49.4805 55.6447 49.293C55.4572 49.1055 55.2028 49.0001 54.9376 49.0001H48.9375C48.6723 49.0001 48.418 49.1055 48.2304 49.293C48.0429 49.4805 47.9375 49.7349 47.9375 50.0001V56.0001C47.9375 56.2653 48.0429 56.5196 48.2304 56.7072C48.418 56.8947 48.6723 57 48.9375 57ZM49.9375 51.0001H53.9376V55.0001H49.9375V51.0001ZM8.93722 13.0004H14.9373C15.2025 13.0004 15.4568 12.8951 15.6444 12.7075C15.8319 12.52 15.9373 12.2656 15.9373 12.0004V6.00047C15.9373 5.73526 15.8319 5.48091 15.6444 5.29337C15.4568 5.10584 15.2025 5.00048 14.9373 5.00048H8.93722C8.672 5.00048 8.41764 5.10584 8.23011 5.29337C8.04257 5.48091 7.93721 5.73526 7.93721 6.00047V12.0004C7.93721 12.2656 8.04257 12.52 8.23011 12.7075C8.41764 12.8951 8.672 13.0004 8.93722 13.0004ZM9.93723 7.00047H13.9373V11.0004H9.93723V7.00047Z" fill="#514DE0"/>
</svg>
