<svg width="63" height="62" viewBox="0 0 63 62" fill="none" xmlns="http://www.w3.org/2000/svg">
<path d="M17.4697 42.7C17.5487 46.736 21.3298 50 25.9688 50C27.2402 50.0199 28.5011 49.7669 29.6664 49.258C30.8317 48.7491 31.8742 47.9962 32.7238 47.05C32.8817 46.868 32.9687 46.635 32.9688 46.394V15.606C32.9687 15.365 32.8817 15.132 32.7238 14.95C31.8742 14.0038 30.8317 13.2509 29.6664 12.742C28.5011 12.2331 27.2402 11.9801 25.9688 12C21.2817 12 17.4688 15.332 17.4688 19.429C17.4699 19.8052 17.508 20.1803 17.5828 20.549C16.2525 21.0759 15.1062 21.9817 14.286 23.1541C13.4658 24.3264 13.0078 25.7137 12.9688 27.144C12.9777 28.8065 13.5969 30.4079 14.7087 31.644C13.5971 32.8802 12.9779 34.4815 12.9688 36.144C13.01 37.5537 13.4564 38.9216 14.2546 40.0843C15.0528 41.2469 16.169 42.155 17.4697 42.7ZM16.7797 30.889C16.2251 30.4326 15.776 29.8613 15.4634 29.2146C15.1507 28.5679 14.982 27.8612 14.9688 27.143C15.0325 25.9745 15.4666 24.8566 16.208 23.9513C16.9494 23.0459 17.9598 22.3999 19.0928 22.107C19.1088 22.102 19.1197 22.089 19.1357 22.083C19.8067 22.1163 20.4412 22.3983 20.9156 22.874C21.39 23.3496 21.6703 23.9849 21.7017 24.656H23.7017C23.6727 23.525 23.2353 22.4427 22.4702 21.6093C21.7051 20.7758 20.6641 20.2475 19.5397 20.122C19.4945 19.8937 19.4707 19.6617 19.4688 19.429C19.4688 16.436 22.3847 14 25.9688 14C26.893 13.984 27.8112 14.1524 28.6697 14.4953C29.5282 14.8382 30.3098 15.3487 30.9688 15.997V28.295C29.8964 28.4751 28.8934 28.9439 28.0675 29.6511C27.2415 30.3583 26.6238 31.2772 26.2808 32.309L26.2197 32.494L28.1178 33.124L28.1787 32.939C28.3901 32.3082 28.7562 31.7404 29.2436 31.2876C29.731 30.8348 30.3241 30.5114 30.9688 30.347V46.003C30.3098 46.6513 29.5282 47.1618 28.6697 47.5047C27.8112 47.8476 26.893 48.016 25.9688 48C22.5667 48 19.7718 45.805 19.4958 43.022C20.5311 42.8114 21.4642 42.2552 22.1419 41.4447C22.8197 40.6341 23.2018 39.6173 23.2257 38.561H21.2257C21.1995 39.1974 20.9476 39.8037 20.5152 40.2715C20.0828 40.7392 19.4981 41.0379 18.8657 41.114C17.7838 40.7867 16.8292 40.1338 16.1318 39.2443C15.4344 38.3547 15.0283 37.2718 14.9688 36.143C14.982 35.4248 15.1506 34.7179 15.4631 34.0711C15.7755 33.4243 16.2244 32.8528 16.7787 32.396C16.8863 32.3021 16.9726 32.1863 17.0316 32.0564C17.0907 31.9264 17.1213 31.7853 17.1213 31.6425C17.1213 31.4997 17.0907 31.3586 17.0316 31.2286C16.9726 31.0987 16.8873 30.9829 16.7797 30.889ZM37.7747 49.592L39.6758 47H42.0317C42.2719 47.8057 42.7941 48.4979 43.5028 48.9503C44.2115 49.4026 45.0592 49.5847 45.8911 49.4633C46.723 49.342 47.4835 48.9252 48.0334 48.2893C48.5832 47.6533 48.8859 46.8407 48.8859 46C48.8859 45.1593 48.5832 44.3467 48.0334 43.7107C47.4835 43.0748 46.723 42.658 45.8911 42.5367C45.0592 42.4153 44.2115 42.5974 43.5028 43.0497C42.7941 43.502 42.2719 44.1943 42.0317 45H39.1688C39.0118 44.9999 38.857 45.0368 38.717 45.1077C38.577 45.1786 38.4556 45.2815 38.3628 45.408L36.4628 48H33.9688V50H36.9688C37.1257 50.0001 37.2805 49.9632 37.4205 49.8923C37.5605 49.8214 37.6819 49.7185 37.7747 49.592ZM45.3688 44.5C45.6654 44.5 45.9554 44.588 46.2021 44.7528C46.4488 44.9176 46.641 45.1519 46.7546 45.426C46.8681 45.7001 46.8978 46.0017 46.8399 46.2926C46.7821 46.5836 46.6392 46.8509 46.4294 47.0607C46.2196 47.2704 45.9524 47.4133 45.6614 47.4712C45.3704 47.5291 45.0688 47.4993 44.7947 47.3858C44.5206 47.2723 44.2864 47.08 44.1215 46.8334C43.9567 46.5867 43.8688 46.2967 43.8688 46C43.8693 45.6023 44.0275 45.2211 44.3087 44.9399C44.5899 44.6587 44.9711 44.5005 45.3688 44.5ZM52.8688 36C52.8715 35.16 52.5711 34.3471 52.0228 33.7107C51.4745 33.0743 50.715 32.657 49.8839 32.5355C49.0527 32.4139 48.2055 32.5962 47.4979 33.0489C46.7903 33.5016 46.2697 34.1944 46.0317 35H40.3688C40.196 34.9999 40.0262 35.0445 39.8759 35.1295C39.7255 35.2144 39.5997 35.3369 39.5107 35.485L37.4027 39H33.9688V41H37.9688C38.1413 41 38.3109 40.9553 38.4611 40.8703C38.6113 40.7853 38.7369 40.6629 38.8257 40.515L40.9357 37H46.0317C46.2697 37.8056 46.7903 38.4984 47.4979 38.9511C48.2055 39.4038 49.0527 39.5861 49.8839 39.4645C50.715 39.343 51.4745 38.9257 52.0228 38.2893C52.5711 37.6528 52.8715 36.84 52.8688 36ZM47.8688 36C47.8688 35.7033 47.9567 35.4133 48.1215 35.1666C48.2864 34.92 48.5206 34.7277 48.7947 34.6142C49.0688 34.5006 49.3704 34.4709 49.6614 34.5288C49.9524 34.5867 50.2196 34.7296 50.4294 34.9393C50.6392 35.1491 50.7821 35.4164 50.8399 35.7074C50.8978 35.9983 50.8681 36.2999 50.7546 36.574C50.641 36.8481 50.4488 37.0824 50.2021 37.2472C49.9554 37.412 49.6654 37.5 49.3688 37.5C48.9711 37.4995 48.5899 37.3413 48.3087 37.0601C48.0275 36.7789 47.8693 36.3977 47.8688 36ZM45.3688 12.5C44.6177 12.5027 43.8875 12.7474 43.2865 13.1977C42.6854 13.648 42.2454 14.28 42.0317 15H39.6758L37.7757 12.408C37.6828 12.2813 37.5613 12.1784 37.4211 12.1075C37.2808 12.0366 37.1259 11.9998 36.9688 12H33.9688V14H36.4618L38.3628 16.592C38.4556 16.7185 38.577 16.8214 38.717 16.8923C38.857 16.9632 39.0118 17.0001 39.1688 17H42.0317C42.2185 17.6202 42.574 18.1763 43.0586 18.6061C43.5432 19.036 44.1377 19.3226 44.7758 19.434C45.4139 19.5453 46.0704 19.4771 46.6719 19.2369C47.2735 18.9966 47.7964 18.5939 48.1822 18.0736C48.568 17.5533 48.8016 16.936 48.8567 16.2906C48.9119 15.6452 48.7866 14.9972 48.4947 14.419C48.2028 13.8407 47.7559 13.355 47.2039 13.0162C46.6519 12.6773 46.0165 12.4986 45.3688 12.5ZM45.3688 17.5C45.0721 17.5 44.7821 17.412 44.5354 17.2472C44.2887 17.0824 44.0965 16.8481 43.9829 16.574C43.8694 16.2999 43.8397 15.9983 43.8976 15.7074C43.9555 15.4164 44.0983 15.1491 44.3081 14.9393C44.5179 14.7296 44.7851 14.5867 45.0761 14.5288C45.3671 14.4709 45.6687 14.5006 45.9428 14.6142C46.2169 14.7277 46.4511 14.92 46.616 15.1666C46.7808 15.4133 46.8688 15.7033 46.8688 16C46.8682 16.3977 46.71 16.7789 46.4288 17.0601C46.1476 17.3413 45.7664 17.4995 45.3688 17.5ZM49.3688 22.5C48.6177 22.5027 47.8875 22.7474 47.2865 23.1977C46.6854 23.648 46.2454 24.28 46.0317 25H40.8488L38.7487 22.375C38.6552 22.258 38.5365 22.1636 38.4015 22.0986C38.2664 22.0337 38.1186 22 37.9688 22H33.9688V24H37.4888L39.5887 26.625C39.6823 26.742 39.801 26.8364 39.936 26.9014C40.071 26.9663 40.2189 27 40.3688 27H46.0317C46.2185 27.6202 46.574 28.1763 47.0586 28.6061C47.5432 29.036 48.1377 29.3226 48.7758 29.434C49.4139 29.5453 50.0704 29.4771 50.6719 29.2369C51.2735 28.9966 51.7964 28.5939 52.1822 28.0736C52.568 27.5533 52.8016 26.936 52.8567 26.2906C52.9119 25.6452 52.7866 24.9972 52.4947 24.419C52.2028 23.8407 51.7559 23.355 51.2039 23.0162C50.6519 22.6773 50.0165 22.4986 49.3688 22.5ZM49.3688 27.5C49.0721 27.5 48.7821 27.412 48.5354 27.2472C48.2887 27.0824 48.0965 26.8481 47.9829 26.574C47.8694 26.2999 47.8397 25.9983 47.8976 25.7074C47.9555 25.4164 48.0983 25.1491 48.3081 24.9393C48.5179 24.7296 48.7851 24.5867 49.0761 24.5288C49.3671 24.4709 49.6687 24.5006 49.9428 24.6142C50.2169 24.7277 50.4511 24.92 50.616 25.1666C50.7808 25.4133 50.8688 25.7033 50.8688 26C50.8682 26.3977 50.71 26.7789 50.4288 27.0601C50.1476 27.3413 49.7664 27.4995 49.3688 27.5Z" fill="#514DE0"/>
<path d="M37.7697 2.581C43.6717 3.78017 49.0531 6.78908 53.1653 11.1891C57.2775 15.5892 59.916 21.1616 60.7137 27.131L62.6957 26.868C61.8431 20.486 59.0225 14.5285 54.6264 9.82417C50.2304 5.11983 44.4774 1.90258 38.1678 0.62L37.7697 2.581ZM36.1007 0.273C35.4227 0.183 34.7277 0.114 34.0347 0.067L33.9027 2.063C34.5534 2.10633 35.1981 2.17067 35.8367 2.256L36.1007 0.273ZM31.9688 62V60C24.2775 60 16.9012 56.9446 11.4627 51.5061C6.0241 46.0675 2.96875 38.6913 2.96875 31C2.96875 23.3087 6.0241 15.9325 11.4627 10.4939C16.9012 5.05535 24.2775 2 31.9688 2V0C23.747 0 15.8621 3.26606 10.0484 9.07969C4.23481 14.8933 0.96875 22.7783 0.96875 31C0.96875 39.2217 4.23481 47.1067 10.0484 52.9203C15.8621 58.7339 23.747 62 31.9688 62ZM34.0347 61.933C34.7255 61.8868 35.4145 61.8181 36.1007 61.727L35.8367 59.744C35.1981 59.8293 34.5534 59.8937 33.9027 59.937L34.0347 61.933ZM60.7137 34.868C59.9163 40.8379 57.2778 46.4109 53.1654 50.8113C49.053 55.2118 43.6711 58.2209 37.7687 59.42L38.1668 61.38C44.4762 60.0975 50.2291 56.8804 54.6252 52.1762C59.0212 47.4721 61.8419 41.5148 62.6948 35.133L60.7137 34.868ZM35.9688 30H37.9688V32H35.9688V30ZM40.9688 20H42.9688V22H40.9688V20ZM41.9688 39H43.9688V41H41.9688V39ZM60.9688 30H62.9688V32H60.9688V30Z" fill="#514DE0"/>
</svg>
