<svg width="64" height="66" viewBox="0 0 64 66" fill="none" xmlns="http://www.w3.org/2000/svg">
<path d="M13.5485 17.1657H21.8991C22.1808 17.1657 22.4511 17.0538 22.6504 16.8545C22.8496 16.6552 22.9616 16.385 22.9616 16.1032V8.07335C22.9616 7.79156 22.8496 7.52131 22.6504 7.32205C22.4511 7.1228 22.1808 7.01085 21.8991 7.01085H13.5485C13.2667 7.01085 12.9964 7.1228 12.7972 7.32205C12.5979 7.52131 12.486 7.79156 12.486 8.07335V16.1032C12.486 16.385 12.5979 16.6552 12.7972 16.8545C12.9964 17.0538 13.2667 17.1657 13.5485 17.1657ZM14.611 9.13585H20.8366V15.0407H14.611V9.13585ZM22.9427 6.24466H26.9218C27.2036 6.24466 27.4738 6.13272 27.6731 5.93346C27.8723 5.7342 27.9843 5.46395 27.9843 5.18216V1.16724C27.9843 0.885444 27.8723 0.615193 27.6731 0.415935C27.4738 0.216678 27.2036 0.104736 26.9218 0.104736H22.9427C22.6609 0.104736 22.3907 0.216678 22.1914 0.415935C21.9921 0.615193 21.8802 0.885444 21.8802 1.16724V5.18216C21.8802 5.46395 21.9921 5.7342 22.1914 5.93346C22.3907 6.13272 22.6609 6.24466 22.9427 6.24466ZM24.0052 2.22974H25.8593V4.11966H24.0052V2.22974ZM41.8196 12.7335H48.9888C49.2706 12.7335 49.5409 12.6215 49.7401 12.4223C49.9394 12.223 50.0513 11.9528 50.0513 11.671V5.06581C50.0513 4.78402 49.9394 4.51377 49.7401 4.31451C49.5409 4.11526 49.2706 4.00331 48.9888 4.00331H41.8196C41.5378 4.00331 41.2676 4.11526 41.0683 4.31451C40.869 4.51377 40.7571 4.78402 40.7571 5.06581V11.671C40.7571 11.9528 40.869 12.223 41.0683 12.4223C41.2676 12.6215 41.5378 12.7335 41.8196 12.7335ZM42.8821 6.12831H47.9263V10.6085H42.8821V6.12831ZM23.0597 59.4564C22.9908 59.6704 22.8558 59.857 22.6742 59.9894C22.4925 60.1218 22.2735 60.1932 22.0487 60.1934C21.9408 60.1934 21.8309 60.1768 21.7227 60.1418C20.8502 59.8607 19.9907 59.541 19.1465 59.1837C17.8537 58.636 16.5993 58.0018 15.3919 57.2852C14.2506 56.6071 13.1534 55.8573 12.1071 55.0404C8.45139 52.1845 5.42778 48.4873 3.36334 44.3484C1.19757 40.0067 0.0996094 35.3277 0.0996094 30.4415C0.0996094 22.8527 2.8568 15.5387 7.86316 9.84667C8.0501 9.63817 8.31179 9.5119 8.59133 9.49531C8.87087 9.47873 9.14566 9.57318 9.35593 9.75811C9.56621 9.94304 9.69498 10.2035 9.71424 10.4829C9.7335 10.7622 9.64169 11.0379 9.45877 11.25C4.79373 16.554 2.22461 23.3695 2.22461 30.4414C2.22461 39.4544 6.30341 47.8099 13.4153 53.3655C14.3905 54.127 15.4131 54.8259 16.4769 55.4578C17.6017 56.1255 18.7703 56.7165 19.9749 57.2266C20.7612 57.5593 21.5618 57.8571 22.3744 58.1191C22.6426 58.2056 22.8655 58.395 22.994 58.6458C23.1225 58.8966 23.1461 59.1882 23.0597 59.4564ZM63.8999 30.3341C63.8779 36.1989 62.2386 41.9076 59.1595 46.8429C56.1568 51.6556 51.908 55.5589 46.8726 58.1305C45.2795 58.9438 43.6192 59.6181 41.9102 60.146C41.8086 60.1773 41.7029 60.1933 41.5966 60.1934C41.3696 60.1932 41.1485 60.1203 40.9659 59.9854C40.7833 59.8505 40.6486 59.6607 40.5817 59.4438C40.5405 59.3104 40.526 59.1703 40.5391 59.0314C40.5521 58.8925 40.5923 58.7575 40.6575 58.6341C40.7227 58.5107 40.8116 58.4014 40.919 58.3124C41.0265 58.2234 41.1504 58.1564 41.2837 58.1152C42.8756 57.6236 44.4222 56.9955 45.9061 56.2379C55.6531 51.2603 61.7336 41.3312 61.7749 30.3258C61.8034 22.7598 58.9868 15.6322 53.8439 10.2565C53.7475 10.1557 53.6718 10.0369 53.6213 9.90682C53.5707 9.77676 53.5463 9.63802 53.5494 9.49853C53.5525 9.35903 53.583 9.22151 53.6392 9.09381C53.6955 8.96611 53.7763 8.85074 53.8771 8.75428C53.9779 8.65782 54.0968 8.58217 54.2268 8.53163C54.3569 8.4811 54.4956 8.45668 54.6351 8.45976C54.7746 8.46284 54.9121 8.49337 55.0398 8.5496C55.1675 8.60583 55.2829 8.68667 55.3794 8.78749C60.9044 14.5631 63.9305 22.215 63.8999 30.3341ZM52.5131 27.5964C52.9828 27.1946 53.282 26.599 53.282 25.934V24.2214C53.282 24.1859 53.2784 24.1514 53.2767 24.1162C54.3107 23.9175 55.095 23.0071 55.095 21.9159V20.309C55.095 19.0729 54.0894 18.0672 52.8533 18.0672H44.9817V14.8963C44.9817 14.6145 44.8698 14.3443 44.6705 14.145C44.4713 13.9458 44.201 13.8338 43.9192 13.8338H39.9402C39.6584 13.8338 39.3881 13.9458 39.1889 14.145C38.9896 14.3443 38.8777 14.6145 38.8777 14.8963V18.0672H37.1431V14.2644C37.1431 13.9826 37.0312 13.7124 36.8319 13.5131C36.6327 13.3138 36.3624 13.2019 36.0806 13.2019H25.9351C25.6533 13.2019 25.383 13.3138 25.1838 13.5131C24.9845 13.7124 24.8726 13.9826 24.8726 14.2644V18.0672H11.3208C10.0847 18.0672 9.0792 19.0729 9.0792 20.309V21.9159C9.0792 23.0071 9.86332 23.9175 10.8974 24.1162C10.8957 24.1512 10.8921 24.1858 10.8921 24.2212V25.9338C10.8921 26.5949 11.1879 27.1871 11.6526 27.5887L11.5496 27.6588L25.222 47.7053L25.081 59.3189V64.8325C25.0809 64.972 25.1084 65.1102 25.1617 65.2392C25.2151 65.3681 25.2934 65.4853 25.3921 65.5839C25.4907 65.6826 25.6079 65.7609 25.7368 65.8142C25.8657 65.8676 26.0039 65.8951 26.1435 65.895C26.3172 65.895 26.4909 65.8525 26.6488 65.7671L38.3713 59.4296C38.5398 59.3385 38.6805 59.2035 38.7786 59.039C38.8767 58.8745 38.9284 58.6865 38.9284 58.495V47.7112L52.6049 27.6588L52.5131 27.5964ZM41.0027 15.959H42.8567V17.8488H41.0027V15.959ZM13.0172 24.2214C13.0172 24.1886 13.0483 24.1576 13.0811 24.1576H51.093C51.1258 24.1576 51.1569 24.1886 51.1569 24.2214V25.934C51.1569 25.9668 51.1258 25.9977 51.093 25.9977H13.0811C13.0644 25.9969 13.0487 25.99 13.0369 25.9782C13.0251 25.9664 13.0181 25.9506 13.0172 25.934V24.2214ZM26.9977 15.327H35.0183V18.0674H26.9977V15.327ZM11.2043 20.3091C11.2043 20.2469 11.2588 20.1924 11.3209 20.1924H52.8533C52.9154 20.1924 52.97 20.2469 52.97 20.3091V21.916C52.9692 21.9467 52.9567 21.9759 52.9349 21.9976C52.9132 22.0194 52.884 22.0319 52.8533 22.0326H11.3208C11.2901 22.0318 11.2609 22.0193 11.2392 21.9976C11.2175 21.9759 11.205 21.9467 11.2042 21.916L11.2043 20.3091ZM27.2061 63.0506L27.206 60.0331L36.8034 54.7751V57.8617L27.2061 63.0506ZM36.9881 46.7849C36.8678 46.9613 36.8034 47.17 36.8034 47.3836V52.3524L27.227 57.5987L27.351 47.3966C27.3538 47.1786 27.2893 46.9651 27.1664 46.785L14.4383 28.123H49.7162L36.9881 46.7849ZM30.4382 11.1033H37.3857C37.6674 11.1033 37.9377 10.9914 38.137 10.7921C38.3362 10.5929 38.4482 10.3226 38.4482 10.0408V2.96897C38.4482 2.68718 38.3362 2.41693 38.137 2.21767C37.9377 2.01841 37.6674 1.90647 37.3857 1.90647H30.4382C30.1564 1.90647 29.8862 2.01841 29.6869 2.21767C29.4877 2.41693 29.3757 2.68718 29.3757 2.96897V10.041C29.3758 10.3227 29.4877 10.593 29.687 10.7922C29.8862 10.9914 30.1565 11.1033 30.4382 11.1033ZM31.5007 4.03147H36.3232V8.97847H31.5007V4.03147Z" fill="#514DE0"/>
</svg>
