<svg width="62" height="62" viewBox="0 0 62 62" fill="none" xmlns="http://www.w3.org/2000/svg">
<path d="M58.5475 16.7688C56.3621 12.5471 53.1772 8.8241 49.3371 6.0025C49.1423 5.86405 48.9009 5.80774 48.6649 5.84572C48.429 5.88371 48.2174 6.01294 48.0759 6.20554C47.9344 6.39813 47.8743 6.63864 47.9085 6.87516C47.9428 7.11169 48.0687 7.32526 48.259 7.46979C55.4776 12.7738 59.8822 21.1758 60.164 30.0894H53.2321V23.1455C53.2321 19.1222 50.3717 15.7547 46.5777 14.9689C45.0414 10.6125 42.889 6.94654 40.3332 4.3492C39.7872 3.79435 39.2247 3.29133 38.6488 2.83965C40.7777 3.41581 42.8386 4.23089 44.7805 5.27339C44.9928 5.38257 45.2394 5.40402 45.4674 5.33312C45.6953 5.26222 45.8863 5.10465 45.9993 4.89432C46.1122 4.68399 46.138 4.43774 46.0711 4.20857C46.0043 3.9794 45.8501 3.78564 45.6418 3.66902C41.1705 1.2687 36.1074 0 31 0C22.7196 0 14.9347 3.22448 9.07973 9.07961C3.22473 14.9347 0 22.7196 0 31C0 34.1431 0.468996 37.2446 1.39379 40.2183C1.45148 40.4037 1.56694 40.5659 1.72331 40.681C1.87969 40.7962 2.06879 40.8584 2.263 40.8585C2.35249 40.8585 2.44367 40.8452 2.53364 40.8171C2.64781 40.7816 2.75386 40.7239 2.84575 40.6474C2.93763 40.5709 3.01355 40.4771 3.06917 40.3713C3.12478 40.2654 3.15901 40.1497 3.16989 40.0306C3.18077 39.9115 3.16809 39.7915 3.13257 39.6773C2.35164 37.1665 1.91728 34.5577 1.83614 31.9104H8.76791V38.6552C8.76791 42.6516 11.5906 45.9995 15.3466 46.8144C16.8759 51.232 19.0342 54.9522 21.6078 57.5904C22.1683 58.1647 22.746 58.6842 23.338 59.1496C15.0869 56.8941 8.06363 51.07 4.42331 43.0632C4.37385 42.9544 4.30343 42.8563 4.21606 42.7747C4.1287 42.6931 4.02611 42.6294 3.91414 42.5875C3.80218 42.5455 3.68305 42.526 3.56355 42.5301C3.44405 42.5342 3.32653 42.5618 3.2177 42.6113C3.10885 42.6608 3.01082 42.7312 2.92919 42.8186C2.84757 42.906 2.78396 43.0085 2.74199 43.1205C2.70002 43.2325 2.68052 43.3516 2.68461 43.4711C2.68869 43.5906 2.71627 43.7081 2.76578 43.8169C5.19637 49.1631 9.08264 53.6974 14.0044 56.9298C19.0548 60.2468 24.9319 62 31 62C39.2804 62 47.0653 58.7754 52.9203 52.9203C58.7753 47.0651 62 39.2803 62 31C62 26.0534 60.806 21.1323 58.5475 16.7688ZM44.5763 14.7956H31.9105V1.86799C34.4047 2.12071 36.8505 3.40661 39.0354 5.62662C41.2537 7.8809 43.1547 11.0344 44.5763 14.7956ZM30.0895 14.7956H17.4237C18.8455 11.0339 20.7466 7.88018 22.9654 5.62577C25.15 3.40625 27.5957 2.12059 30.0895 1.86799V14.7956ZM1.83651 30.0895C2.23842 17.0467 11.2406 6.1334 23.3505 2.84037C22.7752 3.29157 22.2132 3.79423 21.6677 4.34848C19.1113 6.94582 16.9586 10.6122 15.4221 14.969C11.6283 15.7548 8.76791 19.1223 8.76791 23.1456V30.0895H1.83651ZM10.5888 38.6552V23.1456C10.5888 19.5454 13.5178 16.6165 17.1179 16.6165H44.8818C48.4822 16.6165 51.4111 19.5455 51.4111 23.1456V38.6552C51.4111 42.2554 48.4821 45.1843 44.8818 45.1843H17.1179C13.5178 45.1844 10.5888 42.2554 10.5888 38.6552ZM17.3467 47.0053H30.0895V60.1318C24.9677 59.6094 20.207 54.7105 17.3467 47.0053ZM38.6495 59.1596C41.1531 57.1949 43.3847 54.2593 45.1624 50.4942C45.2602 50.2766 45.2687 50.0293 45.1861 49.8055C45.1034 49.5817 44.9363 49.3993 44.7206 49.2974C44.5048 49.1956 44.2578 49.1824 44.0325 49.2609C43.8072 49.3393 43.6216 49.503 43.5158 49.7167C40.5752 55.9451 36.3864 59.6851 31.9105 60.1333V47.0053H44.8819C49.4863 47.0053 53.2321 43.2595 53.2321 38.6553V31.9105H60.1635C59.7616 44.9531 50.7594 55.8665 38.6495 59.1596Z" fill="#514DE0"/>
<path d="M30.7509 25.7195H42.962C42.0005 27.6007 40.6158 29.6365 38.9798 31.5591C38.8276 31.7375 38.6736 31.9145 38.518 32.09C37.794 31.2249 37.1821 30.3546 36.7325 29.5406C36.6747 29.4359 36.5968 29.3436 36.5033 29.2691C36.4099 29.1945 36.3026 29.1391 36.1877 29.106C36.0728 29.0728 35.9525 29.0627 35.8337 29.0761C35.7149 29.0894 35.5999 29.1261 35.4952 29.184C35.2839 29.3008 35.1276 29.4967 35.0608 29.7287C34.9939 29.9607 35.0219 30.2098 35.1386 30.4212C35.6728 31.3882 36.4048 32.4187 37.2678 33.4307C35.8184 34.9058 34.3181 36.1659 32.9106 37.0772C32.7089 37.2089 32.5677 37.4151 32.5177 37.6508C32.4678 37.8864 32.5132 38.1322 32.6441 38.3344C32.775 38.5366 32.9807 38.6787 33.2162 38.7296C33.4516 38.7804 33.6976 38.7359 33.9003 38.6058C35.3945 37.6382 36.9775 36.3149 38.5014 34.7727C38.5933 34.8656 38.6861 34.9579 38.7798 35.0497C40.3035 36.5421 41.9738 37.8009 43.4829 38.5943C43.919 38.8262 44.4774 38.6615 44.7124 38.212C44.7681 38.1062 44.8023 37.9904 44.8132 37.8713C44.8241 37.7523 44.8115 37.6322 44.776 37.5181C44.7405 37.4039 44.6828 37.2978 44.6063 37.2059C44.5298 37.114 44.436 37.0381 44.3301 36.9825C42.9734 36.2693 41.4548 35.1209 40.0539 33.7489C39.9515 33.6484 39.85 33.547 39.7494 33.4446C39.958 33.2121 40.1637 32.9769 40.3665 32.7391C42.33 30.4317 43.9596 27.9526 44.9857 25.7196H46.922C47.4249 25.7196 47.8325 25.312 47.8325 24.8091C47.8325 24.3062 47.4249 23.8986 46.922 23.8986H39.5899V20.4284C39.5899 19.9255 39.1823 19.5179 38.6794 19.5179C38.1765 19.5179 37.7689 19.9255 37.7689 20.4284V23.8986H30.7507C30.6302 23.8972 30.5107 23.9197 30.399 23.9649C30.2874 24.01 30.1858 24.0769 30.1001 24.1616C30.0145 24.2463 29.9465 24.3471 29.9001 24.4583C29.8537 24.5694 29.8298 24.6887 29.8298 24.8091C29.8298 24.9296 29.8537 25.0488 29.9001 25.16C29.9466 25.2711 30.0146 25.372 30.1003 25.4566C30.1859 25.5413 30.2876 25.6081 30.3993 25.6532C30.5109 25.6984 30.6305 25.7209 30.7509 25.7195ZM25.4302 36.0561L26.5762 39.0929C26.6184 39.2048 26.6823 39.3072 26.7641 39.3944C26.8459 39.4816 26.9441 39.5518 27.053 39.6011C27.162 39.6503 27.2795 39.6776 27.399 39.6814C27.5185 39.6852 27.6376 39.6654 27.7495 39.6232C27.8613 39.581 27.9638 39.5172 28.051 39.4353C28.1382 39.3535 28.2084 39.2553 28.2576 39.1464C28.3069 39.0374 28.3342 38.9199 28.338 38.8004C28.3418 38.6809 28.322 38.5618 28.2797 38.4499L22.7856 23.8916C22.6955 23.6568 22.5363 23.4549 22.3289 23.3127C22.1216 23.1705 21.8759 23.0947 21.6244 23.0952H21.6233C21.3724 23.0949 21.1272 23.1706 20.9202 23.3124C20.7131 23.4542 20.5539 23.6555 20.4636 23.8896L14.9192 38.4474C14.8333 38.673 14.8406 38.9236 14.9394 39.1439C15.0382 39.3642 15.2205 39.5363 15.4461 39.6222C15.9037 39.8002 16.4424 39.57 16.621 39.0954L17.7785 36.0561H25.4302ZM21.6219 25.9648L24.7431 34.2353H18.4721L21.6219 25.9648Z" fill="#514DE0"/>
</svg>
