<svg width="69" height="66" viewBox="0 0 69 66" fill="none" xmlns="http://www.w3.org/2000/svg">
<path d="M63.5934 21.3642H61.3757V20.8444C61.3757 13.5577 55.4526 7.63006 48.1713 7.63006H35.453V0.953757C35.453 0.427283 35.0261 0 34.5 0C33.9739 0 33.547 0.427283 33.547 0.953757V7.63006H20.8287C13.5474 7.63006 7.62431 13.5577 7.62431 20.8444V21.3642H5.40659C2.42548 21.3642 0 23.7915 0 26.7748V36.1722C0 39.1556 2.42548 41.5829 5.40659 41.5829H7.62431V42.1027C7.62431 49.067 13.0357 54.7895 19.8709 55.2826L19.8232 65.0415C19.8226 65.1671 19.8467 65.2917 19.8943 65.408C19.9419 65.5242 20.012 65.63 20.1006 65.719C20.1892 65.8081 20.2944 65.8788 20.4104 65.927C20.5263 65.9752 20.6507 66 20.7762 66C20.984 66 21.1908 65.9323 21.3614 65.7988L34.8269 55.3179H48.1713C55.4526 55.3179 61.3757 49.3903 61.3757 42.1036V41.5838H63.5934C66.5745 41.5838 69 39.1565 69 36.1732V26.7758C69 23.7915 66.5745 21.3642 63.5934 21.3642ZM5.40659 39.6763C3.47573 39.6763 1.90608 38.1045 1.90608 36.1732V26.7758C1.90608 24.8435 3.47668 23.2726 5.40659 23.2726H7.62431V39.6773H5.40659V39.6763ZM59.4696 42.1036C59.4696 48.3383 54.4014 53.4104 48.1713 53.4104H34.5C34.2884 53.4104 34.0826 53.481 33.9148 53.6116L21.7388 63.0882L21.7817 54.368C21.7826 54.1143 21.6826 53.8701 21.5044 53.6908C21.4158 53.6017 21.3105 53.5309 21.1946 53.4826C21.0786 53.4343 20.9543 53.4095 20.8287 53.4094C14.5986 53.4104 9.53039 48.3383 9.53039 42.1036V20.8444C9.53039 14.6097 14.5986 9.53757 20.8287 9.53757H48.1713C54.4014 9.53757 59.4696 14.6097 59.4696 20.8444V42.1036ZM67.0939 36.1732C67.0939 38.1055 65.5233 39.6763 63.5934 39.6763H61.3757V23.2717H63.5934C65.5243 23.2717 67.0939 24.8435 67.0939 26.7748V36.1732ZM30.8785 26.1329C30.8785 22.6622 28.0565 19.8382 24.5884 19.8382C21.1203 19.8382 18.2983 22.6622 18.2983 26.1329C18.2983 29.6037 21.1203 32.4277 24.5884 32.4277C28.0565 32.4277 30.8785 29.6037 30.8785 26.1329ZM24.5884 30.5202C22.1715 30.5202 20.2044 28.5517 20.2044 26.1329C20.2044 23.7142 22.1715 21.7457 24.5884 21.7457C27.0053 21.7457 28.9724 23.7142 28.9724 26.1329C28.9724 28.5517 27.0053 30.5202 24.5884 30.5202ZM44.4116 19.8382C40.9435 19.8382 38.1215 22.6622 38.1215 26.1329C38.1215 29.6037 40.9435 32.4277 44.4116 32.4277C47.8797 32.4277 50.7017 29.6037 50.7017 26.1329C50.7017 22.6622 47.8797 19.8382 44.4116 19.8382ZM44.4116 30.5202C41.9947 30.5202 40.0276 28.5517 40.0276 26.1329C40.0276 23.7142 41.9947 21.7457 44.4116 21.7457C46.8285 21.7457 48.7956 23.7142 48.7956 26.1329C48.7956 28.5517 46.8285 30.5202 44.4116 30.5202ZM43.0773 42.1561C43.0773 42.6825 42.6504 43.1098 42.1243 43.1098H26.8757C26.3496 43.1098 25.9227 42.6825 25.9227 42.1561C25.9227 41.6296 26.3496 41.2023 26.8757 41.2023H42.1243C42.6504 41.2023 43.0773 41.6296 43.0773 42.1561Z" fill="#514DE0"/>
</svg>
