<svg width="69" height="69" viewBox="0 0 69 69" fill="none" xmlns="http://www.w3.org/2000/svg">
<path d="M31.05 40.25H37.95C37.95 42.159 36.409 43.7 34.5 43.7C32.591 43.7 31.05 42.159 31.05 40.25Z" fill="#514DE0"/>
<path d="M37.95 68.9999C37.812 68.9999 37.651 68.9769 37.513 68.9079C37.3028 68.8219 37.1229 68.6755 36.9959 68.4871C36.869 68.2988 36.8008 68.077 36.8 67.8499V57.4999H19.55C11.661 57.4999 5.175 51.3589 4.646 43.5849C3.33876 43.3292 2.16085 42.6275 1.31349 41.5998C0.466121 40.572 0.00185833 39.282 0 37.95V33.35C0 31.825 0.605802 30.3624 1.68414 29.2841C2.76247 28.2058 4.22501 27.6 5.75 27.6C6.394 27.6 6.9 28.106 6.9 28.75V33.35C6.9 33.994 6.394 34.5 5.75 34.5C5.106 34.5 4.6 33.994 4.6 33.35V30.107C3.266 30.59 2.3 31.855 2.3 33.35V37.95C2.3 39.859 3.841 41.4 5.75 41.4C6.394 41.4 6.9 41.906 6.9 42.5499C6.9 49.5189 12.581 55.1999 19.55 55.1999H37.95C38.594 55.1999 39.1 55.7059 39.1 56.3499V65.0669L48.645 55.5219C48.861 55.3137 49.1499 55.1981 49.45 55.1999C56.419 55.1999 62.1 49.5189 62.1 42.5499C62.1 41.906 62.606 41.4 63.25 41.4C65.159 41.4 66.7 39.859 66.7 37.95V33.35C66.7 31.441 65.159 29.9 63.25 29.9C62.606 29.9 62.1 29.394 62.1 28.75C62.1 28.106 62.606 27.6 63.25 27.6C64.775 27.6 66.2375 28.2058 67.3159 29.2841C68.3942 30.3624 69 31.825 69 33.35V37.95C68.9981 39.282 68.5339 40.572 67.6865 41.5998C66.8391 42.6275 65.6612 43.3292 64.354 43.5849C63.825 51.1749 57.592 57.2469 49.933 57.4769L38.755 68.6549C38.6523 68.7654 38.5276 68.8532 38.389 68.9126C38.2504 68.972 38.1008 69.0018 37.95 68.9999Z" fill="#514DE0"/>
<path d="M5.75 29.9C5.106 29.9 4.6 29.394 4.6 28.75V25.3C4.6 15.157 12.857 6.89999 23 6.89999H31.05C31.694 6.89999 32.2 7.40599 32.2 8.04999C32.2 8.69399 31.694 9.19999 31.05 9.19999H23C14.122 9.19999 6.9 16.422 6.9 25.3V28.75C6.9 29.394 6.394 29.9 5.75 29.9ZM63.25 34.5C62.606 34.5 62.1 33.994 62.1 33.35V25.3C62.1 16.422 54.878 9.19999 46 9.19999H35.65C35.006 9.19999 34.5 8.69399 34.5 8.04999C34.5 7.40599 35.006 6.89999 35.65 6.89999H46C56.143 6.89999 64.4 15.157 64.4 25.3V33.35C64.4 33.994 63.894 34.5 63.25 34.5Z" fill="#514DE0"/>
<path d="M49.45 50.5999H19.55C15.111 50.5999 11.5 46.9889 11.5 42.5499V31.05C11.5 25.346 16.146 20.7 21.85 20.7H47.15C52.854 20.7 57.5 25.346 57.5 31.05V42.5499C57.5 46.9889 53.889 50.5999 49.45 50.5999ZM21.85 23C17.411 23 13.8 26.611 13.8 31.05V42.5499C13.8 44.0749 14.4058 45.5375 15.4841 46.6158C16.5625 47.6941 18.025 48.2999 19.55 48.2999H49.45C50.975 48.2999 52.4375 47.6941 53.5159 46.6158C54.5942 45.5375 55.2 44.0749 55.2 42.5499V31.05C55.2 26.611 51.589 23 47.15 23H21.85Z" fill="#514DE0"/>
<path d="M34.5 44.8499C31.97 44.8499 29.9 42.7799 29.9 40.25C29.9 39.606 30.406 39.1 31.05 39.1H37.95C38.594 39.1 39.1 39.606 39.1 40.25C39.1 42.7799 37.03 44.8499 34.5 44.8499ZM32.499 41.4C32.89 42.09 33.649 42.5499 34.5 42.5499C35.351 42.5499 36.087 42.09 36.501 41.4H32.499Z" fill="#514DE0"/>
<path d="M47.15 37.904C48.4203 37.904 49.45 36.8742 49.45 35.604C49.45 34.3337 48.4203 33.304 47.15 33.304C45.8797 33.304 44.85 34.3337 44.85 35.604C44.85 36.8742 45.8797 37.904 47.15 37.904Z" fill="#514DE0"/>
<path d="M21.85 37.904C23.1203 37.904 24.15 36.8742 24.15 35.604C24.15 34.3337 23.1203 33.304 21.85 33.304C20.5797 33.304 19.55 34.3337 19.55 35.604C19.55 36.8742 20.5797 37.904 21.85 37.904Z" fill="#514DE0"/>
<path d="M35.65 9.19999C35.006 9.19999 34.5 8.69399 34.5 8.04999V1.15C34.5 0.505999 35.006 0 35.65 0C36.294 0 36.8 0.505999 36.8 1.15V8.04999C36.8 8.69399 36.294 9.19999 35.65 9.19999Z" fill="#514DE0"/>
</svg>
