<svg width="68" height="62" viewBox="0 0 68 62" fill="none" xmlns="http://www.w3.org/2000/svg">
<path d="M46.9935 61.1196H21.0064C17.7417 61.1196 14.6729 59.8486 12.3658 57.5415C10.0587 55.2345 8.78769 52.1656 8.78769 48.9009V33.6352C8.78769 30.3705 10.0587 27.3016 12.3658 24.9946C14.6729 22.6875 17.7417 21.4165 21.0064 21.4165H46.9935C50.2582 21.4165 53.327 22.6875 55.634 24.9946C57.9411 27.3016 59.2122 30.3705 59.2122 33.6352V48.8966C59.2122 52.1613 57.9411 55.2301 55.634 57.5372C53.327 59.8486 50.2582 61.1196 46.9935 61.1196ZM21.0064 23.5059C15.4216 23.5059 10.8771 28.0504 10.8771 33.6352V48.8966C10.8771 54.4814 15.4216 59.0259 21.0064 59.0259H46.9935C52.5783 59.0259 57.1227 54.4814 57.1227 48.8966V33.6352C57.1227 28.0504 52.5783 23.5059 46.9935 23.5059H21.0064Z" fill="#514DE0"/>
<path d="M24.2537 41.8622C21.4504 41.8622 19.1695 39.5813 19.1695 36.778C19.1695 33.9747 21.4504 31.6938 24.2537 31.6938C27.057 31.6938 29.3379 33.9747 29.3379 36.778C29.3379 39.5813 27.057 41.8622 24.2537 41.8622ZM24.2537 33.7832C22.6039 33.7832 21.2589 35.1282 21.2589 36.778C21.2589 38.4278 22.6039 39.7728 24.2537 39.7728C25.9035 39.7728 27.2485 38.4278 27.2485 36.778C27.2485 35.1282 25.9035 33.7832 24.2537 33.7832ZM43.7462 41.8622C40.9429 41.8622 38.6619 39.5813 38.6619 36.778C38.6619 33.9747 40.9429 31.6938 43.7462 31.6938C46.5495 31.6938 48.8304 33.9747 48.8304 36.778C48.8304 39.5813 46.5495 41.8622 43.7462 41.8622ZM43.7462 33.7832C42.0964 33.7832 40.7513 35.1282 40.7513 36.778C40.7513 38.4278 42.0964 39.7728 43.7462 39.7728C45.3959 39.7728 46.741 38.4278 46.741 36.778C46.741 35.1282 45.3959 33.7832 43.7462 33.7832ZM33.9999 50.8424C31.5579 50.8424 29.1159 50.2547 26.9351 49.1447C26.4215 48.8835 26.2169 48.2523 26.478 47.7387C26.7392 47.2251 27.3704 47.0205 27.884 47.2816C31.7146 49.2318 36.2852 49.2318 40.1115 47.2816C40.6251 47.0205 41.2563 47.2251 41.5175 47.7387C41.7786 48.2523 41.574 48.8835 41.0604 49.1447C38.8839 50.2547 36.4419 50.8424 33.9999 50.8424ZM43.2847 23.5059H24.7151C24.1362 23.5059 23.6704 23.0401 23.6704 22.4612V18.4782C23.6704 16.3322 25.4159 14.5867 27.5619 14.5867H40.4379C42.5839 14.5867 44.3295 16.3322 44.3295 18.4782V22.4612C44.3295 23.0401 43.8637 23.5059 43.2847 23.5059ZM25.7598 21.4165H42.2444V18.4782C42.2444 17.4858 41.4347 16.6761 40.4423 16.6761H27.5619C26.5695 16.6761 25.7598 17.4858 25.7598 18.4782V21.4165Z" fill="#514DE0"/>
<path d="M33.9999 16.6761C33.421 16.6761 32.9552 16.2104 32.9552 15.6314V8.76247C32.9552 8.18353 33.421 7.71776 33.9999 7.71776C34.5789 7.71776 35.0446 8.18353 35.0446 8.76247V15.6271C35.0446 16.206 34.5789 16.6761 33.9999 16.6761ZM62.1156 42.0929H58.1674C57.5885 42.0929 57.1227 41.6272 57.1227 41.0482C57.1227 40.4693 57.5885 40.0035 58.1674 40.0035H62.1156C63.8959 40.0035 65.3411 38.5584 65.3411 36.778V33.8398C65.3411 32.0986 63.9786 30.6795 62.2374 30.6186C62.1983 30.6186 62.1591 30.6142 62.1156 30.6142H57.4057C56.8267 30.6142 56.361 30.1485 56.361 29.5695C56.361 28.9906 56.8267 28.5248 57.4057 28.5248H62.1156C62.1896 28.5248 62.2549 28.5248 62.3202 28.5292C63.6957 28.5814 64.9798 29.156 65.9418 30.1485C66.9038 31.1453 67.4349 32.4555 67.4349 33.8398V36.778C67.4305 39.7075 65.0451 42.0929 62.1156 42.0929Z" fill="#514DE0"/>
<path d="M62.2766 30.6186C61.6977 30.6186 61.2319 30.1528 61.2319 29.5739V29.3214C61.2319 18.352 54.7025 8.5013 44.5993 4.22671C41.2432 2.80765 37.6782 2.08506 33.9999 2.08506C18.9823 2.08506 6.76792 14.2994 6.76792 29.3171V29.5695C6.76792 30.1485 6.30216 30.6142 5.72322 30.6142C5.14428 30.6142 4.67851 30.1485 4.67851 29.5695V29.3171C4.67851 25.3602 5.45334 21.5209 6.98122 17.9036C8.45687 14.4126 10.5724 11.2741 13.2669 8.584C15.9613 5.88953 19.0955 3.77835 22.5865 2.30271C26.2038 0.774823 30.0431 0 33.9999 0C37.9567 0 41.8004 0.774823 45.4133 2.30271C48.0207 3.40835 50.4584 4.884 52.6523 6.69482C54.8287 8.49259 56.7353 10.5907 58.3154 12.9239C61.5932 17.7731 63.3257 23.4449 63.3257 29.3171V29.5695C63.3213 30.1485 62.8556 30.6186 62.2766 30.6186Z" fill="#514DE0"/>
<path d="M9.83239 42.0929H5.88428C2.95475 42.0929 0.569336 39.7075 0.569336 36.778V33.8398C0.569336 32.4555 1.10039 31.1453 2.06239 30.1485C3.02004 29.156 4.30851 28.5814 5.68404 28.5292C5.74498 28.5248 5.81028 28.5248 5.88428 28.5248H10.5942C11.1731 28.5248 11.6389 28.9906 11.6389 29.5695C11.6389 30.1485 11.1731 30.6142 10.5942 30.6142H5.88428C5.84075 30.6142 5.80157 30.6142 5.76675 30.6186C4.02122 30.6839 2.65875 32.0986 2.65875 33.8441V36.7824C2.65875 38.5627 4.10392 40.0079 5.88428 40.0079H9.83239C10.4113 40.0079 10.8771 40.4736 10.8771 41.0526C10.8771 41.6315 10.407 42.0929 9.83239 42.0929Z" fill="#514DE0"/>
</svg>
