<svg width="70" height="61" viewBox="0 0 70 61" fill="none" xmlns="http://www.w3.org/2000/svg">
<path d="M59.2812 53.1875C58.9746 53.187 58.6805 53.0657 58.4626 52.8499L49.2126 43.5999C49.002 43.3818 48.8855 43.0897 48.8881 42.7866C48.8907 42.4834 49.0123 42.1934 49.2267 41.979C49.4411 41.7646 49.7311 41.643 50.0343 41.6404C50.3374 41.6378 50.6295 41.7543 50.8476 41.9649L58.125 49.2401V42.7812C58.125 42.4746 58.2468 42.1805 58.4637 41.9637C58.6805 41.7468 58.9746 41.625 59.2812 41.625C63.7444 41.625 67.375 37.9944 67.375 33.5312V10.4062C67.375 5.94313 63.7444 2.3125 59.2812 2.3125H36.1562C31.6931 2.3125 28.0625 5.94313 28.0625 10.4062V15.0312C28.0624 15.1786 28.0342 15.3246 27.9792 15.4614L23.9879 25.4375H26.9063C27.2129 25.4375 27.507 25.5593 27.7238 25.7762C27.9407 25.993 28.0625 26.2871 28.0625 26.5938V32.3542C30.2848 32.2756 33.2864 31.9796 34.4566 31.3552C34.6327 31.2614 34.8301 31.2148 35.0296 31.2199C35.229 31.225 35.4238 31.2816 35.5949 31.3843C35.766 31.487 35.9076 31.6321 36.006 31.8058C36.1044 31.9794 36.1561 32.1755 36.1562 32.375C36.1562 36.4011 32.4285 38.1701 30.1253 38.8801C30.874 39.7444 31.8003 40.4371 32.8412 40.9108C33.882 41.3845 35.0127 41.6281 36.1562 41.625H39.625C39.9317 41.625 40.2258 41.7468 40.4426 41.9637C40.6594 42.1805 40.7812 42.4746 40.7812 42.7812C40.7812 43.0879 40.6594 43.382 40.4426 43.5988C40.2258 43.8157 39.9317 43.9375 39.625 43.9375H36.1562C34.3382 43.9273 32.5543 43.442 30.9817 42.5297C29.409 41.6174 28.1021 40.3098 27.1907 38.7367C27.0958 38.5737 27.0421 38.39 27.0345 38.2016C27.0269 38.0132 27.0654 37.8257 27.1468 37.6556C27.2282 37.4855 27.35 37.3379 27.5016 37.2256C27.6531 37.1134 27.8298 37.0399 28.0163 37.0116C28.0648 37.0046 31.9544 36.3849 33.3512 34.114C30.7311 34.6667 27.3873 34.6875 26.9063 34.6875C26.5996 34.6875 26.3055 34.5657 26.0887 34.3488C25.8718 34.132 25.75 33.8379 25.75 33.5312V27.75H22.2813C22.0925 27.7494 21.9067 27.7027 21.7401 27.6139C21.5734 27.5251 21.431 27.3969 21.3253 27.2405C21.2195 27.0842 21.1535 26.9043 21.1331 26.7166C21.1128 26.5289 21.1385 26.3391 21.2083 26.1636L25.75 14.8093V10.4062C25.75 4.66894 30.4189 0 36.1562 0H59.2812C65.0186 0 69.6875 4.66894 69.6875 10.4062V33.5312C69.6849 36.0902 68.7405 38.5586 67.0346 40.4659C65.3286 42.3732 62.9803 43.5859 60.4375 43.8727V52.0312C60.4375 52.3379 60.3157 52.632 60.0988 52.8488C59.882 53.0657 59.5879 53.1875 59.2812 53.1875Z" fill="#514DE0"/>
<path d="M13.0312 60.125C12.7246 60.125 12.4305 60.0032 12.2137 59.7863C11.9968 59.5695 11.875 59.2754 11.875 58.9688V50.875H10.7188C7.95978 50.8719 5.31469 49.7746 3.3638 47.8237C1.41291 45.8728 0.31556 43.2277 0.3125 40.4688V17.3438C0.3125 11.6064 4.98144 6.9375 10.7188 6.9375H22.2812C22.5879 6.9375 22.882 7.05932 23.0988 7.27616C23.3157 7.493 23.4375 7.78709 23.4375 8.09375C23.4375 8.40041 23.3157 8.6945 23.0988 8.91134C22.882 9.12818 22.5879 9.25 22.2812 9.25H10.7188C6.25563 9.25 2.625 12.8806 2.625 17.3438V40.4688C2.625 44.9319 6.25563 48.5625 10.7188 48.5625H13.0312C13.3379 48.5625 13.632 48.6843 13.8488 48.9012C14.0657 49.118 14.1875 49.4121 14.1875 49.7188V56.1776L21.4626 48.9024C21.57 48.7947 21.6976 48.7092 21.8381 48.6509C21.9785 48.5926 22.1291 48.5625 22.2812 48.5625H36.1562C40.6194 48.5625 44.25 44.9319 44.25 40.4688V17.3438C44.25 12.8806 40.6194 9.25 36.1562 9.25H32.6181C32.3115 9.25 32.0174 9.12818 31.8005 8.91134C31.5837 8.6945 31.4619 8.40041 31.4619 8.09375C31.4619 7.78709 31.5837 7.493 31.8005 7.27616C32.0174 7.05932 32.3115 6.9375 32.6181 6.9375H36.1562C41.8936 6.9375 46.5625 11.6064 46.5625 17.3438V40.4688C46.5625 46.2061 41.8936 50.875 36.1562 50.875H22.7599L13.8476 59.7874C13.6309 60.0035 13.3373 60.1249 13.0312 60.125Z" fill="#514DE0"/>
<path d="M32.1094 17.3438C31.9167 17.3438 31.7271 17.2957 31.5578 17.2038C31.3885 17.1119 31.2448 16.9792 31.1398 16.8177C31.0348 16.6562 30.9718 16.471 30.9566 16.279C30.9414 16.0869 30.9743 15.8941 31.0526 15.7181C31.5798 14.5294 32.5696 13.875 33.8438 13.875C35.111 13.875 36.1031 14.5294 36.6326 15.7134C36.6971 15.8522 36.7334 16.0025 36.7394 16.1554C36.7454 16.3083 36.721 16.461 36.6675 16.6044C36.6141 16.7478 36.5327 16.8792 36.4281 16.9909C36.3235 17.1026 36.1977 17.1925 36.0581 17.2553C35.9185 17.318 35.7679 17.3524 35.6149 17.3565C35.4619 17.3606 35.3096 17.3343 35.1668 17.279C35.0241 17.2238 34.8937 17.1408 34.7833 17.0348C34.6729 16.9288 34.5846 16.8019 34.5236 16.6616C34.3433 16.2615 34.1536 16.1875 33.8438 16.1875C33.5316 16.1875 33.3419 16.2592 33.1662 16.6569C33.0754 16.8614 32.9272 17.0351 32.7396 17.157C32.552 17.2789 32.3331 17.3438 32.1094 17.3438ZM10.6494 41.625H10.4158C10.1092 41.625 9.81506 41.5032 9.59822 41.2863C9.38138 41.0695 9.25956 40.7754 9.25956 40.4688C9.25956 40.1621 9.38138 39.868 9.59822 39.6512C9.81506 39.4343 10.1092 39.3125 10.4158 39.3125H10.6494C11.2876 39.3125 11.875 39.8305 11.875 40.4688C11.875 41.107 11.2876 41.625 10.6494 41.625ZM15.3438 41.625H15.1102C14.8035 41.625 14.5094 41.5032 14.2926 41.2863C14.0758 41.0695 13.9539 40.7754 13.9539 40.4688C13.9539 40.1621 14.0758 39.868 14.2926 39.6512C14.5094 39.4343 14.8035 39.3125 15.1102 39.3125H15.3438C15.6504 39.3125 15.9445 39.4343 16.1613 39.6512C16.3782 39.868 16.5 40.1621 16.5 40.4688C16.5 40.7754 16.3782 41.0695 16.1613 41.2863C15.9445 41.5032 15.6504 41.625 15.3438 41.625ZM19.9688 41.625H19.7352C19.4285 41.625 19.1344 41.5032 18.9176 41.2863C18.7008 41.0695 18.5789 40.7754 18.5789 40.4688C18.5789 40.1621 18.7008 39.868 18.9176 39.6512C19.1344 39.4343 19.4285 39.3125 19.7352 39.3125H19.9688C20.2754 39.3125 20.5695 39.4343 20.7863 39.6512C21.0032 39.868 21.125 40.1621 21.125 40.4688C21.125 40.7754 21.0032 41.0695 20.7863 41.2863C20.5695 41.5032 20.2754 41.625 19.9688 41.625Z" fill="#514DE0"/>
</svg>
