<svg width="78" height="82" viewBox="0 0 78 82" fill="none" xmlns="http://www.w3.org/2000/svg">
<path d="M55.6776 67.65H45.7993C45.0296 67.65 44.5164 67.1375 44.5164 66.3688C44.5164 65.6 45.0296 65.0875 45.7993 65.0875H55.6776C56.4474 65.0875 56.9605 65.6 56.9605 66.3688C56.9605 67.1375 56.4474 67.65 55.6776 67.65ZM55.6776 74.6969H29.5066C28.7368 74.6969 28.2237 74.1844 28.2237 73.4156C28.2237 72.6469 28.7368 72.1344 29.5066 72.1344H55.6776C56.4474 72.1344 56.9605 72.6469 56.9605 73.4156C56.9605 74.1844 56.4474 74.6969 55.6776 74.6969Z" fill="#514DE0"/>
<path d="M45.7993 67.65C45.0296 67.65 44.5164 67.1375 44.5164 66.3688L44.5164 1.28125C44.5164 0.5125 45.0296 0 45.7993 0C46.5691 0 47.0822 0.5125 47.0822 1.28125V66.3688C47.0822 67.1375 46.5691 67.65 45.7993 67.65Z" fill="#514DE0"/>
<path d="M55.8059 82H29.5066C28.7368 82 28.2237 81.4875 28.2237 80.7188V66.3688C28.2237 65.6 28.7368 65.0875 29.5066 65.0875H38.2303L38.102 9.48125C38.102 8.7125 38.6151 8.2 39.3849 8.2C40.1546 8.2 40.6678 8.7125 40.6678 9.48125L40.7961 66.3688C40.7961 66.7531 40.6678 67.0094 40.4112 67.2656C40.1546 67.5219 39.898 67.65 39.5132 67.65H30.7895V79.4375H54.523V66.3688C54.523 65.8563 54.7796 65.3438 55.2928 65.2156C67.4803 60.0906 75.4342 48.3031 75.4342 35.1063C75.4342 18.0656 62.6053 4.22813 45.671 2.69062C45.0296 2.69062 44.3882 2.05 44.5164 1.28125C44.5164 0.640625 45.1579 8.59145e-08 45.9276 0.128125C64.273 1.79375 78 16.7844 78 35.1063C78 49.0719 69.7895 61.5 57.0888 67.2656V80.7188C57.0888 81.4875 56.5757 82 55.8059 82Z" fill="#514DE0"/>
<path d="M17.3191 17.425C16.8059 17.425 16.2928 17.0406 16.0362 16.5281C13.9836 9.7375 17.7039 2.69062 24.6316 0.640625C27.9671 -0.384375 31.4309 -0.128125 34.3816 1.5375C37.4605 3.20313 39.6414 5.89375 40.5395 9.225C40.7961 9.86562 40.4112 10.6344 39.6414 10.7625C39 11.0188 38.2303 10.5062 38.102 9.86562C37.3322 7.175 35.5362 4.99688 33.227 3.71563C30.7895 2.43438 28.0954 2.17812 25.4013 2.94687C19.8849 4.6125 16.9342 10.25 18.602 15.7594C18.8586 16.4 18.4737 17.1688 17.7039 17.2969C17.5757 17.425 17.4474 17.425 17.3191 17.425ZM11.6743 46.5094C5.25987 46.5094 0 41.2563 0 34.85C0 28.5719 5.13158 23.3188 11.5461 23.1906C12.1875 23.1906 12.8289 23.7031 12.8289 24.4719C12.8289 25.2406 12.3158 25.7531 11.5461 25.7531C6.54276 25.8813 2.56579 29.9813 2.56579 34.85C2.56579 39.8469 6.67105 43.9469 11.6743 43.9469C12.4441 43.9469 12.9572 44.4594 12.9572 45.2281C12.9572 45.9969 12.4441 46.5094 11.6743 46.5094Z" fill="#514DE0"/>
<path d="M18.4737 31.3906C13.8553 31.3906 10.1349 27.675 10.1349 23.0625C10.1349 18.5781 13.9836 14.7344 18.4737 14.7344C22.9638 14.7344 26.8125 18.5781 26.8125 23.0625C26.8125 23.8312 26.2993 24.3438 25.5296 24.3438C24.7599 24.3438 24.2467 23.8312 24.2467 23.0625C24.2467 19.9875 21.5526 17.2969 18.4737 17.2969C15.3947 17.2969 12.7007 19.9875 12.7007 23.0625C12.7007 26.2656 15.2664 28.8281 18.4737 28.8281C19.2434 28.8281 19.7566 29.3406 19.7566 30.1094C19.7566 30.8781 19.2434 31.3906 18.4737 31.3906ZM19.2434 53.5563C16.8059 53.5563 14.3684 52.5312 12.5724 50.6094C10.9046 48.8156 10.1349 46.5094 10.2632 44.2031C10.3914 42.025 11.4178 40.1031 12.9572 38.6938C13.4704 38.1813 14.2401 38.3094 14.7533 38.8219C15.2664 39.3344 15.1382 40.1031 14.625 40.6156C13.4704 41.5125 12.8289 42.9219 12.8289 44.3312C12.7007 45.9969 13.3421 47.5344 14.3684 48.9438C16.5493 51.3781 20.5263 51.6344 22.8355 49.5844C23.3487 49.0719 24.1184 49.2 24.6316 49.7125C25.1447 50.225 25.0164 50.9938 24.5033 51.5063C23.2204 52.9156 21.2961 53.5563 19.2434 53.5563Z" fill="#514DE0"/>
<path d="M29.25 67.5219C24.8882 67.5219 21.0395 64.575 19.7566 60.3469C18.602 56.5031 19.8849 52.4031 22.9638 49.8406C23.477 49.3281 24.375 49.4562 24.7599 49.9688C25.273 50.4813 25.1447 51.3781 24.6316 51.7625C22.3224 53.6844 21.4243 56.7594 22.1941 59.7062C23.2204 62.9094 26.1711 65.0875 29.5066 65.0875C30.148 64.9594 30.7895 65.6 30.7895 66.3688C30.7895 67.1375 30.2763 67.65 29.5066 67.65C29.3783 67.5219 29.3783 67.5219 29.25 67.5219ZM30.148 36.3875C29.1217 36.3875 27.9671 36.1312 26.9408 35.6187C26.2993 35.3625 26.0428 34.5938 26.4276 33.9531C26.8125 33.3125 27.4539 33.0562 28.0954 33.4406C29.5066 34.0812 30.7895 34.2094 31.5592 33.5688C32.5855 32.6719 32.5855 30.4938 31.6875 27.8031C31.4309 27.1625 31.8158 26.3938 32.4572 26.1375C33.0987 25.8813 33.8684 26.2656 34.125 26.9062C35.9211 32.1594 34.3816 34.5938 33.227 35.4906C32.3289 36.0031 31.3026 36.3875 30.148 36.3875ZM20.2697 43.8188C19.7566 43.8188 19.2434 43.4344 18.9868 42.9219C18.7303 42.2812 19.2434 41.5125 19.8849 41.3844C21.1678 41 22.0658 40.3594 22.1941 39.5906C22.3224 38.95 21.9375 38.3094 21.1678 37.6688C20.6546 37.2844 20.5263 36.3875 20.9112 35.875C21.2961 35.3625 22.1941 35.2344 22.7072 35.6187C24.2467 36.7719 25.0164 38.4375 24.7599 39.975C24.6316 41 23.8618 42.7937 20.6546 43.6906C20.5263 43.8187 20.398 43.8188 20.2697 43.8188ZM31.8158 17.9375C31.4309 17.9375 31.1743 17.8094 30.9178 17.5531C30.4046 17.0406 30.4046 16.2719 30.9178 15.7594C31.6875 15.1187 31.9441 14.4781 31.9441 13.9656C31.9441 13.4531 31.4309 12.4281 28.8651 11.0188C28.2237 10.6344 28.0954 9.86562 28.352 9.225C28.7368 8.58437 29.5066 8.45625 30.148 8.7125C32.8421 10.25 34.2533 11.9156 34.5099 13.5813C34.6382 14.9906 34.125 16.2719 32.7138 17.5531C32.4572 17.8094 32.0724 17.9375 31.8158 17.9375ZM30.7895 56.2469C30.148 56.2469 29.6349 55.8625 29.5066 55.2219C29.3783 54.5812 29.8914 53.8125 30.5329 53.6844C30.7895 53.6844 31.4309 53.5562 31.5592 53.1719C31.6875 53.0437 31.8158 52.275 30.9178 50.4813C30.5329 49.8406 30.7895 49.0719 31.4309 48.8156C32.0724 48.4312 32.8421 48.6875 33.0987 49.3281C34.125 51.3781 34.3816 53.0438 33.7401 54.325C33.3553 54.9656 32.5855 55.8625 30.7895 56.2469C30.9178 56.2469 30.9178 56.2469 30.7895 56.2469ZM50.8026 29.725C50.4178 29.725 50.1612 29.5969 49.9046 29.3406C49.3914 28.8281 49.3914 28.0594 49.9046 27.5469L55.8059 21.525L52.2138 21.1406C51.7007 21.1406 51.3158 20.7562 51.1875 20.2437C51.0592 19.7312 51.1875 19.2188 51.5724 18.8344L56.8322 14.0938C57.3454 13.5813 58.1151 13.7094 58.6283 14.2219C59.1414 14.7344 59.0132 15.5031 58.5 16.0156L55.4211 18.8344L58.8849 19.2188C59.398 19.2188 59.7829 19.6031 59.9112 20.1156C60.0395 20.6281 59.9112 21.1406 59.6546 21.3969L51.8289 29.3406C51.4441 29.5969 51.1875 29.725 50.8026 29.725Z" fill="#514DE0"/>
<path d="M50.8026 67.65C50.0329 67.65 49.5197 67.1375 49.5197 66.3688V28.4438C49.5197 27.675 50.0329 27.1625 50.8026 27.1625C51.5724 27.1625 52.0855 27.675 52.0855 28.4438V66.3688C52.0855 67.1375 51.5724 67.65 50.8026 67.65Z" fill="#514DE0"/>
</svg>
