<svg width="85" height="67" viewBox="0 0 85 67" fill="none" xmlns="http://www.w3.org/2000/svg">
<path d="M16.1072 17.7089H56.3344C56.7073 17.7089 57.065 17.5607 57.3287 17.297C57.5925 17.0333 57.7406 16.6756 57.7406 16.3027C57.7406 15.9297 57.5925 15.572 57.3287 15.3083C57.065 15.0446 56.7073 14.8964 56.3344 14.8964H16.1072C15.7342 14.8964 15.3765 15.0446 15.1128 15.3083C14.8491 15.572 14.7009 15.9297 14.7009 16.3027C14.7009 16.6756 14.8491 17.0333 15.1128 17.297C15.3765 17.5607 15.7342 17.7089 16.1072 17.7089ZM16.1072 28.5595H56.3344C56.7073 28.5595 57.065 28.4114 57.3287 28.1476C57.5925 27.8839 57.7406 27.5262 57.7406 27.1533C57.7406 26.7803 57.5925 26.4226 57.3287 26.1589C57.065 25.8952 56.7073 25.747 56.3344 25.747H16.1072C15.7342 25.747 15.3765 25.8952 15.1128 26.1589C14.8491 26.4226 14.7009 26.7803 14.7009 27.1533C14.7009 27.5262 14.8491 27.8839 15.1128 28.1476C15.3765 28.4114 15.7342 28.5595 16.1072 28.5595ZM36.8339 36.5977H16.1072C15.7342 36.5977 15.3765 36.7458 15.1128 37.0095C14.8491 37.2733 14.7009 37.6309 14.7009 38.0039C14.7009 38.3769 14.8491 38.7346 15.1128 38.9983C15.3765 39.262 15.7342 39.4102 16.1072 39.4102H36.8339C37.2069 39.4102 37.5646 39.262 37.8283 38.9983C38.092 38.7346 38.2402 38.3769 38.2402 38.0039C38.2402 37.6309 38.092 37.2733 37.8283 37.0095C37.5646 36.7458 37.2069 36.5977 36.8339 36.5977Z" fill="#514DE0"/>
<path d="M72.443 32.085V7.39687C72.443 3.31875 69.1312 0 65.0587 0H7.38422C3.31172 0 0 3.31875 0 7.39687V46.9181C0.0018616 48.876 0.780437 50.7531 2.16484 52.1375C3.54925 53.5219 5.42637 54.3005 7.38422 54.3023H10.7086V63.7608C10.7086 64.0321 10.7871 64.2977 10.9346 64.5255C11.0822 64.7532 11.2925 64.9334 11.5401 65.0443C11.7878 65.1552 12.0623 65.1921 12.3304 65.1505C12.5986 65.1089 12.849 64.9906 13.0514 64.8098L24.8119 54.3023H50.4366C52.7991 61.1451 59.2889 66.0797 66.9234 66.0797C76.5464 66.0797 84.375 58.2511 84.375 48.6267C84.375 40.9345 79.3659 34.4025 72.443 32.085ZM24.2761 51.4898C23.9306 51.4894 23.597 51.6166 23.3395 51.847L13.5225 60.6178V52.8947C13.5225 52.5217 13.3743 52.164 13.1106 51.9003C12.8469 51.6366 12.4892 51.4884 12.1163 51.4884H7.38562C6.17347 51.4873 5.01129 51.0053 4.15417 50.1482C3.29704 49.2911 2.81502 48.1289 2.81391 46.9167V7.39687C2.81353 6.1831 3.29467 5.01874 4.15175 4.15929C5.00883 3.29983 6.17185 2.81548 7.38562 2.8125H65.0587C66.2725 2.81548 67.4355 3.29983 68.2926 4.15929C69.1497 5.01874 69.6308 6.1831 69.6305 7.39687V31.4086C68.7356 31.2606 67.8305 31.1831 66.9234 31.1766C57.3005 31.1766 49.4719 39.0051 49.4719 48.6295C49.4719 49.6055 49.5731 50.5575 49.7278 51.4912L24.2761 51.4898ZM66.9234 63.2672C58.8516 63.2672 52.2844 56.7 52.2844 48.6267C52.2844 40.5534 58.8516 33.9877 66.9234 33.9877C74.9953 33.9877 81.5625 40.5548 81.5625 48.6281C81.5625 56.7014 74.9953 63.2672 66.9234 63.2672Z" fill="#514DE0"/>
<path d="M65.2556 42.4716C65.146 42.2212 64.9657 42.0082 64.737 41.8587C64.5082 41.7091 64.2408 41.6295 63.9675 41.6295C63.6942 41.6295 63.4268 41.7091 63.198 41.8587C62.9693 42.0082 62.789 42.2212 62.6794 42.4716L58.2103 52.6514C58.0606 52.993 58.0527 53.3802 58.1884 53.7276C58.324 54.0751 58.5922 54.3544 58.9338 54.5041C59.2755 54.6539 59.6626 54.6618 60.01 54.5261C60.3575 54.3904 60.6368 54.1223 60.7866 53.7806L61.7962 51.4814H66.1402L67.1498 53.7806C67.2996 54.1223 67.5789 54.3904 67.9264 54.5261C68.2738 54.6618 68.6609 54.6539 69.0026 54.5041C69.3442 54.3544 69.6124 54.0751 69.748 53.7276C69.8837 53.3802 69.8758 52.993 69.7261 52.6514L65.2556 42.4716ZM63.0309 48.6703L63.9675 46.5356L64.9055 48.6703H63.0309ZM72.3445 41.6306C71.9716 41.6306 71.6139 41.7788 71.3502 42.0425C71.0864 42.3062 70.9383 42.6639 70.9383 43.0369V53.2167C70.9383 53.5897 71.0864 53.9474 71.3502 54.2111C71.6139 54.4748 71.9716 54.623 72.3445 54.623C72.7175 54.623 73.0752 54.4748 73.3389 54.2111C73.6026 53.9474 73.7508 53.5897 73.7508 53.2167V43.0369C73.7508 42.6639 73.6026 42.3062 73.3389 42.0425C73.0752 41.7788 72.7175 41.6306 72.3445 41.6306Z" fill="#514DE0"/>
</svg>
