<svg width="84" height="85" viewBox="0 0 84 85" fill="none" xmlns="http://www.w3.org/2000/svg">
<path d="M43.0358 69.2011C47.2141 69.0375 51.2918 67.872 54.9254 65.8027C58.559 63.7334 61.6419 60.821 63.9144 57.3109C65.7143 54.4362 66.8389 51.1908 67.2035 47.8187C67.2411 47.4203 67.1212 47.0229 66.8694 46.7118C66.6177 46.4007 66.2542 46.2004 65.8567 46.154C65.4592 46.1076 65.0593 46.2186 64.7426 46.4633C64.426 46.7081 64.2177 47.0671 64.1624 47.4635C63.8501 50.3797 62.8799 53.1871 61.325 55.674C59.3005 58.7366 56.5836 61.2798 53.3942 63.098C50.2047 64.9162 46.6321 65.9583 42.9653 66.1401C27.7294 66.6255 18.4148 55.8348 18.2602 43.8145V34.5994C28.6267 34.235 33.1898 30.1695 35.182 26.3766C36.4486 28.8571 38.3753 30.9399 40.75 32.3954C43.1246 33.8508 45.855 34.6226 48.6402 34.6255H64.3508V41.5161C64.3508 41.9222 64.5121 42.3117 64.7993 42.5988C65.0864 42.886 65.4759 43.0473 65.882 43.0473C66.2881 43.0473 66.6776 42.886 66.9648 42.5988C67.2519 42.3117 67.4133 41.9222 67.4133 41.5161V33.0942C67.4133 32.6881 67.2519 32.2986 66.9648 32.0114C66.6776 31.7243 66.2881 31.563 65.882 31.563H48.6402C45.8081 31.5751 43.0644 30.5782 40.9007 28.7509C38.737 26.9237 37.2948 24.3855 36.8327 21.5915C36.5188 19.8351 37.1604 17.6485 35.0136 17.6179C33.4624 17.7434 33.5022 19.4002 33.6324 20.5961C33.5129 23.9419 31.5989 31.563 16.7289 31.563C16.3228 31.563 15.9333 31.7243 15.6461 32.0114C15.359 32.2986 15.1977 32.6881 15.1977 33.0942V43.813C15.3768 57.68 26.2104 69.783 43.0358 69.2011Z" fill="#514DE0"/>
<path d="M79.2958 27.5281L73.8246 26.0168C66.3613 -8.91564 16.7151 -8.47157 9.44475 26.1485L4.44981 27.5281C3.1717 27.8845 2.04513 28.6489 1.24178 29.7049C0.438429 30.7609 0.00235193 32.0506 0 33.3775V44.1544C0.00268555 45.481 0.438917 46.7704 1.24224 47.8261C2.04557 48.8818 3.17195 49.646 4.44981 50.0023L8.79397 51.2028V53.1781C8.79397 53.5842 8.9553 53.9737 9.24246 54.2608C9.52963 54.548 9.91911 54.7093 10.3252 54.7093C10.7313 54.7093 11.1208 54.548 11.408 54.2608C11.6951 53.9737 11.8565 53.5842 11.8565 53.1781V32.6425C11.7922 6.31264 44.1628 -7.11948 62.7016 11.5694C65.4789 14.3297 67.6809 17.6136 69.1801 21.2308C70.6794 24.8481 71.4461 28.7268 71.4359 32.6425V47.9825C71.424 54.7165 69.0804 61.2386 64.8035 66.44C60.5266 71.6415 54.5803 75.2013 47.9756 76.5143C47.2984 75.0222 46.1909 73.7664 44.7951 72.9081C43.3993 72.0498 41.7789 71.628 40.1417 71.697C35.6 71.697 31.9036 74.8024 31.9036 78.6183C31.9685 79.9918 32.4397 81.3151 33.2576 82.4205C34.0754 83.5259 35.2029 84.3636 36.4973 84.8275C36.873 84.9818 37.2946 84.9806 37.6693 84.8241C38.0441 84.6676 38.3413 84.3686 38.4956 83.993C38.6499 83.6173 38.6487 83.1957 38.4922 82.821C38.3357 82.4462 38.0367 82.149 37.6611 81.9947C32.8147 79.9015 35.1054 74.7059 40.1417 74.7595C45.1413 74.6753 47.5285 79.9198 42.6254 81.9931C42.2493 82.1467 41.9497 82.4433 41.7923 82.8177C41.6349 83.1922 41.6328 83.6138 41.7863 83.9899C41.9398 84.366 42.2364 84.6656 42.6109 84.823C42.9853 84.9804 43.407 84.9825 43.783 84.829C44.9293 84.4179 45.9494 83.7167 46.7437 82.7938C47.5381 81.8708 48.0797 80.7577 48.3155 79.563C55.0945 78.27 61.2788 74.8336 65.9572 69.7602C70.6355 64.6868 73.5604 58.2448 74.3008 51.3835L79.2943 50.0007C80.5721 49.6448 81.6987 48.881 82.5023 47.8255C83.3059 46.7701 83.7425 45.481 83.7456 44.1544V33.376C83.7428 32.0492 83.3064 30.7597 82.5027 29.7039C81.6991 28.6482 80.5739 27.8841 79.2958 27.5281ZM5.26444 47.05C4.63161 46.874 4.07365 46.496 3.67558 45.9735C3.27751 45.4511 3.06114 44.8128 3.05944 44.156V33.376C3.0608 32.7189 3.27702 32.0802 3.67512 31.5574C4.07322 31.0347 4.63136 30.6564 5.26444 30.4804L8.95475 29.4605C8.64544 31.4466 8.84603 45.7178 8.79244 48.0254L5.26444 47.05ZM80.6816 44.156C80.6799 44.8128 80.4635 45.4511 80.0654 45.9735C79.6674 46.496 79.1094 46.874 78.4766 47.05L74.4892 48.1525C74.4509 45.5096 74.6454 31.6916 74.3315 29.3335L78.4766 30.4804C79.1096 30.6564 79.6678 31.0347 80.0659 31.5574C80.464 32.0802 80.6802 32.7189 80.6816 33.376V44.156Z" fill="#514DE0"/>
</svg>
