<svg width="36" height="36" viewBox="0 0 36 36" fill="none" xmlns="http://www.w3.org/2000/svg">
<path d="M6.13606 0L0 10.9712L17.9998 36L36 10.9712L29.8635 0H6.13606ZM28.4004 1.36571L24.7542 9.51441L19.2846 1.36571H28.4004ZM23.5904 10.2428H12.4092L17.9998 1.91381L23.5904 10.2428ZM16.715 1.36571L11.2454 9.51441L7.59914 1.36571H16.715ZM6.47249 2.21153L10.0656 10.2428H1.98011L6.47249 2.21153ZM2.14696 11.6085H10.6055L16.2447 31.2105L2.14696 11.6085ZM12.0361 11.6085H23.963L17.9998 32.3399L12.0361 11.6085ZM19.7548 31.2105L25.394 11.6085H33.8526L19.7548 31.2105ZM25.9335 10.2428L29.5271 2.21153L34.0199 10.2428H25.9335Z" fill="#EFFB53"/>
</svg>
