<svg width="34" height="34" viewBox="0 0 34 34" fill="none" xmlns="http://www.w3.org/2000/svg">
<path d="M31.3807 21.2742C30.9129 21.2742 30.5339 21.6532 30.5339 22.1209V29.6394C30.5322 31.0418 29.396 32.1784 27.9936 32.1797H4.23388C2.83136 32.1784 1.69525 31.0418 1.69355 29.6394V7.57325C1.69525 6.17107 2.83145 5.03461 4.23388 5.03292H11.7524C12.2201 5.03292 12.5992 4.65382 12.5992 4.18614C12.5992 3.71872 12.2201 3.33937 11.7524 3.33937H4.23388C1.89661 3.34199 0.00262501 5.23597 0 7.57325V29.6397C0.00262501 31.9769 1.89661 33.8709 4.23388 33.8736H27.9936C30.3308 33.8709 32.2248 31.9769 32.2274 29.6397V22.1209C32.2274 21.6532 31.8483 21.2742 31.3807 21.2742Z" fill="#EFFB53"/>
<path d="M31.892 1.16053C30.4039 -0.327597 27.9912 -0.327597 26.5032 1.16053L11.396 16.2676C11.2926 16.371 11.2177 16.4994 11.1787 16.6404L9.19209 23.8125C9.152 23.957 9.15096 24.1094 9.18908 24.2544C9.2272 24.3993 9.30312 24.5315 9.40908 24.6375C9.51503 24.7435 9.64723 24.8195 9.79216 24.8576C9.93708 24.8958 10.0895 24.8948 10.234 24.8548L17.4062 22.8678C17.5471 22.8288 17.6755 22.7539 17.7789 22.6505L32.8856 7.54319C34.3714 6.05396 34.3714 3.64336 32.8856 2.15422L31.892 1.16053ZM13.241 16.818L25.6051 4.45372L29.5925 8.44119L17.2282 20.8055L13.241 16.818ZM12.4446 18.4163L15.6301 21.6023L11.2237 22.8232L12.4446 18.4163ZM31.6883 6.34576L30.7902 7.24368L26.8024 3.25587L27.7008 2.35787C28.5275 1.53125 29.8677 1.53125 30.6943 2.35787L31.6883 3.35147C32.5136 4.17911 32.5136 5.51846 31.6883 6.34576Z" fill="#EFFB53"/>
</svg>
