<svg width="31" height="42" viewBox="0 0 31 42" fill="none" xmlns="http://www.w3.org/2000/svg">
<path d="M30.2454 28.6099C30.257 28.2773 30.2076 27.9455 30.1002 27.6352C29.9929 27.3248 29.8298 27.0424 29.621 26.8055C28.9336 26.0615 27.7413 25.7415 25.6357 25.7862C23.4683 25.8918 21.3145 26.2256 19.2028 26.7832C17.8754 27.1074 16.5668 27.5211 15.2839 28.0221C14.2876 28.3941 13.6001 28.6582 12.7998 28.6582H12.7699C12.5134 28.6738 12.2575 28.6172 12.0255 28.4938C11.7935 28.3703 11.5927 28.1839 11.4414 27.9514C11.2969 27.6944 11.2108 27.4017 11.1905 27.0989C11.1703 26.796 11.2165 26.4922 11.3252 26.214C11.8557 24.5925 12.0587 22.8594 11.9197 21.1395C11.7005 18.7399 10.6344 17.3597 8.99048 17.3448C8.73363 17.3271 8.47635 17.3704 8.23543 17.4717C7.99451 17.5729 7.77536 17.73 7.59231 17.9326C6.99119 18.632 6.98123 19.696 7.0244 20.8158C7.06093 21.8352 6.07125 22.8732 5.4801 23.4945C4.15167 24.9007 3.12877 26.9543 2.90626 28.7252C2.87305 28.9893 2.8498 29.2312 2.82655 29.4693C2.82192 29.8633 2.74859 30.2526 2.61068 30.6151C1.94791 31.2845 1.25037 31.9093 0.521723 32.4864C0.451219 32.5448 0.391736 32.6183 0.346705 32.7026C0.301675 32.7869 0.271988 32.8803 0.259358 32.9775C0.259358 33.0705 -0.00965008 35.2618 1.96971 38.078C3.38782 40.0982 5.41368 41.0096 6.71886 41.0096H6.76536C6.96091 41.03 7.15799 40.9982 7.34042 40.9167C7.52285 40.8352 7.68543 40.7064 7.81482 40.5409C8.14693 40.0238 9.43219 38.4612 9.94031 38.1562C11.2256 37.3786 12.5208 36.6681 13.6865 36.0914C16.443 36.0319 23.4804 35.9798 25.0745 36.4225C25.3416 36.4975 25.6161 36.535 25.8915 36.5341C27.0904 36.5341 28.3391 35.8607 28.7243 34.4917C28.8563 34.1007 28.9133 33.6829 28.8915 33.2657C28.8698 32.8484 28.7698 32.4409 28.5981 32.0698C28.4716 31.8183 28.3102 31.591 28.1199 31.3964C29.8303 30.7565 30.2388 29.5734 30.2454 28.6099ZM27.459 34.0452C27.2265 34.8674 26.1837 35.1985 25.3966 34.979C24.0881 34.607 20.0397 34.5549 17.0275 34.5661L17.3397 34.4359C20.1786 33.2276 23.1244 32.3621 26.1273 31.854C26.7915 32.0698 27.2365 32.3897 27.4324 32.7878C27.5133 32.9842 27.5573 33.1972 27.5619 33.4134C27.5664 33.6297 27.5314 33.8447 27.459 34.0452ZM26.7417 30.2542C21.4047 31.1694 18.5718 32.3525 16.878 33.0594L16.3766 33.2305C13.9507 34.25 11.5894 35.4532 9.30931 36.8317C8.53549 37.2968 7.25023 38.9412 6.84174 39.5066C6.30041 39.5922 4.38746 39.1049 3.01253 37.1442C1.78041 35.392 1.59111 34.0192 1.57119 33.4574C2.19555 32.9329 3.37785 31.9172 3.66679 31.5005C3.9989 30.9983 4.07528 30.3845 4.15499 29.6106C4.17491 29.4023 4.19816 29.1754 4.22805 28.9261C4.41071 27.4901 5.28083 25.7415 6.39672 24.5733C7.10411 23.8293 8.42258 22.4453 8.35616 20.7452C8.33623 20.2243 8.2997 19.257 8.55542 18.9594C8.58531 18.9259 8.67166 18.8255 8.9772 18.8255C9.90378 18.8255 10.4484 19.6588 10.5946 21.2846C10.721 22.7776 10.5497 24.2834 10.0931 25.6932C9.90717 26.1958 9.83417 26.7419 9.88049 27.2835C9.92682 27.8251 10.091 28.3457 10.3588 28.7996C10.6308 29.2294 10.993 29.5777 11.4134 29.8138C11.8339 30.05 12.2997 30.1667 12.7699 30.1538C13.806 30.1538 14.6064 29.8599 15.7157 29.4432C16.961 28.9542 18.2321 28.5517 19.5216 28.2378C21.5457 27.7005 23.6107 27.3792 25.6889 27.278C27.3029 27.2445 28.3125 27.4417 28.6978 27.8695C28.781 27.9678 28.8438 28.0854 28.8817 28.2141C28.9196 28.3427 28.9317 28.4791 28.917 28.6136C28.9137 28.9112 28.907 29.8822 26.7417 30.2542Z" fill="#EFFB53"/>
<path d="M6.61259 13.5129C6.6624 13.5129 11.7337 14.3611 13.826 16.7049C15.9183 19.0487 16.6688 24.7222 16.6688 24.778C16.6688 24.9753 16.7388 25.1646 16.8634 25.3041C16.9879 25.4436 17.1569 25.522 17.333 25.522C17.5092 25.522 17.6781 25.4436 17.8027 25.3041C17.9273 25.1646 17.9973 24.9753 17.9973 24.778C17.9973 24.7222 18.7545 19.0413 20.8467 16.6975C22.939 14.3537 28.0037 13.5129 28.0535 13.5129C28.2297 13.5129 28.3986 13.4345 28.5232 13.295C28.6477 13.1554 28.7177 12.9662 28.7177 12.7688C28.7177 12.5715 28.6477 12.3822 28.5232 12.2427C28.3986 12.1032 28.2297 12.0248 28.0535 12.0248C28.0037 12.0248 22.9324 11.1765 20.8401 8.83274C18.7478 6.48895 17.9973 0.81549 17.9973 0.759686C17.9973 0.562349 17.9273 0.373094 17.8027 0.233555C17.6781 0.0940168 17.5092 0.015625 17.333 0.015625C17.1569 0.015625 16.9879 0.0940168 16.8634 0.233555C16.7388 0.373094 16.6688 0.562349 16.6688 0.759686C16.6688 0.81549 15.9116 6.49639 13.8193 8.84018C11.7271 11.184 6.6624 12.0248 6.61259 12.0248C6.43643 12.0248 6.26748 12.1032 6.14292 12.2427C6.01835 12.3822 5.94837 12.5715 5.94837 12.7688C5.94837 12.9662 6.01835 13.1554 6.14292 13.295C6.26748 13.4345 6.43643 13.5129 6.61259 13.5129ZM14.7658 9.90047C16.0212 8.4942 16.8382 6.18017 17.333 4.27909C17.8279 6.19133 18.6615 8.4942 19.9002 9.90047C21.139 11.3067 23.2213 12.2219 24.9184 12.7763C23.208 13.3306 21.1556 14.2644 19.9002 15.6521C18.6449 17.0397 17.8279 19.3538 17.333 21.266C16.8382 19.3538 16.0046 17.0509 14.7658 15.6446C13.5271 14.2383 11.4448 13.3231 9.74769 12.7688C11.458 12.2145 13.5105 11.2993 14.7658 9.89303V9.90047Z" fill="#EFFB53"/>
<path d="M23.311 6.81634C23.4869 6.81551 23.6553 6.73657 23.7793 6.59684L25.1077 5.10872C25.2165 4.96638 25.2734 4.78328 25.2669 4.59602C25.2605 4.40876 25.1912 4.23112 25.0729 4.09861C24.9546 3.9661 24.796 3.88847 24.6288 3.88123C24.4617 3.874 24.2982 3.9377 24.1711 4.0596L22.8427 5.54772C22.7504 5.65176 22.6876 5.78406 22.6622 5.92798C22.6368 6.0719 22.6499 6.22103 22.7 6.3566C22.75 6.49217 22.8347 6.60815 22.9434 6.68995C23.0521 6.77175 23.18 6.81572 23.311 6.81634ZM22.8427 18.9408C22.719 19.0802 22.6496 19.2688 22.6496 19.4654C22.6496 19.6619 22.719 19.8505 22.8427 19.9899L24.1711 21.4781C24.2982 21.6 24.4617 21.6636 24.6288 21.6564C24.796 21.6492 24.9546 21.5716 25.0729 21.439C25.1912 21.3065 25.2605 21.1289 25.2669 20.9416C25.2734 20.7544 25.2165 20.5713 25.1077 20.4289L23.7793 18.9408C23.6548 18.8022 23.4865 18.7244 23.311 18.7244C23.1355 18.7244 22.9672 18.8022 22.8427 18.9408ZM10.8868 6.59684C11.0139 6.71874 11.1773 6.78243 11.3445 6.7752C11.5117 6.76797 11.6702 6.69034 11.7885 6.55783C11.9068 6.42531 11.9761 6.24768 11.9826 6.06041C11.989 5.87315 11.9322 5.69006 11.8234 5.54772L10.4949 4.0596C10.3679 3.9377 10.2044 3.874 10.0373 3.88123C9.87008 3.88847 9.71151 3.9661 9.59322 4.09861C9.47492 4.23112 9.40562 4.40876 9.39917 4.59602C9.39271 4.78328 9.44957 4.96638 9.55839 5.10872L10.8868 6.59684Z" fill="#EFFB53"/>
</svg>
