<svg width="34" height="34" viewBox="0 0 34 34" fill="none" xmlns="http://www.w3.org/2000/svg">
<path d="M25.5 0H8.5C6.24566 0 4.08365 0.895533 2.48959 2.48959C0.895533 4.08365 0 6.24566 0 8.5V25.5C0 27.7543 0.895533 29.9163 2.48959 31.5104C4.08365 33.1045 6.24566 34 8.5 34H25.5C27.7543 34 29.9163 33.1045 31.5104 31.5104C33.1045 29.9163 34 27.7543 34 25.5V8.5C34 6.24566 33.1045 4.08365 31.5104 2.48959C29.9163 0.895533 27.7543 0 25.5 0ZM32.4062 25.5C32.4041 27.331 31.6758 29.0864 30.3811 30.3811C29.0864 31.6758 27.331 32.4041 25.5 32.4062H8.5C6.669 32.4041 4.91359 31.6758 3.61887 30.3811C2.32416 29.0864 1.59586 27.331 1.59375 25.5V8.5C1.59586 6.669 2.32416 4.91359 3.61887 3.61887C4.91359 2.32416 6.669 1.59586 8.5 1.59375H25.5C27.331 1.59586 29.0864 2.32416 30.3811 3.61887C31.6758 4.91359 32.4041 6.669 32.4062 8.5V25.5Z" fill="#EFFB53"/>
<path d="M24.1719 23.0446L10.9554 9.82812H16.1835V8.23438H8.23438V16.1835H9.82812V10.9549L23.0451 24.1719H17.8165V25.7656H25.7656V17.8165H24.1719V23.0446Z" fill="#EFFB53"/>
</svg>
