<svg width="74" height="88" viewBox="0 0 74 88" fill="none" xmlns="http://www.w3.org/2000/svg">
<path d="M0 24.8213V68.6472C0.00192473 70.2902 0.645059 71.8654 1.78832 73.0272C2.93159 74.189 4.48163 74.8425 6.09842 74.8444H13.4325V86.6251C13.4325 86.8664 13.495 87.1035 13.6138 87.3125C13.7325 87.5215 13.9033 87.6951 14.109 87.8158C14.3147 87.9365 14.548 88 14.7855 88C15.023 88 15.2563 87.9365 15.462 87.8158L37.5715 74.8439H67.9016C69.5183 74.842 71.0682 74.1885 72.2115 73.0268C73.3547 71.8652 73.9979 70.2901 74 68.6472V24.8213C73.9981 23.1782 73.3549 21.6031 72.2117 20.4413C71.0684 19.2795 69.5184 18.626 67.9016 18.6241H38.3513C38.3513 18.6127 38.353 18.6019 38.353 18.5897V12.3573C39.8306 12.0189 41.1335 11.1388 42.0126 9.88539C42.8916 8.63194 43.285 7.09314 43.1175 5.56339C42.95 4.03364 42.2334 2.62036 41.1047 1.59393C39.9761 0.567502 38.5146 0 37 0C35.4854 0 34.0239 0.567502 32.8953 1.59393C31.7666 2.62036 31.05 4.03364 30.8825 5.56339C30.715 7.09314 31.1084 8.63194 31.9874 9.88539C32.8665 11.1388 34.1694 12.0189 35.647 12.3573V18.5906C35.647 18.6019 35.6483 18.6127 35.6487 18.6249H6.09842C4.48177 18.6268 2.93186 19.2803 1.78862 20.4418C0.645381 21.6034 0.00214847 23.1784 0 24.8213ZM33.5508 6.25647C33.5508 5.56321 33.753 4.88551 34.132 4.30906C34.511 3.73262 35.0497 3.28332 35.6799 3.018C36.3102 2.75268 37.0037 2.68324 37.6728 2.81847C38.3419 2.95369 38.9565 3.28752 39.4389 3.77771C39.9213 4.26791 40.2498 4.89247 40.3829 5.57241C40.516 6.25236 40.4477 6.95714 40.1867 7.59763C39.9256 8.23813 39.4835 8.78557 38.9163 9.17073C38.3491 9.55589 37.6822 9.76147 37 9.76147C36.0856 9.76042 35.2089 9.39082 34.5622 8.73373C33.9156 8.07665 33.5519 7.18575 33.5508 6.25647ZM71.2939 24.8213V68.6472C71.2929 69.5612 70.9352 70.4374 70.2992 71.0837C69.6632 71.7299 68.801 72.0934 67.9016 72.0944H37.2089C36.9714 72.0945 36.738 72.158 36.5324 72.2787L16.1385 84.2436V73.4689C16.1385 73.1042 15.996 72.7545 15.7423 72.4967C15.4885 72.2388 15.1444 72.0939 14.7855 72.0939H6.09842C5.19913 72.0929 4.33694 71.7295 3.70098 71.0833C3.06502 70.4372 2.70721 69.5611 2.70605 68.6472V24.8213C2.70712 23.9073 3.06488 23.0311 3.70085 22.3848C4.33682 21.7386 5.19906 21.3751 6.09842 21.374H67.9016C68.8009 21.3751 69.6632 21.7386 70.2991 22.3848C70.9351 23.0311 71.2929 23.9073 71.2939 24.8213ZM20.7179 48.5986C22.1793 48.5986 23.608 48.1582 24.8232 47.3331C26.0384 46.5079 26.9855 45.3351 27.5448 43.963C28.1041 42.5908 28.2504 41.081 27.9652 39.6243C27.6801 38.1676 26.9763 36.8296 25.9429 35.7794C24.9094 34.7292 23.5928 34.0141 22.1594 33.7243C20.7259 33.4346 19.2402 33.5833 17.89 34.1517C16.5397 34.7201 15.3857 35.6826 14.5737 36.9175C13.7618 38.1525 13.3285 39.6043 13.3285 41.0895C13.3307 43.0804 14.11 44.9891 15.4953 46.3968C16.8806 47.8045 18.7588 48.5964 20.7179 48.5986ZM20.7179 36.3302C21.6441 36.3302 22.5496 36.6093 23.3198 37.1323C24.0899 37.6552 24.6902 38.3986 25.0447 39.2682C25.3992 40.1379 25.4919 41.0948 25.3112 42.018C25.1305 42.9412 24.6844 43.7893 24.0295 44.4549C23.3745 45.1205 22.54 45.5737 21.6315 45.7574C20.7231 45.941 19.7814 45.8468 18.9256 45.4866C18.0699 45.1263 17.3384 44.5163 16.8238 43.7337C16.3092 42.951 16.0345 42.0308 16.0345 41.0895C16.0359 39.8277 16.5298 38.618 17.4078 37.7257C18.2858 36.8335 19.4762 36.3316 20.7179 36.3302ZM53.2821 48.5986C54.7436 48.5987 56.1723 48.1583 57.3875 47.3332C58.6027 46.508 59.5499 45.3352 60.1092 43.9631C60.6685 42.591 60.8148 41.0811 60.5297 39.6244C60.2446 38.1677 59.5408 36.8297 58.5074 35.7795C57.474 34.7293 56.1573 34.0141 54.7239 33.7243C53.2904 33.4346 51.8047 33.5833 50.4544 34.1517C49.1042 34.7201 47.9501 35.6826 47.1382 36.9175C46.3263 38.1524 45.8929 39.6043 45.8929 41.0895C45.8952 43.0803 46.6744 44.989 48.0597 46.3967C49.445 47.8044 51.3231 48.5963 53.2821 48.5986ZM53.2821 36.3302C54.2084 36.3302 55.1139 36.6093 55.8841 37.1322C56.6543 37.6551 57.2546 38.3984 57.6091 39.2681C57.9636 40.1377 58.0564 41.0947 57.8757 42.0179C57.695 42.9411 57.2489 43.7892 56.594 44.4548C55.939 45.1204 55.1045 45.5737 54.196 45.7574C53.2876 45.941 52.3459 45.8468 51.4901 45.4866C50.6343 45.1264 49.9029 44.5163 49.3883 43.7337C48.8737 42.951 48.599 42.0308 48.599 41.0895C48.6004 39.8277 49.0942 38.618 49.9722 37.7258C50.8501 36.8336 52.0405 36.3317 53.2821 36.3302ZM28.4044 57.2149C30.996 58.8122 33.969 59.6568 37 59.6568C40.031 59.6568 43.004 58.8122 45.5956 57.2149C45.9027 57.0263 46.271 56.9694 46.6194 57.0567C46.9678 57.144 47.2679 57.3684 47.4535 57.6805C47.6391 57.9926 47.6951 58.3669 47.6092 58.721C47.5232 59.075 47.3024 59.3799 46.9953 59.5686C43.9816 61.426 40.5245 62.4082 36.9998 62.4082C33.4752 62.4082 30.018 61.426 27.0044 59.5686C26.6972 59.3799 26.4764 59.075 26.3905 58.721C26.3046 58.3669 26.3606 57.9926 26.5462 57.6805C26.7318 57.3684 27.0318 57.144 27.3802 57.0567C27.7287 56.9694 28.0973 57.0263 28.4044 57.2149Z" fill="#151518"/>
</svg>
