<svg width="85" height="67" viewBox="0 0 85 67" fill="none" xmlns="http://www.w3.org/2000/svg">
<path d="M16.1072 17.7091H56.3344C56.7073 17.7091 57.065 17.561 57.3287 17.2973C57.5925 17.0335 57.7406 16.6759 57.7406 16.3029C57.7406 15.9299 57.5925 15.5723 57.3287 15.3085C57.065 15.0448 56.7073 14.8966 56.3344 14.8966H16.1072C15.7342 14.8966 15.3765 15.0448 15.1128 15.3085C14.8491 15.5723 14.7009 15.9299 14.7009 16.3029C14.7009 16.6759 14.8491 17.0335 15.1128 17.2973C15.3765 17.561 15.7342 17.7091 16.1072 17.7091ZM16.1072 28.5598H56.3344C56.7073 28.5598 57.065 28.4116 57.3287 28.1479C57.5925 27.8842 57.7406 27.5265 57.7406 27.1535C57.7406 26.7806 57.5925 26.4229 57.3287 26.1592C57.065 25.8954 56.7073 25.7473 56.3344 25.7473H16.1072C15.7342 25.7473 15.3765 25.8954 15.1128 26.1592C14.8491 26.4229 14.7009 26.7806 14.7009 27.1535C14.7009 27.5265 14.8491 27.8842 15.1128 28.1479C15.3765 28.4116 15.7342 28.5598 16.1072 28.5598ZM36.8339 36.5979H16.1072C15.7342 36.5979 15.3765 36.7461 15.1128 37.0098C14.8491 37.2735 14.7009 37.6312 14.7009 38.0041C14.7009 38.3771 14.8491 38.7348 15.1128 38.9985C15.3765 39.2622 15.7342 39.4104 16.1072 39.4104H36.8339C37.2069 39.4104 37.5646 39.2622 37.8283 38.9985C38.092 38.7348 38.2402 38.3771 38.2402 38.0041C38.2402 37.6312 38.092 37.2735 37.8283 37.0098C37.5646 36.7461 37.2069 36.5979 36.8339 36.5979Z" fill="#151518"/>
<path d="M72.443 32.0852V7.39712C72.443 3.31899 69.1312 0.000244141 65.0587 0.000244141H7.38422C3.31172 0.000244141 0 3.31899 0 7.39712V46.9184C0.0018616 48.8762 0.780437 50.7533 2.16484 52.1377C3.54925 53.5221 5.42637 54.3007 7.38422 54.3026H10.7086V63.761C10.7086 64.0324 10.7871 64.298 10.9346 64.5257C11.0822 64.7534 11.2925 64.9336 11.5401 65.0445C11.7878 65.1554 12.0623 65.1923 12.3304 65.1507C12.5986 65.1091 12.849 64.9908 13.0514 64.8101L24.8119 54.3026H50.4366C52.7991 61.1454 59.2889 66.0799 66.9234 66.0799C76.5464 66.0799 84.375 58.2513 84.375 48.627C84.375 40.9348 79.3659 34.4027 72.443 32.0852ZM24.2761 51.4901C23.9306 51.4897 23.597 51.6169 23.3395 51.8473L13.5225 60.618V52.8949C13.5225 52.522 13.3743 52.1643 13.1106 51.9006C12.8469 51.6368 12.4892 51.4887 12.1163 51.4887H7.38562C6.17347 51.4876 5.01129 51.0055 4.15417 50.1484C3.29704 49.2913 2.81502 48.1291 2.81391 46.917V7.39712C2.81353 6.18334 3.29467 5.01899 4.15175 4.15953C5.00883 3.30008 6.17185 2.81572 7.38562 2.81274H65.0587C66.2725 2.81572 67.4355 3.30008 68.2926 4.15953C69.1497 5.01899 69.6308 6.18334 69.6305 7.39712V31.4088C68.7356 31.2609 67.8305 31.1833 66.9234 31.1768C57.3005 31.1768 49.4719 39.0054 49.4719 48.6298C49.4719 49.6057 49.5731 50.5577 49.7278 51.4915L24.2761 51.4901ZM66.9234 63.2674C58.8516 63.2674 52.2844 56.7002 52.2844 48.627C52.2844 40.5537 58.8516 33.9879 66.9234 33.9879C74.9953 33.9879 81.5625 40.5551 81.5625 48.6284C81.5625 56.7016 74.9953 63.2674 66.9234 63.2674Z" fill="#151518"/>
<path d="M65.2556 42.4718C65.146 42.2214 64.9657 42.0085 64.737 41.8589C64.5082 41.7094 64.2408 41.6297 63.9675 41.6297C63.6942 41.6297 63.4268 41.7094 63.198 41.8589C62.9693 42.0085 62.789 42.2214 62.6794 42.4718L58.2103 52.6516C58.0606 52.9933 58.0527 53.3804 58.1884 53.7279C58.324 54.0753 58.5922 54.3546 58.9338 54.5044C59.2755 54.6541 59.6626 54.662 60.01 54.5263C60.3575 54.3907 60.6368 54.1225 60.7866 53.7809L61.7962 51.4816H66.1402L67.1498 53.7809C67.2996 54.1225 67.5789 54.3907 67.9264 54.5263C68.2738 54.662 68.6609 54.6541 69.0026 54.5044C69.3442 54.3546 69.6124 54.0753 69.748 53.7279C69.8837 53.3804 69.8758 52.9933 69.7261 52.6516L65.2556 42.4718ZM63.0309 48.6706L63.9675 46.5359L64.9055 48.6706H63.0309ZM72.3445 41.6309C71.9716 41.6309 71.6139 41.779 71.3502 42.0428C71.0864 42.3065 70.9383 42.6642 70.9383 43.0371V53.217C70.9383 53.5899 71.0864 53.9476 71.3502 54.2113C71.6139 54.4751 71.9716 54.6232 72.3445 54.6232C72.7175 54.6232 73.0752 54.4751 73.3389 54.2113C73.6026 53.9476 73.7508 53.5899 73.7508 53.217V43.0371C73.7508 42.6642 73.6026 42.3065 73.3389 42.0428C73.0752 41.779 72.7175 41.6309 72.3445 41.6309Z" fill="#151518"/>
</svg>
