<svg width="84" height="85" viewBox="0 0 84 85" fill="none" xmlns="http://www.w3.org/2000/svg">
<path d="M43.0358 69.2006C47.2141 69.037 51.2918 67.8715 54.9254 65.8022C58.559 63.7329 61.6419 60.8205 63.9144 57.3104C65.7143 54.4357 66.8389 51.1903 67.2035 47.8182C67.2411 47.4198 67.1212 47.0224 66.8694 46.7113C66.6177 46.4002 66.2542 46.2 65.8567 46.1535C65.4592 46.1071 65.0593 46.2181 64.7426 46.4629C64.426 46.7076 64.2177 47.0666 64.1624 47.463C63.8501 50.3793 62.8799 53.1866 61.325 55.6735C59.3005 58.7361 56.5836 61.2794 53.3942 63.0975C50.2047 64.9157 46.6321 65.9578 42.9653 66.1396C27.7294 66.625 18.4148 55.8343 18.2602 43.814V34.5989C28.6267 34.2345 33.1898 30.169 35.182 26.3761C36.4486 28.8567 38.3753 30.9394 40.75 32.3949C43.1246 33.8504 45.855 34.6221 48.6402 34.625H64.3508V41.5156C64.3508 41.9217 64.5121 42.3112 64.7993 42.5983C65.0864 42.8855 65.4759 43.0468 65.882 43.0468C66.2881 43.0468 66.6776 42.8855 66.9648 42.5983C67.2519 42.3112 67.4133 41.9217 67.4133 41.5156V33.0937C67.4133 32.6876 67.2519 32.2981 66.9648 32.011C66.6776 31.7238 66.2881 31.5625 65.882 31.5625H48.6402C45.8081 31.5746 43.0644 30.5777 40.9007 28.7504C38.737 26.9232 37.2948 24.385 36.8327 21.591C36.5188 19.8346 37.1604 17.648 35.0136 17.6174C33.4624 17.7429 33.5022 19.3997 33.6324 20.5957C33.5129 23.9414 31.5989 31.5625 16.7289 31.5625C16.3228 31.5625 15.9333 31.7238 15.6461 32.011C15.359 32.2981 15.1977 32.6876 15.1977 33.0937V43.8125C15.3768 57.6795 26.2104 69.7825 43.0358 69.2006Z" fill="#151518"/>
<path d="M79.2958 27.5276L73.8246 26.0163C66.3613 -8.91613 16.7151 -8.47206 9.44475 26.148L4.44981 27.5276C3.1717 27.884 2.04513 28.6484 1.24178 29.7044C0.438429 30.7604 0.00235193 32.0501 0 33.377V44.1539C0.00268555 45.4805 0.438917 46.7699 1.24224 47.8256C2.04557 48.8813 3.17195 49.6455 4.44981 50.0018L8.79397 51.2023V53.1776C8.79397 53.5837 8.9553 53.9732 9.24246 54.2603C9.52963 54.5475 9.91911 54.7088 10.3252 54.7088C10.7313 54.7088 11.1208 54.5475 11.408 54.2603C11.6951 53.9732 11.8565 53.5837 11.8565 53.1776V32.642C11.7922 6.31215 44.1628 -7.11997 62.7016 11.5689C65.4789 14.3292 67.6809 17.6131 69.1801 21.2304C70.6794 24.8476 71.4461 28.7264 71.4359 32.642V47.9821C71.424 54.7161 69.0804 61.2381 64.8035 66.4396C60.5266 71.641 54.5803 75.2008 47.9756 76.5138C47.2984 75.0217 46.1909 73.7659 44.7951 72.9076C43.3993 72.0493 41.7789 71.6276 40.1417 71.6965C35.6 71.6965 31.9036 74.8019 31.9036 78.6178C31.9685 79.9913 32.4397 81.3146 33.2576 82.42C34.0754 83.5254 35.2029 84.3631 36.4973 84.827C36.873 84.9813 37.2946 84.9801 37.6693 84.8236C38.0441 84.6671 38.3413 84.3681 38.4956 83.9925C38.6499 83.6168 38.6487 83.1952 38.4922 82.8205C38.3357 82.4457 38.0367 82.1485 37.6611 81.9942C32.8147 79.901 35.1054 74.7054 40.1417 74.759C45.1413 74.6748 47.5285 79.9193 42.6254 81.9927C42.2493 82.1462 41.9497 82.4428 41.7923 82.8172C41.6349 83.1917 41.6328 83.6133 41.7863 83.9894C41.9398 84.3655 42.2364 84.6651 42.6109 84.8225C42.9853 84.9799 43.407 84.982 43.783 84.8285C44.9293 84.4174 45.9494 83.7162 46.7437 82.7933C47.5381 81.8703 48.0797 80.7572 48.3155 79.5626C55.0945 78.2695 61.2788 74.8331 65.9572 69.7597C70.6355 64.6863 73.5604 58.2443 74.3008 51.383L79.2943 50.0002C80.5721 49.6443 81.6987 48.8805 82.5023 47.8251C83.3059 46.7696 83.7425 45.4805 83.7456 44.1539V33.3755C83.7428 32.0487 83.3064 30.7592 82.5027 29.7034C81.6991 28.6477 80.5739 27.8836 79.2958 27.5276ZM5.26444 47.0495C4.63161 46.8735 4.07365 46.4955 3.67558 45.9731C3.27751 45.4506 3.06114 44.8123 3.05944 44.1555V33.3755C3.0608 32.7184 3.27702 32.0797 3.67512 31.557C4.07322 31.0342 4.63136 30.6559 5.26444 30.4799L8.95475 29.4601C8.64544 31.4461 8.84603 45.7173 8.79244 48.0249L5.26444 47.0495ZM80.6816 44.1555C80.6799 44.8123 80.4635 45.4506 80.0654 45.9731C79.6674 46.4955 79.1094 46.8735 78.4766 47.0495L74.4892 48.152C74.4509 45.5091 74.6454 31.6911 74.3315 29.333L78.4766 30.4799C79.1096 30.6559 79.6678 31.0342 80.0659 31.557C80.464 32.0797 80.6802 32.7184 80.6816 33.3755V44.1555Z" fill="#151518"/>
</svg>
