<svg width="36" height="50" viewBox="0 0 36 50" fill="none" xmlns="http://www.w3.org/2000/svg">
<path d="M35.998 34.871C36.012 34.4654 35.9527 34.0609 35.8238 33.6824C35.6949 33.3039 35.4992 32.9595 35.2488 32.6706C34.4238 31.7632 32.9931 31.373 30.4664 31.4275C27.8654 31.5563 25.2809 31.9634 22.7469 32.6434C21.154 33.0387 19.5836 33.5432 18.0442 34.1542C16.8486 34.6079 16.0237 34.93 15.0632 34.93H15.0274C14.7196 34.949 14.4125 34.88 14.1341 34.7295C13.8557 34.5789 13.6148 34.3515 13.4332 34.068C13.2598 33.7546 13.1564 33.3977 13.1321 33.0284C13.1078 32.659 13.1633 32.2885 13.2938 31.9492C13.9303 29.9718 14.1739 27.8583 14.0071 25.7608C13.7441 22.8345 12.4648 21.1513 10.4921 21.1331C10.1839 21.1116 9.87514 21.1643 9.58603 21.2878C9.29692 21.4114 9.03395 21.6029 8.81428 21.85C8.09294 22.7029 8.08099 24.0005 8.1328 25.3661C8.17663 26.6092 6.98902 27.8751 6.27963 28.6327C4.68551 30.3477 3.45804 32.8521 3.19103 35.0117C3.15117 35.3338 3.12328 35.6287 3.09538 35.9191C3.08982 36.3996 3.00183 36.8743 2.83634 37.3165C2.04101 38.1328 1.20396 38.8948 0.329583 39.5985C0.244978 39.6698 0.173599 39.7594 0.119562 39.8621C0.0655254 39.9649 0.0299015 40.0789 0.0147448 40.1974C0.0147448 40.3108 -0.308064 42.9831 2.06717 46.4176C3.7689 48.8812 6.19993 49.9927 7.76615 49.9927H7.82194C8.05661 50.0176 8.2931 49.9787 8.51202 49.8793C8.73094 49.78 8.92603 49.6229 9.0813 49.4211C9.47983 48.7904 11.0221 46.8849 11.6319 46.5129C13.1742 45.5646 14.7285 44.6981 16.1273 43.9949C19.4351 43.9223 27.8799 43.8587 29.7929 44.3986C30.1135 44.4901 30.4428 44.5358 30.7733 44.5348C32.212 44.5348 33.7104 43.7136 34.1727 42.044C34.3311 41.5671 34.3995 41.0577 34.3734 40.5488C34.3473 40.0399 34.2273 39.543 34.0213 39.0904C33.8694 38.7838 33.6757 38.5066 33.4474 38.2692C35.4998 37.4889 35.99 36.0461 35.998 34.871ZM32.6543 41.4995C32.3754 42.5022 31.124 42.906 30.1795 42.6383C28.6093 42.1846 23.7512 42.1211 20.1365 42.1347L20.5111 41.9759C23.9178 40.5025 27.4529 39.4469 31.0562 38.8273C31.8533 39.0904 32.3873 39.4806 32.6225 39.966C32.7194 40.2056 32.7723 40.4653 32.7778 40.729C32.7832 40.9928 32.7412 41.255 32.6543 41.4995ZM31.7935 36.8764C25.3891 37.9925 21.9897 39.4352 19.9572 40.2972L19.3554 40.5059C16.4443 41.7493 13.6109 43.2166 10.8747 44.8977C9.94611 45.4648 8.4038 47.4702 7.91361 48.1598C7.264 48.2641 4.96847 47.6698 3.31856 45.2788C1.84001 43.1419 1.61285 41.4678 1.58894 40.7827C2.33817 40.143 3.75694 38.9044 4.10366 38.3963C4.50219 37.7838 4.59385 37.0352 4.6895 36.0915C4.71341 35.8374 4.74131 35.5607 4.77718 35.2567C4.99637 33.5054 6.04052 31.373 7.37958 29.9484C8.22844 29.0411 9.81061 27.3533 9.7309 25.2799C9.70699 24.6447 9.66315 23.4651 9.97002 23.1022C10.0059 23.0613 10.1095 22.9388 10.4762 22.9388C11.588 22.9388 12.2416 23.9551 12.417 25.9378C12.5687 27.7585 12.3631 29.5948 11.8152 31.3141C11.5921 31.927 11.5045 32.593 11.5601 33.2535C11.6157 33.9139 11.8128 34.5488 12.134 35.1024C12.4605 35.6266 12.8951 36.0513 13.3996 36.3393C13.9042 36.6273 14.4631 36.7696 15.0274 36.7539C16.2708 36.7539 17.2312 36.3955 18.5623 35.8873C20.0567 35.291 21.582 34.8 23.1295 34.4173C25.5584 33.7621 28.0363 33.3702 30.5302 33.2468C32.467 33.206 33.6786 33.4464 34.1409 33.9682C34.2407 34.088 34.3161 34.2315 34.3616 34.3884C34.407 34.5452 34.4215 34.7116 34.4039 34.8756C34.3999 35.2385 34.3919 36.4227 31.7935 36.8764Z" fill="#151518"/>
<path d="M7.63862 16.4601C7.6984 16.4601 13.7839 17.4945 16.2947 20.3528C18.8054 23.2111 19.7061 30.1299 19.7061 30.198C19.7061 30.4386 19.7901 30.6694 19.9396 30.8396C20.089 31.0098 20.2918 31.1054 20.5032 31.1054C20.7146 31.1054 20.9173 31.0098 21.0668 30.8396C21.2162 30.6694 21.3002 30.4386 21.3002 30.198C21.3002 30.1299 22.2089 23.202 24.7196 20.3437C27.2303 17.4854 33.3079 16.4601 33.3677 16.4601C33.5791 16.4601 33.7818 16.3645 33.9313 16.1943C34.0808 16.0241 34.1648 15.7933 34.1648 15.5527C34.1648 15.312 34.0808 15.0812 33.9313 14.9111C33.7818 14.7409 33.5791 14.6453 33.3677 14.6453C33.3079 14.6453 27.2224 13.6109 24.7116 10.7526C22.2009 7.8943 21.3002 0.975446 21.3002 0.907391C21.3002 0.666736 21.2162 0.435937 21.0668 0.265769C20.9173 0.0955998 20.7146 0 20.5032 0C20.2918 0 20.089 0.0955998 19.9396 0.265769C19.7901 0.435937 19.7061 0.666736 19.7061 0.907391C19.7061 0.975446 18.7975 7.90338 16.2867 10.7617C13.776 13.6199 7.6984 14.6453 7.63862 14.6453C7.42723 14.6453 7.22449 14.7409 7.07501 14.9111C6.92554 15.0812 6.84156 15.312 6.84156 15.5527C6.84156 15.7933 6.92554 16.0241 7.07501 16.1943C7.22449 16.3645 7.42723 16.4601 7.63862 16.4601ZM17.4225 12.0547C18.929 10.3397 19.9094 7.51773 20.5032 5.19935C21.097 7.53135 22.0973 10.3397 23.5838 12.0547C25.0703 13.7697 27.5691 14.8857 29.6056 15.5618C27.5532 16.2378 25.0902 17.3765 23.5838 19.0688C22.0774 20.7611 21.097 23.5831 20.5032 25.9151C19.9094 23.5831 18.909 20.7747 17.4225 19.0597C15.936 17.3448 13.4372 16.2287 11.4007 15.5527C13.4532 14.8767 15.9161 13.7606 17.4225 12.0456V12.0547Z" fill="#151518"/>
<path d="M27.6767 8.29355C27.8878 8.29254 28.0898 8.19628 28.2386 8.02587L29.8327 6.21109C29.9633 6.03751 30.0316 5.81422 30.0238 5.58585C30.0161 5.35748 29.9329 5.14085 29.791 4.97925C29.649 4.81765 29.4587 4.72298 29.2581 4.71416C29.0575 4.70534 28.8614 4.78302 28.7089 4.93167L27.1148 6.74645C27.004 6.87334 26.9286 7.03468 26.8981 7.21019C26.8676 7.38571 26.8834 7.56756 26.9435 7.7329C27.0035 7.89823 27.1052 8.03967 27.2356 8.13942C27.3661 8.23918 27.5195 8.2928 27.6767 8.29355ZM27.1148 23.0795C26.9663 23.2495 26.883 23.4795 26.883 23.7192C26.883 23.9589 26.9663 24.1889 27.1148 24.3589L28.7089 26.1737C28.8614 26.3224 29.0575 26.4 29.2581 26.3912C29.4587 26.3824 29.649 26.2877 29.791 26.1261C29.9329 25.9645 30.0161 25.7479 30.0238 25.5195C30.0316 25.2911 29.9633 25.0679 29.8327 24.8943L28.2386 23.0795C28.0893 22.9105 27.8873 22.8156 27.6767 22.8156C27.4661 22.8156 27.2641 22.9105 27.1148 23.0795ZM12.7677 8.02587C12.9202 8.17453 13.1163 8.25221 13.3169 8.24339C13.5175 8.23456 13.7078 8.13989 13.8498 7.97829C13.9917 7.81669 14.0749 7.60006 14.0826 7.37169C14.0904 7.14333 14.0221 6.92004 13.8916 6.74645L12.2974 4.93167C12.145 4.78302 11.9488 4.70534 11.7482 4.71416C11.5476 4.72298 11.3573 4.81765 11.2154 4.97925C11.0734 5.14085 10.9903 5.35748 10.9825 5.58585C10.9748 5.81422 11.043 6.03751 11.1736 6.21109L12.7677 8.02587Z" fill="#151518"/>
</svg>
