<svg width="56" height="56" viewBox="0 0 56 56" fill="none" xmlns="http://www.w3.org/2000/svg">
<g clip-path="url(#clip0_4230_197)">
<path d="M25.0622 36.8769C25.0622 34.9683 23.4817 33.4228 21.5611 33.4797C19.7127 33.5344 18.2656 35.0995 18.2656 36.9491V48.1698C18.2656 49.5294 19.367 50.6308 20.7266 50.6308H25.0622V36.8769Z" fill="#060606"/>
<path d="M26.7031 45.4606H47.562V50.6308H26.7031V45.4606Z" fill="#060606"/>
<path d="M47.5628 37.357H40.1406C38.932 37.357 37.9531 38.3359 37.9531 39.5445V43.82H47.5628V37.357Z" fill="#060606"/>
<path d="M34.1253 37.357H26.7031V43.82H36.3128V39.5445C36.3128 38.3359 35.3339 37.357 34.1253 37.357Z" fill="#060606"/>
<path d="M52.6019 31.838C52.8808 31.838 53.1553 31.862 53.4222 31.9058V30.0234C53.4222 28.3653 52.0725 27.0156 50.4144 27.0156H23.8516C22.1934 27.0156 20.8438 28.3653 20.8438 30.0234V31.9058C21.1106 31.862 21.3852 31.838 21.6641 31.838C24.043 31.838 26.0402 33.495 26.5662 35.7164H34.1252C35.3447 35.7164 36.4319 36.2895 37.133 37.1809C37.8341 36.2906 38.9213 35.7164 40.1408 35.7164H47.6997C48.2258 33.4961 50.223 31.838 52.6019 31.838Z" fill="#060606"/>
<path d="M52.4986 33.4797C50.6502 33.5344 49.2031 35.0995 49.2031 36.9491V50.6308H53.5388C54.8983 50.6308 55.9997 49.5294 55.9997 48.1698V36.8769C55.9997 34.9683 54.4192 33.4228 52.4986 33.4797Z" fill="#060606"/>
<path d="M23.4219 55.1797C23.4219 55.6325 23.7894 56 24.2422 56H28.1097C28.4892 56 28.8184 55.7397 28.907 55.3711L29.6508 52.2714H23.4219V55.1797Z" fill="#060606"/>
<path d="M45.359 55.3711C45.4476 55.7397 45.7779 56 46.1563 56H50.0238C50.4766 56 50.8441 55.6325 50.8441 55.1797V52.2714H44.6152L45.359 55.3711Z" fill="#060606"/>
<path d="M13.125 52.7188H1.64062C0.735 52.7188 0 53.4538 0 54.3594V56H14.7656V54.3594C14.7656 53.4538 14.0306 52.7188 13.125 52.7188Z" fill="#060606"/>
<path d="M4.375 45.6094V51.0781H10.3906V45.6094C10.3906 44.7038 9.65562 43.9688 8.75 43.9688H6.01562C5.11 43.9688 4.375 44.7038 4.375 45.6094Z" fill="#060606"/>
<path d="M6.5625 31.5547H8.20312V42.3281H6.5625V31.5547Z" fill="#060606"/>
<path d="M32.9098 11.7447L37.1328 15.365L41.3558 11.7447C42.0777 11.1256 43.1255 11.1256 43.8473 11.7447L49.4375 16.5364V4.92188H24.8281V16.5364L30.4183 11.7447C31.1402 11.1256 32.188 11.1256 32.9098 11.7447ZM37.1328 6.01562C38.7909 6.01562 40.1406 7.36531 40.1406 9.02344C40.1406 10.6816 38.7909 12.0312 37.1328 12.0312C35.4747 12.0312 34.125 10.6816 34.125 9.02344C34.125 7.36531 35.4747 6.01562 37.1328 6.01562Z" fill="#060606"/>
<path d="M31.4855 12.9905L26.2246 17.5H34.641L35.8715 16.4456L31.841 12.9916C31.7382 12.903 31.5884 12.903 31.4855 12.9916V12.9905Z" fill="#060606"/>
<path d="M37.1328 10.3906C37.8879 10.3906 38.5 9.77851 38.5 9.02344C38.5 8.26836 37.8879 7.65625 37.1328 7.65625C36.3777 7.65625 35.7656 8.26836 35.7656 9.02344C35.7656 9.77851 36.3777 10.3906 37.1328 10.3906Z" fill="#060606"/>
<path d="M42.423 12.9905L37.1621 17.5H48.0395L42.7785 12.9905C42.6757 12.9019 42.5259 12.9019 42.423 12.9905Z" fill="#060606"/>
<path d="M22.3672 22.4219H51.8984C53.2558 22.4219 54.3594 21.3183 54.3594 19.9609V2.46094C54.3594 1.10359 53.2558 0 51.8984 0H22.3672C21.0098 0 19.9062 1.10359 19.9062 2.46094V19.9609C19.9062 21.3183 21.0098 22.4219 22.3672 22.4219ZM23.1875 4.10156C23.1875 3.64875 23.555 3.28125 24.0078 3.28125H50.2578C50.7106 3.28125 51.0781 3.64875 51.0781 4.10156V18.3203C51.0781 18.7731 50.7106 19.1406 50.2578 19.1406H24.0078C23.555 19.1406 23.1875 18.7731 23.1875 18.3203V4.10156Z" fill="#060606"/>
<path d="M13.7795 15.2469C13.6876 13.965 12.6103 12.9609 11.3251 12.9609H3.44246C2.1573 12.9609 1.07887 13.965 0.988086 15.2469L0.370117 23.8984H14.3975L13.7795 15.2469Z" fill="#060606"/>
<path d="M0.820259 29.9141H10.9374V35.4922C10.9374 35.945 11.3049 36.3125 11.7578 36.3125C12.2106 36.3125 12.5781 35.945 12.5781 35.4922V29.9141H13.9453C14.1728 29.9141 14.3904 29.8189 14.5457 29.6527C14.701 29.4864 14.7798 29.2622 14.7634 29.0347L14.514 25.538H0.251509L0.00213356 29.0358C-0.0142727 29.2633 0.0644773 29.4864 0.21979 29.6538C0.375102 29.82 0.592759 29.9152 0.820259 29.9152V29.9141Z" fill="#060606"/>
</g>
<defs>
<clipPath id="clip0_4230_197">
<rect width="56" height="56" fill="white"/>
</clipPath>
</defs>
</svg>
