<svg width="56" height="52" viewBox="0 0 56 52" fill="none" xmlns="http://www.w3.org/2000/svg">
<path fill-rule="evenodd" clip-rule="evenodd" d="M25.742 26.9811V4.27375C25.742 3.77719 25.3384 3.3714 24.8397 3.3714C18.217 3.3714 12.2211 6.05656 7.88 10.3966C5.77453 12.502 4.05734 15.0002 2.84766 17.7695C4.35156 16.8366 6.12453 16.2973 8.02547 16.2973C10.7412 16.2973 13.2 17.3977 14.9795 19.1772C16.7591 20.9567 17.8594 23.4155 17.8594 26.1313C17.8594 28.847 16.7591 31.3058 14.9795 33.0853C14.5858 33.4758 14.1614 33.8356 13.7053 34.1583H14.3933C15.3481 34.1583 16.2133 34.5488 16.8422 35.1755C17.4689 35.8022 17.8594 36.6695 17.8594 37.6244C17.8594 38.5759 17.4689 39.4444 16.8422 40.0711C16.8017 40.1116 16.7613 40.1488 16.7208 40.1859C16.7613 40.2231 16.8017 40.2603 16.8422 40.3008C17.4689 40.9275 17.8594 41.7948 17.8594 42.7475C17.8594 43.7023 17.4689 44.5708 16.8422 45.1964C16.8017 45.2369 16.7613 45.2741 16.7208 45.3113C16.7613 45.3484 16.8017 45.3856 16.8422 45.4261C17.4689 46.0528 17.8594 46.9169 17.8594 47.8728C17.8594 48.7008 17.5652 49.4598 17.0817 50.0559C19.5153 50.8872 22.1228 51.34 24.8386 51.34C28.0816 51.34 31.1791 50.6925 34.0064 49.52C36.9486 48.3048 39.59 46.522 41.7972 44.3148C42.1472 43.9616 42.1472 43.3906 41.7972 43.0373L25.742 26.9811Z" fill="#060606"/>
<path fill-rule="evenodd" clip-rule="evenodd" d="M55.0972 27.8375H32.018C31.785 27.8375 31.5564 27.9272 31.3792 28.1011C31.0259 28.4544 31.0259 29.0286 31.3792 29.3786L47.6991 45.6984C48.0491 46.0517 48.6233 46.0517 48.9733 45.6984C51.1805 43.4912 52.9633 40.8498 54.1817 37.9098C55.3542 35.0792 55.9984 31.9817 55.9984 28.7387C55.9995 28.24 55.5959 27.8375 55.0972 27.8375Z" fill="#060606"/>
<path fill-rule="evenodd" clip-rule="evenodd" d="M28.9359 25.5494H52.0151C52.5139 25.5494 52.9175 25.1458 52.9175 24.647C52.9175 18.0244 50.2323 12.0284 45.8956 7.68734C41.5545 3.34625 35.5586 0.662186 28.9359 0.662186C28.4371 0.662186 28.0303 1.06797 28.0303 1.56781V24.647C28.0303 25.1458 28.4371 25.5494 28.9359 25.5494Z" fill="#060606"/>
<path fill-rule="evenodd" clip-rule="evenodd" d="M15.5673 46.7003C15.2633 46.3995 14.8509 46.2136 14.3959 46.2136H1.65922C1.20313 46.2136 0.7875 46.3995 0.486719 46.7003C0.185937 47.0033 0 47.4156 0 47.8717C0 48.3278 0.185937 48.7434 0.486719 49.0431C0.7875 49.3439 1.20313 49.5298 1.65922 49.5298H14.3959C14.6869 49.5298 14.9603 49.4555 15.1988 49.3188C15.3355 49.2444 15.4591 49.1514 15.5673 49.0431C15.8681 48.7423 16.0541 48.3267 16.0541 47.8717C16.0541 47.8225 16.0508 47.7689 16.0475 47.7197C16.0103 47.3259 15.8342 46.9694 15.5673 46.7003Z" fill="#060606"/>
<path fill-rule="evenodd" clip-rule="evenodd" d="M14.3959 41.0883H1.65922C1.20313 41.0883 0.7875 41.2775 0.486719 41.5783C0.185937 41.8791 0 42.2936 0 42.7464C0 43.2025 0.185937 43.6181 0.486719 43.9178C0.7875 44.2186 1.20313 44.4045 1.65922 44.4045H14.3959C14.852 44.4045 15.2644 44.2186 15.5673 43.9178C15.8681 43.617 16.0541 43.2014 16.0541 42.7464C16.0541 42.2936 15.8681 41.878 15.5673 41.5772C15.2633 41.2775 14.8509 41.0883 14.3959 41.0883Z" fill="#060606"/>
<path fill-rule="evenodd" clip-rule="evenodd" d="M14.3959 35.9662H1.65922C1.20313 35.9662 0.7875 36.1522 0.486719 36.453C0.185937 36.7537 0 37.1694 0 37.6244C0 38.0772 0.185937 38.4928 0.486719 38.7936C0.7875 39.0944 1.20313 39.2836 1.65922 39.2836H14.3959C14.852 39.2836 15.2644 39.0944 15.5673 38.7936C15.8681 38.4928 16.0541 38.0772 16.0541 37.6244C16.0541 37.1683 15.8681 36.7527 15.5673 36.453C15.2666 36.1522 14.8509 35.9662 14.3959 35.9662Z" fill="#060606"/>
<path fill-rule="evenodd" clip-rule="evenodd" d="M8.02703 34.1583C12.4611 34.1583 16.0541 30.5653 16.0541 26.1313C16.0541 21.6972 12.4611 18.1042 8.02703 18.1042C5.50594 18.1042 3.15656 19.2756 1.63734 21.2728C0.608125 22.6225 0 24.3058 0 26.1313C0 30.5588 3.5875 34.1583 8.02703 34.1583ZM5.31453 27.143C5.77391 26.9505 6.30328 27.1714 6.4925 27.6297C6.55484 27.7784 6.62922 27.9184 6.70906 28.042C6.99125 28.473 7.37297 28.7245 7.76344 28.8295C8.16047 28.9345 8.56625 28.9039 8.89766 28.7639C8.97203 28.7333 9.04313 28.6961 9.11203 28.6491C9.17109 28.6119 9.22031 28.5714 9.26406 28.5277C9.38547 28.4008 9.46531 28.2455 9.48719 28.088C9.50578 27.9458 9.47516 27.7937 9.38438 27.6537C9.35047 27.6012 9.31328 27.5542 9.26625 27.5116C9.09563 27.3442 8.63953 27.2359 8.15938 27.1211C7.33469 26.9286 6.4575 26.7208 5.76625 26.0109C5.50922 25.7441 5.32 25.428 5.20516 25.0867C5.05313 24.6405 5.02578 24.1505 5.1275 23.6823C5.23031 23.2109 5.46875 22.7548 5.84719 22.3863C6.11734 22.1227 6.4575 21.9061 6.86984 21.7661C6.95078 21.7387 7.03391 21.7136 7.12359 21.6917V20.8791C7.12359 20.3825 7.52719 19.9767 8.02594 19.9767C8.52469 19.9767 8.92828 20.3825 8.92828 20.8791V21.6545C9.08359 21.6884 9.23234 21.7322 9.37781 21.788C10.1467 22.0702 10.7942 22.6247 11.0895 23.4931C11.1147 23.5642 11.1366 23.6419 11.1573 23.7261C11.2755 24.2095 10.9802 24.6995 10.4967 24.8177C10.0133 24.9358 9.52656 24.6405 9.40516 24.157C9.39859 24.1319 9.39313 24.1045 9.38 24.0728C9.28047 23.7819 9.04531 23.5861 8.75656 23.4811C8.39672 23.3477 7.97563 23.3389 7.59719 23.4319C7.55016 23.4439 7.50094 23.457 7.44844 23.4756C7.30297 23.5248 7.18484 23.597 7.10172 23.6802C6.99016 23.7852 6.92234 23.9219 6.89063 24.0652C6.85672 24.2172 6.86547 24.3725 6.9125 24.5114C6.94313 24.6044 6.99344 24.6886 7.05469 24.7564C7.37734 25.0845 7.99094 25.2311 8.56734 25.3667C9.29906 25.5373 9.98703 25.7014 10.5241 26.2198C10.6695 26.3653 10.7942 26.5141 10.8927 26.6661C11.2339 27.1867 11.3455 27.7697 11.2711 28.3275C11.1967 28.87 10.943 29.3852 10.5514 29.7844C10.4114 29.9266 10.2605 30.0545 10.0986 30.1595C9.94 30.2623 9.77047 30.352 9.58672 30.4297C9.37891 30.5161 9.15578 30.585 8.92609 30.6277V31.3813C8.92609 31.88 8.5225 32.2869 8.02375 32.2869C7.525 32.2869 7.12141 31.8811 7.12141 31.3813V30.5194C6.39297 30.2842 5.705 29.803 5.19641 29.0286C5.05969 28.8175 4.93281 28.5823 4.82453 28.322C4.63859 27.8616 4.85516 27.3344 5.31453 27.143Z" fill="#060606"/>
</svg>
