<svg width="56" height="56" viewBox="0 0 56 56" fill="none" xmlns="http://www.w3.org/2000/svg">
<path d="M33.9157 44.3333H22.0391C22.1167 44.9995 22.1595 45.6693 22.1674 46.34V46.6667H33.8341V45.92C33.8341 45.395 33.8341 44.8583 33.9157 44.3333Z" fill="#060606"/>
<path d="M30.1468 29.1667H25.8535L27.8368 42H28.1635L30.1468 29.1667Z" fill="#060606"/>
<path d="M21.6068 42H25.4685L23.4968 29.1667H22.1668C21.8574 29.1667 21.5607 29.0437 21.3419 28.825C21.1231 28.6062 21.0002 28.3094 21.0002 28C21.0002 27.6906 21.1231 27.3938 21.3419 27.175C21.5607 26.9562 21.8574 26.8333 22.1668 26.8333H33.8335C34.1429 26.8333 34.4397 26.9562 34.6585 27.175C34.8773 27.3938 35.0002 27.6906 35.0002 28C35.0002 28.3094 34.8773 28.6062 34.6585 28.825C34.4397 29.0437 34.1429 29.1667 33.8335 29.1667H32.5035L30.5318 42H34.3468C34.9624 39.5392 36.2183 37.2851 37.9868 35.4667C39.955 33.4636 41.2754 30.9149 41.7763 28.1517C42.2772 25.3885 41.9355 22.5385 40.7957 19.972C39.6559 17.4055 37.7706 15.2411 35.3847 13.76C32.9988 12.2789 30.2226 11.5495 27.4168 11.6667C23.8591 11.8422 20.4993 13.3561 18.011 15.905C15.5228 18.4538 14.0901 21.8491 14.0002 25.41C13.968 27.255 14.3008 29.0881 14.9796 30.804C15.6583 32.5199 16.6696 34.0846 17.9552 35.4083C19.7206 37.2538 20.9785 39.5246 21.6068 42Z" fill="#060606"/>
<path d="M22.3301 49C22.5881 49.9992 23.17 50.8847 23.9848 51.518C24.7997 52.1513 25.8014 52.4966 26.8334 52.5H29.1667C30.1987 52.4966 31.2005 52.1513 32.0153 51.518C32.8302 50.8847 33.4121 49.9992 33.6701 49H22.3301Z" fill="#060606"/>
<path d="M28.0007 9.33333C27.6912 9.33333 27.3945 9.21042 27.1757 8.99162C26.9569 8.77283 26.834 8.47608 26.834 8.16667V3.5C26.834 3.19058 26.9569 2.89383 27.1757 2.67504C27.3945 2.45625 27.6912 2.33333 28.0007 2.33333C28.3101 2.33333 28.6068 2.45625 28.8256 2.67504C29.0444 2.89383 29.1673 3.19058 29.1673 3.5V8.16667C29.1673 8.47608 29.0444 8.77283 28.8256 8.99162C28.6068 9.21042 28.3101 9.33333 28.0007 9.33333Z" fill="#060606"/>
<path d="M42.0006 15.1667C41.847 15.1676 41.6948 15.1381 41.5527 15.0801C41.4105 15.022 41.2813 14.9365 41.1722 14.8283C41.0629 14.7199 40.9761 14.5908 40.9169 14.4487C40.8576 14.3065 40.8271 14.154 40.8271 14C40.8271 13.846 40.8576 13.6935 40.9169 13.5513C40.9761 13.4092 41.0629 13.2801 41.1722 13.1717L45.8389 8.505C45.9477 8.39622 46.0768 8.30993 46.219 8.25106C46.3611 8.19219 46.5134 8.16189 46.6672 8.16189C46.8211 8.16189 46.9734 8.19219 47.1155 8.25106C47.2577 8.30993 47.3868 8.39622 47.4956 8.505C47.6044 8.61378 47.6906 8.74292 47.7495 8.88504C47.8084 9.02717 47.8387 9.1795 47.8387 9.33333C47.8387 9.48717 47.8084 9.6395 47.7495 9.78162C47.6906 9.92375 47.6044 10.0529 47.4956 10.1617L42.8289 14.8283C42.7199 14.9365 42.5906 15.022 42.4485 15.0801C42.3063 15.1381 42.1541 15.1676 42.0006 15.1667Z" fill="#060606"/>
<path d="M14.0002 15.1667C13.8467 15.1676 13.6945 15.1381 13.5523 15.0801C13.4102 15.022 13.2809 14.9365 13.1719 14.8283L8.50522 10.1617C8.39644 10.0529 8.31015 9.92375 8.25128 9.78162C8.19241 9.6395 8.16211 9.48717 8.16211 9.33333C8.16211 9.1795 8.19241 9.02717 8.25128 8.88504C8.31015 8.74292 8.39644 8.61378 8.50522 8.505C8.61399 8.39622 8.74313 8.30993 8.88526 8.25106C9.02738 8.19219 9.17971 8.16189 9.33355 8.16189C9.48739 8.16189 9.63972 8.19219 9.78184 8.25106C9.92397 8.30993 10.0531 8.39622 10.1619 8.505L14.8286 13.1717C14.9379 13.2801 15.0247 13.4092 15.0839 13.5513C15.1432 13.6935 15.1736 13.846 15.1736 14C15.1736 14.154 15.1432 14.3065 15.0839 14.4487C15.0247 14.5908 14.9379 14.7199 14.8286 14.8283C14.7195 14.9365 14.5903 15.022 14.4481 15.0801C14.306 15.1381 14.1538 15.1676 14.0002 15.1667Z" fill="#060606"/>
<path d="M50.1673 29.1667H45.5007C45.1912 29.1667 44.8945 29.0438 44.6757 28.825C44.4569 28.6062 44.334 28.3094 44.334 28C44.334 27.6906 44.4569 27.3938 44.6757 27.175C44.8945 26.9562 45.1912 26.8333 45.5007 26.8333H50.1673C50.4767 26.8333 50.7735 26.9562 50.9923 27.175C51.2111 27.3938 51.334 27.6906 51.334 28C51.334 28.3094 51.2111 28.6062 50.9923 28.825C50.7735 29.0438 50.4767 29.1667 50.1673 29.1667Z" fill="#060606"/>
<path d="M10.5003 29.1667H5.83366C5.52424 29.1667 5.22749 29.0438 5.0087 28.825C4.78991 28.6062 4.66699 28.3094 4.66699 28C4.66699 27.6906 4.78991 27.3938 5.0087 27.175C5.22749 26.9562 5.52424 26.8333 5.83366 26.8333H10.5003C10.8097 26.8333 11.1065 26.9562 11.3253 27.175C11.5441 27.3938 11.667 27.6906 11.667 28C11.667 28.3094 11.5441 28.6062 11.3253 28.825C11.1065 29.0438 10.8097 29.1667 10.5003 29.1667Z" fill="#060606"/>
</svg>
