<svg width="56" height="56" viewBox="0 0 56 56" fill="none" xmlns="http://www.w3.org/2000/svg">
<g clip-path="url(#clip0_4233_266)">
<path d="M28.3391 38.2266C27.7266 38.2266 27.1469 38.4672 26.7203 38.8937C26.2828 39.3312 26.0531 39.9 26.0531 40.5125C26.0531 41.125 26.2937 41.7047 26.7203 42.1313C27.1469 42.5688 27.7266 42.7984 28.3391 42.7984C28.9516 42.7984 29.5312 42.5578 29.9578 42.1313C30.3953 41.6938 30.625 41.125 30.625 40.5125C30.625 39.9 30.3844 39.3203 29.9578 38.8937C29.5203 38.4672 28.9516 38.2266 28.3391 38.2266ZM55.3547 49.2516L43.1156 36.0828C45.6422 34.7922 48.7266 34.8359 51.2094 36.225C51.3953 36.3234 51.6141 36.3344 51.8 36.2469C51.9859 36.1594 52.1281 35.9844 52.1609 35.7766C52.9703 31.4344 51.9641 26.8844 49.4047 23.2859V10.2047C49.4047 8.01719 47.6219 6.22344 45.4234 6.22344H29.3016V4.58281C29.3016 3.35781 28.8203 2.20938 27.9562 1.34531C27.0922 0.48125 25.9437 0 24.7187 0C22.1922 0 20.1469 2.05625 20.1469 4.57188V6.2125H3.98125C1.78281 6.22344 0 8.00625 0 10.2047V36.8594C0 39.0469 1.78281 40.8406 3.98125 40.8406H13.1359L9.04531 51.3953C8.37812 53.1344 9.24219 55.0922 10.9703 55.7594C11.3641 55.9125 11.7687 55.9891 12.1844 55.9891C13.5734 55.9891 14.8422 55.125 15.3344 53.8344L18.1562 46.5938H27.3328C28.7875 47.5125 30.3734 48.1906 32.0359 48.6172L34.0484 53.8234C34.5516 55.1141 35.8203 55.9781 37.1984 55.9781C37.6141 55.9781 38.0187 55.9016 38.4125 55.7484C40.1516 55.0703 41.0156 53.1125 40.3375 51.3844L39.3203 48.7375C39.4078 48.6719 39.4844 48.5844 39.5391 48.4859C39.6266 48.3 39.6156 48.0812 39.5172 47.8953C38.1281 45.4125 38.0844 42.3281 39.375 39.8016L52.5437 52.0406C52.9922 52.4562 53.55 52.6859 54.1187 52.6859C54.6328 52.6859 55.1031 52.5 55.4422 52.15C56.2187 51.4062 56.175 50.1266 55.3547 49.2516ZM24.7297 1.30156C25.6047 1.30156 26.4359 1.64063 27.0484 2.26406C27.6719 2.8875 28.0109 3.70781 28.0109 4.58281V6.22344H21.4375V4.58281C21.4484 2.76719 22.9141 1.30156 24.7297 1.30156ZM13.0484 54.5234C12.5344 54.7531 11.9766 54.7641 11.4516 54.5562C10.3797 54.1406 9.84375 52.9375 10.2594 51.8656L14.525 40.8406H18.9984L14.1531 53.375C13.9453 53.8891 13.5516 54.2938 13.0484 54.5234ZM25.4297 22.1266C28.2734 19.2828 32.0578 17.7188 36.0828 17.7188C40.1078 17.7188 43.8922 19.2828 46.7359 22.1266C50.0172 25.4078 51.6141 30.0891 51.0234 34.6938C48.1359 33.4141 44.8219 33.5891 42.0875 35.175L39.7141 33.6984L38.1719 32.1016C38.0844 31.6422 37.8547 31.2156 37.5266 30.8875C36.8047 30.1656 33.8625 29.1594 32.9766 28.875C32.7469 28.7984 32.4953 28.8531 32.3203 29.0281C32.1453 29.2031 32.0906 29.4547 32.1672 29.6844C32.4625 30.5703 33.4578 33.5016 34.1797 34.2344C34.5078 34.5625 34.9453 34.7922 35.3937 34.8797L36.9906 36.4219L38.4672 38.7953C36.8812 41.5297 36.7062 44.8438 37.9859 47.7313C33.3812 48.3109 28.7 46.7141 25.4187 43.4438C22.575 40.6 21.0109 36.8156 21.0109 32.7906C21.0109 28.7656 22.5859 24.9703 25.4297 22.1266ZM36.6297 34.2563L37.5703 33.3156L38.4125 34.1906L37.5047 35.0984L36.6297 34.2563ZM36.6187 31.7953C36.7281 31.9047 36.8156 32.0359 36.8703 32.1891L35.5031 33.5562C35.35 33.5016 35.2187 33.4141 35.1094 33.3047C34.8797 33.075 34.3766 31.9703 33.8406 30.5266C35.2844 31.0625 36.3781 31.5656 36.6187 31.7953ZM20.3875 40.8406H21.8422C22.5641 42.1203 23.4719 43.3016 24.5109 44.3516C24.85 44.6906 25.2 45.0078 25.5609 45.3141H18.6484L20.3875 40.8406ZM38.0516 49.0109L39.1562 51.8547C39.5719 52.9266 39.0359 54.1406 37.9641 54.5562C37.4391 54.7531 36.8812 54.7422 36.3672 54.5234C35.8531 54.2938 35.4703 53.8891 35.2625 53.3641L33.5453 48.9344C35.0328 49.175 36.5531 49.1969 38.0516 49.0109ZM28.3391 27.3219C28.9516 27.3219 29.5312 27.0812 29.9578 26.6547C30.3953 26.2172 30.625 25.6484 30.625 25.0359C30.625 24.4234 30.3844 23.8438 29.9578 23.4172C29.0609 22.5203 27.6062 22.5203 26.7203 23.4172C26.2828 23.8438 26.0531 24.4234 26.0531 25.0359C26.0531 25.6484 26.2937 26.2281 26.7203 26.6547C27.1469 27.0812 27.7266 27.3219 28.3391 27.3219ZM43.8266 27.3219C44.4391 27.3219 45.0187 27.0812 45.4453 26.6547C46.3422 25.7578 46.3422 24.3031 45.4453 23.4172C44.5484 22.5203 43.0937 22.5203 42.2078 23.4172C41.7703 23.8547 41.5406 24.4234 41.5406 25.0359C41.5406 25.6484 41.7812 26.2281 42.2078 26.6547C42.6344 27.0812 43.2141 27.3219 43.8266 27.3219ZM36.0828 24.1172C37.3516 24.1172 38.3797 23.0891 38.3797 21.8203C38.3797 20.5516 37.3516 19.5234 36.0828 19.5234C34.8141 19.5234 33.7859 20.5516 33.7859 21.8203C33.7859 23.0891 34.8141 24.1172 36.0828 24.1172ZM27.4203 32.7797C27.4203 31.5109 26.3922 30.4828 25.1234 30.4828C23.8547 30.4828 22.8266 31.5109 22.8266 32.7797C22.8266 34.0484 23.8547 35.0766 25.1234 35.0766C26.3922 35.0656 27.4203 34.0375 27.4203 32.7797Z" fill="#060606"/>
</g>
<defs>
<clipPath id="clip0_4233_266">
<rect width="56" height="56" fill="white"/>
</clipPath>
</defs>
</svg>
