<svg width="40" height="40" viewBox="0 0 40 40" fill="none" xmlns="http://www.w3.org/2000/svg">
<path d="M36.25 2.5H3.75C3.05964 2.5 2.5 3.05964 2.5 3.75V6.25C2.5 6.94036 3.05964 7.5 3.75 7.5H36.25C36.9404 7.5 37.5 6.94036 37.5 6.25V3.75C37.5 3.05964 36.9404 2.5 36.25 2.5Z" fill="white"/>
<path d="M27.3346 14.5793L19.3065 11.6602C19.2616 11.6439 19.2142 11.6356 19.1665 11.6357C19.1185 11.6358 19.0709 11.644 19.0257 11.6602L10.9984 14.5793C10.9167 14.609 10.8466 14.6639 10.7982 14.7362C10.7499 14.8084 10.7257 14.8941 10.7294 14.981C10.733 15.0678 10.7642 15.1513 10.8184 15.2192C10.8726 15.2872 10.947 15.3361 11.0309 15.3589L19.0591 17.5488C19.1291 17.5684 19.2031 17.5684 19.2731 17.5488L27.3021 15.3589C27.386 15.3361 27.4604 15.2872 27.5147 15.2192C27.5689 15.1513 27.6001 15.0678 27.6037 14.981C27.6073 14.8941 27.5832 14.8084 27.5348 14.7362C27.4865 14.6639 27.4163 14.609 27.3346 14.5793Z" fill="white"/>
<path d="M30.1043 26.5625H9.896V28.4375H30.1043V26.5625Z" fill="white"/>
<path d="M19.1665 19.021C19.0002 19.021 18.8346 18.9988 18.6742 18.9551L13.229 17.4696V20.2564C13.2291 20.2772 13.2354 20.2976 13.2471 20.3149C13.2589 20.3321 13.2755 20.3455 13.2949 20.3532L19.1299 22.5407L25.0365 20.3532C25.0563 20.3458 25.0733 20.3326 25.0854 20.3153C25.0975 20.298 25.104 20.2775 25.104 20.2564V17.4695L19.6581 18.9551C19.4979 18.9988 19.3326 19.021 19.1665 19.021Z" fill="white"/>
<path d="M35.8333 8.75001H4.16667C4.02705 8.75165 3.88758 8.7405 3.75 8.71667V30.8333C3.75128 31.275 3.92729 31.6982 4.23957 32.0104C4.55185 32.3227 4.97503 32.4987 5.41667 32.5H34.5833C35.025 32.4987 35.4481 32.3227 35.7604 32.0104C36.0727 31.6982 36.2487 31.275 36.25 30.8333V8.71667C36.1124 8.7405 35.9729 8.75166 35.8333 8.75001ZM31.5666 28.75C31.566 29.0548 31.4446 29.347 31.2291 29.5625C31.0136 29.778 30.7215 29.8994 30.4167 29.9H9.58333C9.27853 29.8994 8.98639 29.778 8.77087 29.5625C8.55535 29.347 8.43402 29.0548 8.43343 28.75V26.25C8.43402 25.9452 8.55535 25.6531 8.77087 25.4375C8.98639 25.222 9.27853 25.1006 9.58333 25.1H30.4167C30.7215 25.1006 31.0136 25.222 31.2291 25.4375C31.4446 25.6531 31.566 25.9452 31.5666 26.25V28.75ZM30.5001 23.8583C30.4346 23.9244 30.3567 23.9768 30.2709 24.0125C30.185 24.0483 30.093 24.0667 30 24.0667C29.907 24.0667 29.815 24.0483 29.7291 24.0125C29.6433 23.9768 29.5654 23.9244 29.4999 23.8583C29.0251 23.4167 27.9417 22.2833 27.9417 21.3333C27.9415 20.916 28.0681 20.5085 28.3048 20.1647C28.5414 19.821 28.8769 19.5572 29.2667 19.4083V15.8333C29.2673 15.8201 29.265 15.8068 29.2602 15.7945C29.2553 15.7821 29.248 15.7708 29.2386 15.7615C29.2292 15.7521 29.2179 15.7447 29.2056 15.7399C29.1932 15.735 29.1799 15.7328 29.1667 15.7333H28.8916C28.7781 15.9835 28.611 16.2057 28.4022 16.3842C28.1935 16.5627 27.9481 16.6933 27.6833 16.7667L26.5666 17.075V20.2583C26.566 20.576 26.4683 20.886 26.2867 21.1466C26.105 21.4073 25.848 21.6062 25.5502 21.7167L19.7168 23.9083C19.3623 24.0417 18.9713 24.0417 18.6168 23.9083L12.7834 21.7167C12.4855 21.6062 12.2285 21.4073 12.0468 21.1467C11.8651 20.886 11.7674 20.5761 11.7668 20.2583V17.075L10.65 16.7667C10.2662 16.6638 9.92516 16.4411 9.67667 16.131C9.42817 15.8209 9.28515 15.4396 9.26842 15.0426C9.25169 14.6455 9.36213 14.2535 9.58365 13.9236C9.80518 13.5937 10.1262 13.3431 10.5001 13.2083L18.525 10.2917C18.9368 10.1417 19.3882 10.1417 19.8 10.2917L27.8332 13.2083C28.0769 13.299 28.2986 13.4402 28.4839 13.6226C28.6692 13.805 28.8138 14.0245 28.9082 14.2667H29.1667C29.5814 14.269 29.9786 14.4348 30.2718 14.7281C30.5651 15.0214 30.7309 15.4186 30.7332 15.8333V19.4083C31.1231 19.5572 31.4586 19.821 31.6952 20.1647C31.9319 20.5085 32.0585 20.916 32.0583 21.3333C32.0583 22.2833 30.9749 23.4167 30.5001 23.8583Z" fill="white"/>
<path d="M29.9998 20.7292C29.8396 20.7295 29.6861 20.7933 29.5729 20.9066C29.4597 21.02 29.396 21.1736 29.396 21.3338C29.5318 21.684 29.7372 22.0029 29.9998 22.2713C30.263 22.0018 30.4685 21.6814 30.6037 21.3298C30.6025 21.1703 30.5384 21.0177 30.4253 20.9052C30.3123 20.7928 30.1593 20.7295 29.9998 20.7292Z" fill="white"/>
<path d="M19.9998 37.5C19.8904 37.5 19.782 37.4785 19.6809 37.4367C19.5797 37.3948 19.4878 37.3334 19.4104 37.256C19.333 37.1786 19.2717 37.0868 19.2298 36.9856C19.188 36.8845 19.1664 36.7761 19.1665 36.6666V31.6666C19.1665 31.4456 19.2543 31.2337 19.4106 31.0774C19.5669 30.9211 19.7788 30.8333 19.9998 30.8333C20.2209 30.8333 20.4328 30.9211 20.5891 31.0774C20.7454 31.2337 20.8332 31.4456 20.8332 31.6666V36.6666C20.8332 36.7761 20.8117 36.8845 20.7699 36.9856C20.728 37.0868 20.6666 37.1786 20.5892 37.256C20.5118 37.3334 20.4199 37.3948 20.3188 37.4367C20.2177 37.4785 20.1093 37.5 19.9998 37.5Z" fill="white"/>
<path d="M26.6666 37.5C26.4677 37.5003 26.2753 37.4289 26.1247 37.299L20.2913 32.299C20.2083 32.2278 20.1401 32.141 20.0906 32.0435C20.0411 31.9459 20.0113 31.8396 20.0029 31.7306C19.986 31.5103 20.0572 31.2924 20.201 31.1247C20.3447 30.957 20.5492 30.8533 20.7694 30.8363C20.8785 30.8279 20.9881 30.8411 21.0921 30.8751C21.196 30.9091 21.2923 30.9632 21.3753 31.0344L27.2086 36.0344C27.3378 36.1452 27.4299 36.2929 27.4726 36.4576C27.5153 36.6223 27.5066 36.7961 27.4475 36.9557C27.3885 37.1154 27.2821 37.2531 27.1425 37.3504C27.0029 37.4477 26.8368 37.4999 26.6666 37.5Z" fill="white"/>
<path d="M13.3331 37.5C13.163 37.4999 12.9969 37.4477 12.8573 37.3504C12.7177 37.2531 12.6112 37.1154 12.5522 36.9557C12.4932 36.7961 12.4845 36.6223 12.5272 36.4576C12.5699 36.2929 12.662 36.1452 12.7911 36.0344L18.6245 31.0344C18.7922 30.8906 19.0101 30.8194 19.2303 30.8363C19.4506 30.8533 19.655 30.957 19.7988 31.1247C19.9425 31.2924 20.0138 31.5103 19.9968 31.7306C19.9799 31.9508 19.8761 32.1553 19.7084 32.299L13.8751 37.299C13.7245 37.4289 13.5321 37.5003 13.3331 37.5Z" fill="white"/>
</svg>
