<svg width="40" height="40" viewBox="0 0 40 40" fill="none" xmlns="http://www.w3.org/2000/svg">
<path d="M38.1811 15.3867C37.3374 25.357 27.8217 25.5445 32.9171 37.8734C33.1186 38.3625 33.0678 38.8766 32.7733 39.3172C32.4811 39.7578 32.0249 39.9992 31.4952 39.9992H15.4842C14.7647 39.9992 14.1577 39.5234 13.9897 38.8258L13.1303 35.2891C7.48346 36.4383 3.47487 36.2461 5.74284 30.9242C4.3655 30.4547 3.91393 29.0375 5.45924 28.4086C4.67565 28.1805 3.37956 27.1289 4.77253 25.9281C3.42409 25.8906 0.538151 25.868 2.45143 22.7742C5.51862 18.8367 5.54284 17.1625 5.53659 15.3156C5.53425 15.0719 5.62096 14.8617 5.79362 14.6891C5.96393 14.5188 6.17487 14.4297 6.41628 14.4297H8.1944V10.1336C7.82878 9.9125 7.58503 9.51328 7.58503 9.05469C7.58503 8.36172 8.14753 7.80156 8.8405 7.80156C9.53346 7.80156 10.0936 8.36172 10.0936 9.05469C10.0936 9.51328 9.84987 9.91172 9.48425 10.1312V14.4297H12.246V5.40156C11.8803 5.18203 11.635 4.78125 11.635 4.325C11.635 3.63203 12.1975 3.06953 12.8905 3.06953C13.5835 3.06953 14.146 3.63203 14.146 4.325C14.146 4.78125 13.8999 5.18203 13.535 5.40156V14.4305H15.1358V18.8109C15.1358 20.1023 16.1897 21.1562 17.4788 21.1562H26.2397C27.5311 21.1562 28.585 20.1023 28.585 18.8109V14.4305H30.1842V5.40156C29.8186 5.18203 29.5749 4.78125 29.5749 4.325C29.5749 3.63203 30.1374 3.06953 30.8303 3.06953C31.5233 3.06953 32.0835 3.63203 32.0835 4.325C32.0835 4.78125 31.8397 5.18203 31.4741 5.40156V14.4305H34.2358V10.132C33.8702 9.9125 33.6249 9.51406 33.6249 9.05547C33.6249 8.3625 34.1874 7.80234 34.8803 7.80234C35.5733 7.80234 36.1358 8.3625 36.1358 9.05547C36.1358 9.51406 35.8897 9.9125 35.5249 10.1344V14.4305H37.303C37.56 14.4305 37.7788 14.5281 37.9522 14.7164C38.1257 14.9039 38.203 15.132 38.1811 15.3867ZM20.9382 13.9031L20.5061 14.9H21.3702L20.9382 13.9031ZM16.4249 18.8109V10.05C16.4249 9.47188 16.8991 8.99609 17.4788 8.99609H18.4952V2.33203C18.1296 2.1125 17.8858 1.71172 17.8858 1.25547C17.8858 0.5625 18.4483 0 19.1413 0C19.8342 0 20.3944 0.5625 20.3944 1.25547C20.3944 1.71172 20.1507 2.1125 19.785 2.33203V8.99531H23.9327V2.33203C23.5671 2.1125 23.3217 1.71172 23.3217 1.25547C23.3217 0.5625 23.8842 0 24.5772 0C25.2702 0 25.8327 0.5625 25.8327 1.25547C25.8327 1.71172 25.5866 2.1125 25.2217 2.33203V8.99531H26.2382C26.8186 8.99531 27.2921 9.47109 27.2921 10.0492V18.8102C27.2921 19.3906 26.8178 19.8664 26.2382 19.8664H17.4796C16.8991 19.8672 16.4249 19.3906 16.4249 18.8109ZM23.9944 16.5766C23.9944 16.9328 24.2827 17.2211 24.6389 17.2211C24.9952 17.2211 25.2835 16.9328 25.2835 16.5766V12.2867C25.2835 11.9305 24.9952 11.6422 24.6389 11.6422C24.2827 11.6422 23.9944 11.9305 23.9944 12.2867V16.5766ZM18.828 17.1656C19.1538 17.3055 19.5303 17.157 19.6717 16.8312L19.9483 16.1914H21.928L22.2046 16.8312C22.346 17.157 22.7225 17.3055 23.0483 17.1656C23.3764 17.0242 23.5241 16.6477 23.385 16.3219L21.5272 12.032C21.4655 11.8883 21.3499 11.7641 21.1928 11.6977C20.8671 11.5562 20.4889 11.7062 20.3491 12.032L18.4913 16.3219C18.3514 16.6469 18.5022 17.0234 18.828 17.1656Z" fill="white"/>
</svg>
