<svg width="40" height="40" viewBox="0 0 40 40" fill="none" xmlns="http://www.w3.org/2000/svg">
<path d="M28.0175 16.1588C28.6038 14.96 29.62 14.0588 30.8838 13.6238C31.4125 13.4412 31.9575 13.3712 32.5 13.3687V6.25C32.5 4.1825 30.8175 2.5 28.75 2.5H8.75C6.6825 2.5 5 4.1825 5 6.25V31.25C5 33.3175 6.6825 35 8.75 35H21.1862L21.0513 34.6075C20.5075 33.0213 20.6137 31.3263 21.3475 29.8275L28.0175 16.1588ZM10 10H25C25.6912 10 26.25 10.56 26.25 11.25C26.25 11.94 25.6912 12.5 25 12.5H10C9.30875 12.5 8.75 11.94 8.75 11.25C8.75 10.56 9.30875 10 10 10ZM10 15H23.75C24.4412 15 25 15.56 25 16.25C25 16.94 24.4412 17.5 23.75 17.5H10C9.30875 17.5 8.75 16.94 8.75 16.25C8.75 15.56 9.30875 15 10 15ZM18.75 27.5H10C9.30875 27.5 8.75 26.94 8.75 26.25C8.75 25.56 9.30875 25 10 25H18.75C19.4412 25 20 25.56 20 26.25C20 26.94 19.4412 27.5 18.75 27.5ZM10 22.5C9.30875 22.5 8.75 21.94 8.75 21.25C8.75 20.56 9.30875 20 10 20H21.25C21.9412 20 22.5 20.56 22.5 21.25C22.5 21.94 21.9412 22.5 21.25 22.5H10ZM37.005 20.5437L30.3325 34.2175C29.8913 35.1188 29.1275 35.7938 28.1812 36.1188L25.8175 36.9313C25.6837 36.9775 25.545 37 25.4113 37C24.8925 37 24.4075 36.675 24.23 36.1562L23.4163 33.7925C23.09 32.8425 23.1537 31.825 23.5938 30.9262L30.2662 17.255C30.5575 16.655 31.0675 16.205 31.6987 15.9875C32.3287 15.77 33.0075 15.81 33.6075 16.105L35.855 17.2013C36.455 17.4937 36.905 18.0037 37.1225 18.635C37.34 19.2663 37.2988 19.9437 37.005 20.5437Z" fill="white"/>
</svg>
