<svg width="28" height="19" viewBox="0 0 28 19" fill="none" xmlns="http://www.w3.org/2000/svg">
<path d="M6.16892 3.67948C12.2582 1.39639 17.4402 0.951682 23.3125 4.50538C23.2695 4.44335 22.1079 2.79001 19.0532 1.94269C19.6985 1.09531 20.5806 0.123999 20.5806 0.123999C22.5381 0.123999 24.4527 0.661349 26.109 1.69469C27.3997 2.5214 28.1311 3.94741 27.9805 5.4354C27.7224 7.97748 27.0985 10.4575 26.1305 12.8342C24.9044 15.9342 21.9573 18.0836 18.5369 18.3936C18.2358 18.4143 18.0207 18.4143 17.8916 18.4143L17.5475 18.0837C21.4841 17.009 23.4417 15.335 23.4846 15.2729C17.4398 18.2077 10.298 18.249 4.21019 15.3969C4.21019 15.3969 6.14625 17.2363 10.427 18.2077L10.1689 18.4557C9.71713 18.4557 9.28689 18.4143 8.83519 18.3523C5.67296 17.8357 3.02707 15.7483 1.88693 12.8756C0.897379 10.3955 0.252046 7.79151 0.0154353 5.14611C-0.113631 3.74077 0.574745 2.35604 1.77939 1.55002C3.37123 0.53735 5.26424 0 7.17878 0C7.17878 0 7.95318 0.971375 8.72764 1.83937C5.82355 2.66607 4.64043 4.31941 4.61891 4.38144L5.16545 4.11332C5.49219 3.95269 5.8271 3.8079 6.16892 3.67948ZM9.54508 5.47676C8.14681 5.51811 7.04972 6.65478 7.09276 8.01883C7.1358 9.30017 8.21138 10.3335 9.54508 10.3749C10.9434 10.3335 12.0405 9.19685 11.9974 7.8328C11.9328 6.55139 10.8788 5.51805 9.54508 5.47676ZM18.3218 5.47676C16.9235 5.51811 15.8264 6.65478 15.8695 8.01883C15.9125 9.30017 16.9881 10.3335 18.3218 10.3749C19.7201 10.3335 20.8172 9.19685 20.7741 7.8328C20.7311 6.55139 19.6555 5.51805 18.3218 5.47676Z" fill="#EFFB53"/>
</svg>
