<svg width="31" height="40" viewBox="0 0 31 40" fill="none" xmlns="http://www.w3.org/2000/svg">
<path d="M13.5267 0H16.9086V14.8185H13.5267V0ZM6.76312 3.29318H10.1449V16.4654H6.76312V3.29318ZM0 8.23269H3.38181V18.1117H0V8.23269ZM20.2899 3.29318H23.6717V16.4654H20.2899V3.29318ZM27.053 8.23269H30.4348V18.1117H27.053V8.23269ZM13.5267 24.6976H16.9086V39.5161H13.5267V24.6976ZM20.2899 23.0512H23.6717V36.223H20.2899V23.0512ZM27.053 21.4044H30.4348V31.2834H27.053V21.4044ZM6.76312 23.0512H10.1449V36.223H6.76312V23.0512ZM0 21.4044H3.38181V31.2834H0V21.4044Z" fill="#EFFB53"/>
</svg>
