<svg width="151" height="42" viewBox="0 0 151 42" fill="none" xmlns="http://www.w3.org/2000/svg">
<path d="M26.5458 4.68722C24.4948 2.63402 22.0424 1.43909 19.4243 1.45019L19.4206 1.45389V1.45019C16.8026 1.46129 14.3612 2.67471 12.3286 4.74271C14.5711 4.63173 16.983 4.89809 19.4427 5.5418C21.8951 4.87589 24.3033 4.59473 26.5458 4.68722ZM28.0187 35.6887C28.2101 35.4335 28.3979 35.1708 28.5784 34.897C29.4179 33.6318 30.1433 32.1964 30.7288 30.6278C29.5026 31.6415 28.1623 32.5849 26.7078 33.4357C25.257 34.2829 23.7804 34.9932 22.3001 35.5629C23.9461 35.8256 25.5479 35.8996 27.0576 35.7886C27.3816 35.7627 27.702 35.7294 28.0187 35.6887ZM12.4538 37.3165C14.5048 39.3697 16.9572 40.5646 19.5753 40.5535L19.579 40.5498V40.5535C22.197 40.5424 24.6384 39.329 26.671 37.261C24.4285 37.372 22.0166 37.1056 19.5569 36.4619C17.1045 37.1241 14.6963 37.409 12.4538 37.3165ZM8.34813 30.7166C8.94466 32.2815 9.68479 33.7132 10.5354 34.9673C10.7195 35.2374 10.9073 35.5 11.0988 35.7516C11.4154 35.7886 11.7358 35.8219 12.0598 35.8404C13.5696 35.9403 15.1676 35.8552 16.8136 35.5777C15.3886 35.0413 13.9599 34.3754 12.5569 33.5837L12.3876 33.4875C10.9294 32.6552 9.578 31.7229 8.34813 30.7166ZM7.43862 14.0691C6.89733 16.2369 6.60643 18.5935 6.61748 21.0499L6.62116 21.0536H6.61748C6.62853 23.5101 6.93783 25.8592 7.49385 28.0234C9.08826 29.5698 10.9588 30.9978 13.0725 32.2149L13.1019 32.2334C15.2266 33.4542 17.4101 34.3606 19.5532 34.9599C21.6926 34.3458 23.8688 33.4209 25.9824 32.1853C28.096 30.946 29.9703 29.5032 31.5573 27.9346C32.0986 25.7631 32.3895 23.4102 32.3784 20.9538L32.3748 20.9501H32.3784C32.3674 18.4936 32.0581 16.1445 31.5021 13.9803C29.904 12.4265 28.026 11.0022 25.9051 9.78138L25.8903 9.77398C23.7657 8.55316 21.5821 7.64679 19.439 7.04748C17.2997 7.66159 15.1235 8.58645 13.0099 9.82207C10.8999 11.0577 9.02566 12.5042 7.43862 14.0691ZM10.4249 7.10667C9.58537 8.37188 8.85996 9.80727 8.27449 11.3758C9.49699 10.3622 10.841 9.41883 12.2955 8.56796C13.7463 7.72078 15.2229 7.01048 16.7031 6.44076C15.0572 6.1781 13.4554 6.10411 11.9457 6.2151C11.6216 6.23729 11.3013 6.27059 10.9846 6.31128C10.7895 6.57025 10.6053 6.83291 10.4249 7.10667ZM9.07353 35.3706C7.85839 33.4764 6.87892 31.2457 6.20875 28.7855C4.40813 26.9839 2.95733 25.0269 1.91525 23.0292C1.17144 25.8407 1.3666 28.5709 2.68853 30.8461L2.69221 30.8535C4.01045 33.1213 6.27503 34.6381 9.07353 35.3706ZM32.8535 28.6782C32.2017 31.1458 31.2406 33.3839 30.0402 35.2892C32.835 34.5308 35.0886 32.9955 36.3884 30.7092C37.6882 28.423 37.865 25.6928 37.0991 22.8886C36.0754 24.8937 34.6393 26.8618 32.8535 28.6782ZM33.4095 16.0446C33.6709 17.6168 33.8145 19.2557 33.8182 20.9427L33.8219 20.9464H33.8182C33.8256 22.6333 33.6967 24.2722 33.4463 25.8481C34.4957 24.5459 35.3611 23.1882 36.0202 21.8194C36.1601 21.5235 36.2927 21.2312 36.4179 20.9353C36.2927 20.6393 36.1601 20.347 36.0165 20.0548C35.3463 18.6897 34.47 17.3394 33.4095 16.0446ZM10.204 4.96838C12.6784 1.88303 15.8894 0.0184973 19.417 0.00369946L19.4206 0V0.00369946C22.9482 -0.00739893 26.1702 1.83123 28.6704 4.89439C32.5699 5.5048 35.7845 7.36933 37.5594 10.4325L37.6588 10.6027V10.6064C39.3379 13.6362 39.3379 17.2876 37.9718 20.9279C39.3931 24.6273 39.3931 28.3527 37.6441 31.4269C35.8913 34.5049 32.6951 36.3916 28.7993 37.0353C26.3248 40.1207 23.1139 41.9815 19.5863 41.9963L19.5827 42V41.9963C16.0587 42.0074 12.8331 40.1725 10.3329 37.1093C6.42968 36.4952 3.21877 34.6344 1.44025 31.5712L1.34082 31.401V31.3973C-0.334596 28.3675 -0.338278 24.7124 1.02783 21.0758C-0.393512 17.3764 -0.393512 13.651 1.35924 10.5731C3.11198 7.49881 6.30817 5.60839 10.204 4.96838ZM6.14615 13.3255C6.79791 10.8579 7.76266 8.61975 8.95938 6.71822C6.16456 7.47661 3.91103 9.01189 2.6112 11.2982C1.31137 13.5844 1.13462 16.3146 1.90053 19.1188C2.92787 17.11 4.36026 15.1419 6.14615 13.3255ZM5.17772 21.0536C5.17036 19.3667 5.29924 17.7278 5.54963 16.1519C4.50019 17.4541 3.63486 18.8118 2.97574 20.1806C2.83213 20.4765 2.70325 20.7688 2.57806 21.0647C2.70325 21.3607 2.83581 21.653 2.97942 21.9452C3.64959 23.3103 4.52228 24.6569 5.58277 25.9517C5.32869 24.3869 5.18509 22.7443 5.17772 21.0536ZM32.7909 13.2182C34.5915 15.0198 36.0423 16.9768 37.0844 18.9745C37.8282 16.163 37.633 13.4327 36.3111 11.1576L36.3074 11.1502C34.9892 8.87871 32.7209 7.36563 29.9261 6.62944C31.1412 8.52726 32.1207 10.7543 32.7909 13.2182ZM21.8472 18.6453C21.247 18.0423 20.4185 17.6686 19.5016 17.6686C18.5848 17.6686 17.7563 18.0423 17.1561 18.6453C16.5559 19.2483 16.1839 20.0807 16.1839 21.0019C16.1839 21.923 16.5559 22.7554 17.1561 23.3584C17.7563 23.9614 18.5848 24.3351 19.5016 24.3351C20.4185 24.3351 21.247 23.9614 21.8472 23.3584C22.4474 22.7554 22.8193 21.923 22.8193 21.0019C22.8157 20.0807 22.4474 19.2483 21.8472 18.6453ZM19.5016 16.2184C20.8162 16.2184 22.0056 16.7549 22.8672 17.6205C23.7289 18.4862 24.2628 19.6811 24.2628 21.0019C24.2628 22.3226 23.7289 23.5175 22.8672 24.3832C22.0056 25.2488 20.8162 25.7853 19.5016 25.7853C18.1871 25.7853 16.9977 25.2488 16.1361 24.3832C15.2744 23.5175 14.7405 22.3226 14.7405 21.0019C14.7405 19.6811 15.2744 18.4862 16.1361 17.6205C16.994 16.7549 18.1871 16.2184 19.5016 16.2184ZM26.6121 8.50876C28.0702 9.34484 29.4216 10.2808 30.6515 11.2834C30.0549 9.71849 29.3148 8.2868 28.4642 7.03268C28.2801 6.76262 28.0923 6.49996 27.9008 6.24839C27.5842 6.2114 27.2638 6.1781 26.9398 6.15961C25.4301 6.05972 23.832 6.14481 22.186 6.42227C23.611 6.95869 25.0397 7.62459 26.4427 8.41628L26.6121 8.50876Z" fill="white"/>
<path d="M70.8148 35.925L67.1248 25.395H57.7648L54.0748 35.925H49.7998L60.1948 6.045H64.6948L75.0898 35.925H70.8148ZM62.4448 11.85L59.0248 21.615H65.8198L62.4448 11.85Z" fill="white"/>
<path d="M89.1569 17.745C88.4369 17.415 87.7919 17.25 87.2219 17.25C86.0219 17.25 85.0319 17.67 84.2519 18.51C83.4119 19.41 82.9919 20.445 82.9919 21.615V35.925H79.1219V21.615C79.1219 19.995 79.5269 18.51 80.3369 17.16C81.1769 15.81 82.3169 14.76 83.7569 14.01C84.8369 13.5 85.9919 13.245 87.2219 13.245C88.2119 13.245 89.1569 13.425 90.0569 13.785C90.9569 14.145 91.9019 14.73 92.8919 15.54L89.1569 17.745Z" fill="white"/>
<path d="M103.274 17.475V35.925H99.4492V17.475H96.0742V13.425H99.4492V6H103.274V13.425H106.649V17.475H103.274Z" fill="white"/>
<path d="M120.696 20.13C120.606 19.59 120.411 19.08 120.111 18.6C119.541 17.61 118.416 17.115 116.736 17.115C115.836 17.115 115.146 17.22 114.666 17.43C114.036 17.67 113.556 18.015 113.226 18.465C112.926 18.915 112.776 19.41 112.776 19.95C112.776 20.61 113.016 21.21 113.496 21.75C114.006 22.32 114.831 22.62 115.971 22.65C117.981 22.74 119.601 22.98 120.831 23.37C122.091 23.76 123.051 24.435 123.711 25.395C124.401 26.355 124.746 27.705 124.746 29.445C124.746 31.215 124.071 32.745 122.721 34.035C122.061 34.665 121.281 35.175 120.381 35.565C119.511 35.955 118.596 36.15 117.636 36.15H116.961C114.561 36.15 112.626 35.46 111.156 34.08C109.956 32.97 109.206 31.41 108.906 29.4H112.911C113.061 30.12 113.361 30.705 113.811 31.155C114.501 31.815 115.461 32.145 116.691 32.145C117.021 32.145 117.261 32.13 117.411 32.1C118.461 32.04 119.286 31.755 119.886 31.245C120.486 30.705 120.786 30.045 120.786 29.265C120.786 28.185 120.456 27.48 119.796 27.15C119.136 26.82 117.861 26.655 115.971 26.655C113.601 26.655 111.786 25.905 110.526 24.405C109.506 23.265 108.996 21.825 108.996 20.085C108.996 19.695 109.011 19.395 109.041 19.185C109.281 17.235 110.076 15.75 111.426 14.73C112.806 13.68 114.621 13.155 116.871 13.155C118.521 13.155 119.961 13.515 121.191 14.235C122.061 14.775 122.811 15.525 123.441 16.485C124.041 17.445 124.431 18.645 124.611 20.085L124.521 20.13H120.696Z" fill="white"/>
<path d="M131.771 26.385C131.771 27.105 132.026 27.855 132.536 28.635C133.076 29.415 133.691 30.075 134.381 30.615C135.641 31.605 137.111 32.1 138.791 32.1C141.461 32.1 143.636 30.81 145.316 28.23L148.736 30.255C147.566 32.145 146.126 33.6 144.416 34.62C142.706 35.64 140.831 36.15 138.791 36.15C137.261 36.15 135.806 35.865 134.426 35.295C133.046 34.695 131.831 33.87 130.781 32.82C129.731 31.77 128.906 30.555 128.306 29.175C127.736 27.795 127.451 26.34 127.451 24.81C127.451 23.28 127.736 21.825 128.306 20.445C128.906 19.035 129.731 17.805 130.781 16.755C131.801 15.705 133.001 14.895 134.381 14.325C135.791 13.755 137.261 13.47 138.791 13.47C140.321 13.47 141.776 13.755 143.156 14.325C144.566 14.895 145.781 15.705 146.801 16.755C149.021 19.035 150.131 21.675 150.131 24.675C150.131 25.215 150.086 25.785 149.996 26.385H131.771ZM138.791 17.16C137.561 17.16 136.406 17.43 135.326 17.97C134.246 18.51 133.376 19.23 132.716 20.13C132.086 21 131.771 21.93 131.771 22.92H145.811C145.811 21.93 145.481 21 144.821 20.13C144.191 19.23 143.336 18.51 142.256 17.97C141.176 17.43 140.021 17.16 138.791 17.16Z" fill="white"/>
</svg>
