<svg width="195" height="45" viewBox="0 0 195 45" fill="none" xmlns="http://www.w3.org/2000/svg">
<path d="M68.0952 35.716L65.2734 28.0795H52.6389L49.8594 35.716H44.5107L56.1345 5.29883H61.9885L73.6122 35.716H68.0952ZM58.9562 10.876L54.4078 23.3174H63.5046L58.9562 10.876Z" fill="#072032"/>
<path d="M82.7485 35.716H77.6105V5.29883H82.7485V35.716Z" fill="#072032"/>
<path d="M94.9616 35.716H89.9078V5.29883H108.48V10.1467H94.9616V18.6841H107.091V23.4462H94.9616V35.716Z" fill="#072032"/>
<path d="M120.544 31.8977C123.576 31.8977 126.271 29.624 126.271 25.248C126.271 20.915 123.576 18.6841 120.544 18.6841C117.554 18.6841 114.816 20.915 114.816 25.248C114.816 29.5811 117.554 31.8977 120.544 31.8977ZM120.544 14.1794C126.693 14.1794 131.199 18.8557 131.199 25.248C131.199 31.6832 126.693 36.3595 120.544 36.3595C114.437 36.3595 109.931 31.6832 109.931 25.248C109.931 18.8557 114.437 14.1794 120.544 14.1794Z" fill="#072032"/>
<path d="M147.923 14.6943V19.7566C147.375 19.6708 146.828 19.6279 146.322 19.6279C142.532 19.6279 140.805 21.8588 140.805 25.7628V35.716H135.92V14.823H140.679V18.1693C141.648 15.8955 143.922 14.5655 146.617 14.5655C147.207 14.5655 147.712 14.6514 147.923 14.6943Z" fill="#072032"/>
<path d="M150.321 36.8743L154.828 35.6731C155.165 38.2472 157.144 40.1777 159.966 40.1777C163.84 40.1777 165.778 38.1614 165.778 33.9141V31.7261C164.893 33.3564 162.83 34.7721 159.839 34.7721C154.364 34.7721 150.364 30.482 150.364 24.6045C150.364 19.0273 154.196 14.4368 159.839 14.4368C163.04 14.4368 165.02 15.7668 165.904 17.4828V14.823H170.621V33.7425C170.621 39.3197 167.799 44.5108 160.092 44.5108C154.659 44.5108 150.869 41.0787 150.321 36.8743ZM160.64 30.5249C163.756 30.5249 165.904 28.2082 165.904 24.6045C165.904 21.0437 163.672 18.727 160.64 18.727C157.523 18.727 155.291 21.0437 155.291 24.6045C155.291 28.2511 157.439 30.5249 160.64 30.5249Z" fill="#072032"/>
<path d="M180.007 22.9742H190.072C189.988 20.5289 188.388 18.3409 185.019 18.3409C181.944 18.3409 180.175 20.7434 180.007 22.9742ZM190.62 28.4227L194.747 29.7527C193.652 33.3993 190.409 36.3595 185.482 36.3595C179.923 36.3595 174.995 32.241 174.995 25.1622C174.995 18.5554 179.796 14.1794 184.977 14.1794C191.294 14.1794 195 18.4267 195 25.0335C195 25.8486 194.916 26.5351 194.874 26.6209H179.881C180.007 29.7956 182.45 32.0694 185.482 32.0694C188.43 32.0694 189.946 30.482 190.62 28.4227Z" fill="#072032"/>
<path d="M15.0727 0H18.841V16.5121H15.0727V0ZM7.53604 3.66954H11.3043V18.3471H7.53604V3.66954ZM0 9.17357H3.7683V20.1816H0V9.17357ZM22.6087 3.66954H26.377V18.3471H22.6087V3.66954ZM30.1447 9.17357H33.913V20.1816H30.1447V9.17357ZM15.0727 27.5202H18.841V44.0323H15.0727V27.5202ZM22.6087 25.6857H26.377V40.3627H22.6087V25.6857ZM30.1447 23.8506H33.913V34.8587H30.1447V23.8506ZM7.53604 25.6857H11.3043V40.3627H7.53604V25.6857ZM0 23.8506H3.7683V34.8587H0V23.8506Z" fill="#514DE0"/>
</svg>
