<svg width="175" height="32" viewBox="0 0 175 32" fill="none" xmlns="http://www.w3.org/2000/svg">
<g clip-path="url(#clip0_4175_1426)">
<path d="M41.8926 27.1808V4.94727H48.7758L53.8621 17.4346H54.4408L59.4662 4.94727H66.4713V27.1808H61.5373V8.20615L62.2378 8.26706L56.3596 22.6732H51.6083L45.6997 8.26706L46.4611 8.20615V27.1808H41.8926Z" fill="#041C33"/>
<path d="M78.8286 27.7598C77.4074 27.7598 76.1484 27.5162 75.052 27.0289C73.9759 26.5416 73.0723 25.8918 72.3413 25.0796C71.6307 24.2472 71.0825 23.3233 70.6967 22.3081C70.3312 21.2725 70.1484 20.2167 70.1484 19.1405V18.5314C70.1484 17.4146 70.3312 16.3486 70.6967 15.3334C71.0825 14.2979 71.6307 13.3741 72.3413 12.5619C73.052 11.7496 73.9353 11.1101 74.9911 10.6431C76.0673 10.1558 77.2855 9.91211 78.6459 9.91211C80.4327 9.91211 81.9352 10.3182 83.1534 11.1304C84.3923 11.9223 85.3364 12.9679 85.9859 14.2674C86.6354 15.5466 86.9606 16.9476 86.9606 18.4705V20.1152H72.189V17.3436H84.0062L82.4226 18.6228C82.4226 17.6278 82.2805 16.775 81.9962 16.0644C81.7119 15.3538 81.2855 14.8157 80.717 14.4502C80.1687 14.0644 79.4784 13.8715 78.6459 13.8715C77.7931 13.8715 77.0723 14.0644 76.4835 14.4502C75.8947 14.836 75.4479 15.4045 75.1434 16.1558C74.8388 16.8867 74.6865 17.7903 74.6865 18.8664C74.6865 19.8614 74.8287 20.7344 75.1129 21.4857C75.3972 22.2167 75.8439 22.7852 76.453 23.1913C77.0621 23.5974 77.854 23.8004 78.8286 23.8004C79.7221 23.8004 80.4531 23.6278 81.0215 23.2827C81.5901 22.9375 81.9759 22.5111 82.1789 22.0035H86.656C86.4123 23.1203 85.9349 24.1151 85.2245 24.9883C84.5141 25.8614 83.6202 26.5416 82.5444 27.0289C81.4683 27.5162 80.2297 27.7598 78.8286 27.7598Z" fill="#041C33"/>
<path d="M97.0731 27.729C95.8952 27.729 94.8193 27.5158 93.8447 27.0894C92.8906 26.663 92.0576 26.0742 91.3472 25.3229C90.6368 24.5514 90.0886 23.6478 89.7025 22.6122C89.337 21.5767 89.1543 20.4599 89.1543 19.262V18.5615C89.1543 17.3635 89.3271 16.2468 89.6721 15.2112C90.0375 14.1757 90.5553 13.2721 91.2254 12.5006C91.916 11.7087 92.7383 11.0996 93.6924 10.6732C94.6464 10.2265 95.7124 10.0031 96.8903 10.0031C98.2304 10.0031 99.3878 10.2975 100.362 10.8864C101.337 11.4549 102.098 12.3077 102.647 13.4447C103.195 14.5615 103.499 15.9422 103.56 17.5869L102.281 16.399V4.94727H107.185V27.1808H103.317V20.2671H103.987C103.926 21.8508 103.591 23.2011 102.982 24.3178C102.393 25.4346 101.591 26.2874 100.576 26.8762C99.5606 27.4448 98.3926 27.729 97.0731 27.729ZM98.2914 23.6478C99.0429 23.6478 99.7228 23.4854 100.332 23.1605C100.962 22.8153 101.459 22.3178 101.824 21.6681C102.21 21.0184 102.403 20.2366 102.403 19.3229V18.196C102.403 17.3026 102.21 16.5513 101.824 15.9422C101.438 15.3331 100.931 14.8661 100.302 14.5412C99.6718 14.2163 98.9919 14.0539 98.2609 14.0539C97.4485 14.0539 96.7175 14.2671 96.068 14.6935C95.4383 15.0995 94.9411 15.6681 94.5756 16.399C94.2101 17.1097 94.0274 17.9422 94.0274 18.8965C94.0274 19.8711 94.2101 20.7138 94.5756 21.4244C94.9411 22.1351 95.449 22.6833 96.0985 23.0691C96.748 23.4549 97.4789 23.6478 98.2914 23.6478Z" fill="#041C33"/>
<path d="M112.395 27.1811V10.4907H117.268V27.1811H112.395ZM110.172 14.0846V10.4907H117.268V14.0846H110.172ZM114.284 8.84606C113.37 8.84606 112.69 8.61256 112.243 8.14555C111.817 7.65824 111.603 7.04911 111.603 6.31814C111.603 5.56687 111.817 4.95773 112.243 4.49073C112.69 4.00342 113.37 3.75977 114.284 3.75977C115.197 3.75977 115.867 4.00342 116.294 4.49073C116.741 4.95773 116.964 5.56687 116.964 6.31814C116.964 7.04911 116.741 7.65824 116.294 8.14555C115.867 8.61256 115.197 8.84606 114.284 8.84606Z" fill="#041C33"/>
<path d="M128.689 27.3631C127.471 27.3631 126.416 27.1905 125.522 26.8454C124.649 26.5002 123.968 25.9113 123.481 25.0789C123.014 24.2261 122.781 23.0789 122.781 21.6373V5.98242H125.583V22.0027C125.583 22.8759 125.816 23.556 126.283 24.0433C126.77 24.5103 127.451 24.7439 128.324 24.7439H131.187V27.3631H128.689ZM119.979 13.1093V10.9164H131.187V13.1093H119.979Z" fill="#041C33"/>
<path d="M136.115 27.1807V10.9167H139.039V27.1807H136.115ZM133.617 13.2314V10.9167H139.039V13.2314H133.617ZM136.937 8.2974C136.287 8.2974 135.799 8.12482 135.475 7.77964C135.17 7.43446 135.018 6.99791 135.018 6.46999C135.018 5.94207 135.17 5.50552 135.475 5.16034C135.799 4.81517 136.287 4.64258 136.937 4.64258C137.586 4.64258 138.064 4.81517 138.368 5.16034C138.693 5.50552 138.856 5.94207 138.856 6.46999C138.856 6.99791 138.693 7.43446 138.368 7.77964C138.064 8.12482 137.586 8.2974 136.937 8.2974Z" fill="#041C33"/>
<path d="M151.666 27.7296C150.265 27.7296 149.046 27.4859 148.011 26.9986C146.996 26.5113 146.153 25.8616 145.483 25.0493C144.813 24.2169 144.306 23.3032 143.96 22.3082C143.636 21.3133 143.473 20.3184 143.473 19.3235V18.7752C143.473 17.7397 143.636 16.7245 143.96 15.7295C144.306 14.7346 144.813 13.8412 145.483 13.0493C146.173 12.2371 147.026 11.5874 148.041 11.1001C149.057 10.6128 150.245 10.3691 151.605 10.3691C152.965 10.3691 154.184 10.6229 155.259 11.1306C156.356 11.6382 157.229 12.359 157.879 13.293C158.549 14.2067 158.925 15.293 159.006 16.5519H156.204C156.062 15.5367 155.594 14.694 154.803 14.024C154.011 13.3336 152.945 12.9884 151.605 12.9884C150.447 12.9884 149.483 13.2524 148.711 13.7803C147.94 14.3082 147.361 15.029 146.975 15.9427C146.59 16.8565 146.397 17.892 146.397 19.0493C146.397 20.1661 146.59 21.1915 146.975 22.1255C147.361 23.0392 147.94 23.7702 148.711 24.3184C149.503 24.8463 150.488 25.1103 151.666 25.1103C152.579 25.1103 153.371 24.9479 154.041 24.623C154.711 24.2981 155.25 23.8615 155.655 23.3133C156.062 22.7651 156.306 22.1458 156.386 21.4554H159.188C159.127 22.7346 158.752 23.8412 158.061 24.7752C157.391 25.7093 156.498 26.4402 155.381 26.9681C154.285 27.4758 153.047 27.7296 151.666 27.7296Z" fill="#041C33"/>
<path d="M168.492 27.6683C166.36 27.6683 164.705 27.2114 163.527 26.2977C162.37 25.384 161.772 24.1353 161.73 22.5515H164.472C164.513 23.181 164.827 23.7799 165.416 24.3485C166.025 24.8967 167.051 25.1708 168.492 25.1708C169.792 25.1708 170.787 24.917 171.477 24.4094C172.167 23.8815 172.512 23.2419 172.512 22.4906C172.512 21.8206 172.259 21.3028 171.751 20.9373C171.244 20.5515 170.421 20.2977 169.284 20.1759L167.517 19.9931C165.975 19.8307 164.715 19.3739 163.741 18.6226C162.766 17.851 162.279 16.7748 162.279 15.3942C162.279 14.3586 162.543 13.4754 163.071 12.7444C163.599 11.9931 164.33 11.4246 165.263 11.0388C166.198 10.6327 167.274 10.4297 168.492 10.4297C170.319 10.4297 171.802 10.8358 172.939 11.648C174.076 12.4602 174.665 13.6682 174.705 15.2723H171.964C171.944 14.6226 171.64 14.0744 171.05 13.6277C170.482 13.1607 169.629 12.9272 168.492 12.9272C167.355 12.9272 166.492 13.1607 165.903 13.6277C165.314 14.0946 165.02 14.6835 165.02 15.3942C165.02 16.0033 165.223 16.4906 165.629 16.8561C166.055 17.2216 166.746 17.4551 167.7 17.5566L169.467 17.7393C171.213 17.9221 172.614 18.4094 173.67 19.2013C174.726 19.9728 175.253 21.0693 175.253 22.4906C175.253 23.5058 174.959 24.4094 174.37 25.2013C173.802 25.9728 173.01 26.582 171.994 27.0287C170.979 27.4551 169.812 27.6683 168.492 27.6683Z" fill="#041C33"/>
<path d="M17.3021 31.001C24.6555 24.6333 30.0792 20.6204 32.8328 16.5341H23.7906L22.4688 12.5684L18.3355 24.9686L15.5239 16.5341H11.3906L10.0688 12.5684L8.74692 16.5341H1.77539C4.50539 20.5704 9.87716 24.5711 17.3021 31.001Z" fill="#0D6DFD"/>
<path d="M25.5684 0C21.3895 0 18.7074 2.91948 17.3017 5.54807C15.8959 2.91948 13.2138 0 9.03497 0C3.7329 0 -0.333984 4.33926 -0.333984 10.0935C-0.333984 11.6642 0.000237644 13.0894 0.615668 14.4669H7.25674L10.0683 6.03245L12.8798 14.4669H17.0132L18.335 18.4326L22.4683 6.03245L25.2799 14.4669H33.9868C34.6009 13.0891 34.9373 11.6623 34.9373 10.0935C34.9373 4.33926 30.8704 0 25.5684 0Z" fill="#0D6DFD"/>
</g>
<defs>
<clipPath id="clip0_4175_1426">
<rect width="175" height="32" fill="white"/>
</clipPath>
</defs>
</svg>
