<svg width="171" height="39" viewBox="0 0 171 39" fill="none" xmlns="http://www.w3.org/2000/svg">
<path d="M59.6644 31.2941L57.1921 24.6031H46.1219L43.6864 31.2941H39L49.1846 4.64286H54.3138L64.4984 31.2941H59.6644ZM51.657 9.52954L47.6717 20.4306H55.6423L51.657 9.52954Z" fill="white"/>
<path d="M72.5036 31.2941H68.0017V4.64286H72.5036V31.2941Z" fill="white"/>
<path d="M83.2045 31.2941H78.7764V4.64286H95.0497V8.89052H83.2045V16.3709H93.832V20.5434H83.2045V31.2941Z" fill="white"/>
<path d="M105.619 27.9486C108.276 27.9486 110.638 25.9563 110.638 22.1221C110.638 18.3256 108.276 16.3709 105.619 16.3709C103 16.3709 100.601 18.3256 100.601 22.1221C100.601 25.9187 103 27.9486 105.619 27.9486ZM105.619 12.424C111.007 12.424 114.955 16.5213 114.955 22.1221C114.955 27.7606 111.007 31.8579 105.619 31.8579C100.269 31.8579 96.3205 27.7606 96.3205 22.1221C96.3205 16.5213 100.269 12.424 105.619 12.424Z" fill="white"/>
<path d="M129.609 12.875V17.3106C129.129 17.2355 128.649 17.1979 128.206 17.1979C124.885 17.1979 123.372 19.1525 123.372 22.5732V31.2941H119.092V12.9878H123.262V15.9198C124.11 13.9276 126.103 12.7623 128.465 12.7623C128.981 12.7623 129.424 12.8375 129.609 12.875Z" fill="white"/>
<path d="M131.71 32.309L135.659 31.2565C135.954 33.5119 137.688 35.2034 140.161 35.2034C143.555 35.2034 145.253 33.4367 145.253 29.7153V27.7982C144.478 29.2266 142.67 30.4671 140.05 30.4671C135.253 30.4671 131.747 26.7081 131.747 21.5583C131.747 16.6716 135.105 12.6495 140.05 12.6495C142.854 12.6495 144.589 13.8148 145.364 15.3184V12.9878H149.496V29.5649C149.496 34.4516 147.024 39 140.271 39C135.511 39 132.19 35.9928 131.71 32.309ZM140.751 26.7457C143.482 26.7457 145.364 24.7158 145.364 21.5583C145.364 18.4383 143.408 16.4085 140.751 16.4085C138.02 16.4085 136.065 18.4383 136.065 21.5583C136.065 24.7534 137.947 26.7457 140.751 26.7457Z" fill="white"/>
<path d="M157.72 20.1299H166.54C166.466 17.9873 165.064 16.0702 162.112 16.0702C159.418 16.0702 157.868 18.1752 157.72 20.1299ZM167.019 24.9038L170.636 26.0691C169.676 29.2642 166.835 31.8579 162.518 31.8579C157.647 31.8579 153.329 28.2493 153.329 22.047C153.329 16.2581 157.536 12.424 162.075 12.424C167.61 12.424 170.857 16.1454 170.857 21.9342C170.857 22.6484 170.783 23.2498 170.746 23.325H157.61C157.72 26.1067 159.861 28.0989 162.518 28.0989C165.101 28.0989 166.429 26.7081 167.019 24.9038Z" fill="white"/>
<path d="M13.2065 0H16.5083V14.4677H13.2065V0ZM6.60301 3.21521H9.90476V16.0756H6.60301V3.21521ZM0 8.03779H3.30175V17.683H0V8.03779ZM19.8095 3.21521H23.1113V16.0756H19.8095V3.21521ZM26.4125 8.03779H29.7143V17.683H26.4125V8.03779ZM13.2065 24.1129H16.5083V38.5806H13.2065V24.1129ZM19.8095 22.5055H23.1113V35.3654H19.8095V22.5055ZM26.4125 20.8977H29.7143V30.5428H26.4125V20.8977ZM6.60301 22.5055H9.90476V35.3654H6.60301V22.5055ZM0 20.8977H3.30175V30.5428H0V20.8977Z" fill="white"/>
</svg>
