<svg width="184" height="44" viewBox="0 0 184 44" fill="none" xmlns="http://www.w3.org/2000/svg">
<path d="M64.254 35.7013L61.5915 28.4956H49.6697L47.0469 35.7013H42L52.968 7H58.4918L69.4599 35.7013H64.254ZM55.6306 12.2626L51.3387 24.0022H59.9224L55.6306 12.2626Z" fill="white"/>
<path d="M78.0808 35.7013H73.2326V7H78.0808V35.7013Z" fill="white"/>
<path d="M89.6049 35.7013H84.8362V7H102.361V11.5744H89.6049V19.6302H101.05V24.1236H89.6049V35.7013Z" fill="white"/>
<path d="M113.744 32.0985C116.605 32.0985 119.149 29.953 119.149 25.8239C119.149 21.7352 116.605 19.6302 113.744 19.6302C110.923 19.6302 108.339 21.7352 108.339 25.8239C108.339 29.9125 110.923 32.0985 113.744 32.0985ZM113.744 15.3797C119.546 15.3797 123.798 19.7921 123.798 25.8239C123.798 31.8961 119.546 36.3085 113.744 36.3085C107.982 36.3085 103.73 31.8961 103.73 25.8239C103.73 19.7921 107.982 15.3797 113.744 15.3797Z" fill="white"/>
<path d="M139.579 15.8654V20.6422C139.062 20.5613 138.545 20.5208 138.069 20.5208C134.492 20.5208 132.863 22.6258 132.863 26.3096V35.7013H128.253V15.9869H132.743V19.1444C133.657 16.9989 135.803 15.744 138.347 15.744C138.903 15.744 139.38 15.8249 139.579 15.8654Z" fill="white"/>
<path d="M141.842 36.7943L146.094 35.6608C146.412 38.0897 148.28 39.9114 150.942 39.9114C154.598 39.9114 156.426 38.0088 156.426 34.0011V31.9365C155.592 33.4748 153.644 34.8107 150.823 34.8107C145.657 34.8107 141.882 30.7626 141.882 25.2166C141.882 19.954 145.498 15.6225 150.823 15.6225C153.843 15.6225 155.711 16.8775 156.545 18.4967V15.9869H160.996V33.8392C160.996 39.1017 158.334 44 151.061 44C145.935 44 142.358 40.7615 141.842 36.7943ZM151.578 30.8031C154.519 30.8031 156.545 28.6171 156.545 25.2166C156.545 21.8567 154.439 19.6707 151.578 19.6707C148.637 19.6707 146.531 21.8567 146.531 25.2166C146.531 28.6575 148.558 30.8031 151.578 30.8031Z" fill="white"/>
<path d="M169.853 23.6783H179.351C179.271 21.3709 177.761 19.3063 174.582 19.3063C171.681 19.3063 170.012 21.5733 169.853 23.6783ZM179.867 28.8195L183.762 30.0744C182.728 33.5153 179.668 36.3085 175.019 36.3085C169.773 36.3085 165.124 32.4223 165.124 25.7429C165.124 19.5088 169.654 15.3797 174.542 15.3797C180.503 15.3797 184 19.3873 184 25.6214C184 26.3906 183.921 27.0383 183.881 27.1193H169.734C169.853 30.1149 172.158 32.2604 175.019 32.2604C177.801 32.2604 179.231 30.7626 179.867 28.8195Z" fill="white"/>
<path d="M14.2224 0H17.7781V16.125H14.2224V0ZM7.11093 3.58351H10.6667V17.917H7.11093V3.58351ZM0 8.95851H3.55573V19.7085H0V8.95851ZM21.3333 3.58351H24.8891V17.917H21.3333V3.58351ZM28.4443 8.95851H32V19.7085H28.4443V8.95851ZM14.2224 26.875H17.7781V43H14.2224V26.875ZM21.3333 25.0835H24.8891V39.4165H21.3333V25.0835ZM28.4443 23.2915H32V34.0415H28.4443V23.2915ZM7.11093 25.0835H10.6667V39.4165H7.11093V25.0835ZM0 23.2915H3.55573V34.0415H0V23.2915Z" fill="#F16319"/>
</svg>
