<svg xmlns="http://www.w3.org/2000/svg" xmlns:xlink="http://www.w3.org/1999/xlink" width="300" zoomAndPan="magnify" viewBox="0 0 224.87999 74.999997" height="100" preserveAspectRatio="xMidYMid meet" version="1.0"><defs><g/><clipPath id="8089c3efb1"><path d="M 122 0.207031 L 133 0.207031 L 133 18 L 122 18 Z M 122 0.207031 " clip-rule="nonzero"/></clipPath><clipPath id="c0219ee7b2"><rect x="0" width="134" y="0" height="23"/></clipPath></defs><path fill="#effb53" d="M 59.046875 16.046875 C 66.113281 15.519531 65.882812 25.449219 59.546875 25.207031 C 57.296875 30.511719 56.542969 30.601562 51.117188 30.476562 C 51.644531 31.753906 51.925781 33.683594 51.980469 35.050781 C 54.847656 34.984375 57.777344 35.101562 60.648438 35.023438 C 61.214844 34.644531 63.621094 32.148438 64.230469 31.53125 C 63.601562 29.515625 63.898438 27.472656 65.695312 26.144531 C 66.304688 25.691406 67.171875 25.34375 67.929688 25.277344 C 69.148438 25.164062 70.363281 25.535156 71.304688 26.316406 C 73.234375 27.933594 73.472656 30.996094 71.835938 32.898438 C 71.082031 33.789062 69.992188 34.335938 68.824219 34.402344 C 67.746094 34.476562 66.597656 34.210938 65.765625 33.492188 C 64.972656 34.347656 63.601562 35.695312 62.734375 36.453125 C 63.992188 37.835938 65.507812 39.359375 66.828125 40.691406 C 67.003906 40.644531 67.183594 40.601562 67.359375 40.558594 C 68.535156 40.289062 69.769531 40.445312 70.796875 41.09375 C 71.820312 41.742188 72.535156 42.777344 72.78125 43.964844 C 73.035156 45.136719 72.855469 46.433594 72.191406 47.445312 C 71.511719 48.46875 70.449219 49.179688 69.242188 49.414062 C 68.078125 49.644531 66.800781 49.410156 65.816406 48.734375 C 64.839844 48.074219 64.171875 47.042969 63.964844 45.882812 C 63.722656 44.5 64.070312 43.332031 64.847656 42.199219 C 63.816406 41.320312 62.5625 39.722656 61.535156 38.726562 C 61.121094 38.324219 60.703125 37.8125 60.238281 37.460938 L 51.984375 37.457031 C 51.945312 39.050781 51.710938 40.632812 51.285156 42.167969 C 57.570312 42.035156 58.054688 42.007812 59.96875 48.109375 C 60.6875 48.171875 61.375 48.410156 61.980469 48.800781 C 65.308594 50.949219 64.28125 56.136719 60.214844 57.003906 C 58.207031 57.285156 56.324219 56.601562 55.355469 54.734375 C 54.792969 53.636719 54.6875 52.359375 55.058594 51.183594 C 55.488281 49.832031 56.339844 49.035156 57.558594 48.402344 C 56.425781 45.882812 56.773438 44.316406 53.492188 44.589844 C 52.789062 44.648438 51.222656 44.601562 50.53125 44.527344 L 50.429688 44.515625 C 48.867188 48.523438 45.761719 51.914062 42.015625 54.003906 C 37.621094 56.453125 32.097656 56.941406 27.285156 55.539062 C 22.554688 54.113281 18.5625 50.90625 16.148438 46.59375 C 13.5625 41.863281 12.828125 36.03125 14.371094 30.847656 C 15.835938 26.066406 19.113281 22.050781 23.5 19.65625 C 28.023438 17.230469 33.332031 16.714844 38.238281 18.222656 C 43.554688 19.828125 47.507812 23.242188 50.117188 28.097656 C 50.550781 28.109375 51.054688 28.078125 51.472656 28.09375 C 55.339844 28.238281 55.457031 27.867188 57.21875 24.5625 C 57.179688 24.539062 57.140625 24.511719 57.101562 24.484375 C 53.695312 22.105469 54.765625 16.78125 59.046875 16.046875 Z M 43.796875 38.585938 C 46.195312 38.09375 47.75 35.753906 47.265625 33.351562 C 46.785156 30.949219 44.449219 29.386719 42.046875 29.859375 C 39.625 30.335938 38.054688 32.6875 38.539062 35.101562 C 39.023438 37.519531 41.382812 39.082031 43.796875 38.585938 Z M 23.199219 38.628906 C 25.628906 38.398438 27.410156 36.238281 27.179688 33.808594 C 26.949219 31.378906 24.792969 29.59375 22.363281 29.820312 C 19.929688 30.050781 18.140625 32.210938 18.371094 34.644531 C 18.601562 37.078125 20.765625 38.863281 23.199219 38.628906 Z M 33.375 31.207031 C 35.773438 30.886719 37.472656 28.695312 37.179688 26.289062 C 36.882812 23.882812 34.710938 22.160156 32.300781 22.425781 C 30.71875 22.601562 29.351562 23.613281 28.722656 25.078125 C 28.09375 26.539062 28.300781 28.226562 29.261719 29.496094 C 30.226562 30.765625 31.792969 31.417969 33.375 31.207031 Z M 26.949219 49.671875 C 29.359375 49.589844 31.25 47.578125 31.1875 45.167969 C 31.125 42.757812 29.132812 40.847656 26.722656 40.890625 C 24.28125 40.933594 22.347656 42.957031 22.410156 45.394531 C 22.472656 47.835938 24.511719 49.753906 26.949219 49.671875 Z M 67.875 42.976562 C 66.773438 43.257812 66.105469 44.371094 66.375 45.472656 C 66.644531 46.578125 67.75 47.257812 68.855469 47 C 69.582031 46.832031 70.164062 46.285156 70.375 45.570312 C 70.585938 44.855469 70.398438 44.082031 69.878906 43.546875 C 69.363281 43.007812 68.597656 42.789062 67.875 42.976562 Z M 68.019531 27.730469 C 66.867188 27.941406 66.101562 29.050781 66.3125 30.207031 C 66.527344 31.363281 67.632812 32.128906 68.789062 31.917969 C 69.949219 31.710938 70.71875 30.597656 70.503906 29.441406 C 70.292969 28.28125 69.179688 27.511719 68.019531 27.730469 Z M 59.054688 50.46875 C 58.308594 50.589844 57.6875 51.101562 57.421875 51.804688 C 57.160156 52.511719 57.296875 53.304688 57.78125 53.882812 C 58.265625 54.460938 59.023438 54.734375 59.765625 54.597656 C 60.894531 54.386719 61.644531 53.3125 61.449219 52.179688 C 61.253906 51.050781 60.1875 50.289062 59.054688 50.46875 Z M 59.5 18.414062 C 58.714844 18.496094 58.035156 18.992188 57.722656 19.714844 C 57.40625 20.441406 57.503906 21.277344 57.980469 21.90625 C 58.457031 22.539062 59.234375 22.863281 60.019531 22.757812 C 61.203125 22.597656 62.039062 21.515625 61.898438 20.332031 C 61.757812 19.144531 60.691406 18.292969 59.5 18.414062 Z M 37.996094 40.949219 C 35.601562 41.355469 33.992188 43.625 34.402344 46.019531 C 34.8125 48.410156 37.085938 50.015625 39.476562 49.601562 C 41.863281 49.1875 43.464844 46.921875 43.054688 44.535156 C 42.648438 42.148438 40.382812 40.542969 37.996094 40.949219 Z M 32.515625 34.433594 C 31.792969 34.53125 31.246094 34.742188 30.78125 35.355469 C 30.410156 35.855469 30.257812 36.488281 30.355469 37.105469 C 30.441406 37.707031 30.777344 38.246094 31.277344 38.589844 C 31.90625 39.019531 32.449219 39.011719 33.164062 38.984375 C 34.535156 38.675781 35.625 37.625 35.242188 36.132812 C 35.085938 35.53125 34.691406 35.019531 34.144531 34.722656 C 33.605469 34.417969 33.109375 34.386719 32.515625 34.433594 Z M 32.515625 34.433594 " fill-opacity="1" fill-rule="nonzero"/><g transform="matrix(1, 0, 0, 1, 80, 25)"><g clip-path="url(#c0219ee7b2)"><g fill="#ffffff" fill-opacity="1"><g transform="translate(1.001901, 17.268232)"><g><path d="M 12.1875 0 L 10.609375 -3.625 L 4.203125 -3.625 L 2.5625 0 L 0.09375 0 L 7.5625 -15.875 L 14.65625 0 Z M 5.15625 -5.78125 L 9.6875 -5.78125 L 7.46875 -10.859375 Z M 5.15625 -5.78125 "/></g></g></g><g fill="#ffffff" fill-opacity="1"><g transform="translate(15.751142, 17.268232)"><g><path d="M 1.796875 -15 L 4.09375 -15 L 4.09375 0 L 1.796875 0 Z M 1.796875 -15 "/></g></g></g><g fill="#ffffff" fill-opacity="1"><g transform="translate(21.641849, 17.268232)"><g/></g></g><g fill="#ffffff" fill-opacity="1"><g transform="translate(26.880519, 17.268232)"><g><path d="M 12.90625 -14.1875 L 12.90625 -11.484375 C 11.675781 -12.597656 10.320312 -13.15625 8.84375 -13.15625 C 7.21875 -13.15625 5.898438 -12.617188 4.890625 -11.546875 C 3.878906 -10.472656 3.375 -9.101562 3.375 -7.4375 C 3.375 -5.832031 3.890625 -4.492188 4.921875 -3.421875 C 5.953125 -2.359375 7.265625 -1.828125 8.859375 -1.828125 C 10.335938 -1.828125 11.6875 -2.398438 12.90625 -3.546875 L 12.90625 -0.828125 C 11.644531 -0.078125 10.273438 0.296875 8.796875 0.296875 C 6.710938 0.296875 4.941406 -0.394531 3.484375 -1.78125 C 1.878906 -3.28125 1.078125 -5.164062 1.078125 -7.4375 C 1.078125 -9.84375 1.878906 -11.800781 3.484375 -13.3125 C 4.859375 -14.613281 6.664062 -15.265625 8.90625 -15.265625 C 10.445312 -15.265625 11.78125 -14.90625 12.90625 -14.1875 Z M 12.90625 -14.1875 "/></g></g></g><g fill="#ffffff" fill-opacity="1"><g transform="translate(40.82034, 17.268232)"><g><path d="M 1.390625 -9.46875 L 3.59375 -9.46875 L 3.59375 0 L 1.390625 0 Z M 1.484375 -12.359375 C 1.210938 -12.628906 1.078125 -12.96875 1.078125 -13.375 C 1.078125 -13.78125 1.210938 -14.117188 1.484375 -14.390625 C 1.753906 -14.660156 2.09375 -14.796875 2.5 -14.796875 C 2.90625 -14.796875 3.238281 -14.660156 3.5 -14.390625 C 3.769531 -14.117188 3.90625 -13.78125 3.90625 -13.375 C 3.90625 -12.96875 3.769531 -12.628906 3.5 -12.359375 C 3.238281 -12.097656 2.90625 -11.96875 2.5 -11.96875 C 2.09375 -11.96875 1.753906 -12.097656 1.484375 -12.359375 Z M 1.484375 -12.359375 "/></g></g></g><g fill="#ffffff" fill-opacity="1"><g transform="translate(45.8117, 17.268232)"><g><path d="M 1.375 0 L 1.375 -9.46875 L 3.578125 -9.46875 L 3.578125 -8.59375 C 4.253906 -9.34375 5.109375 -9.71875 6.140625 -9.71875 C 7.378906 -9.71875 8.304688 -9.289062 8.921875 -8.4375 C 9.316406 -7.875 9.515625 -6.992188 9.515625 -5.796875 L 9.515625 0 L 7.3125 0 L 7.3125 -5.265625 C 7.3125 -5.828125 7.265625 -6.285156 7.171875 -6.640625 C 7.078125 -7.003906 6.929688 -7.257812 6.734375 -7.40625 C 6.546875 -7.550781 6.375 -7.640625 6.21875 -7.671875 C 6.0625 -7.710938 5.847656 -7.734375 5.578125 -7.734375 C 5.265625 -7.734375 5.015625 -7.707031 4.828125 -7.65625 C 4.640625 -7.601562 4.4375 -7.484375 4.21875 -7.296875 C 4 -7.109375 3.835938 -6.785156 3.734375 -6.328125 C 3.628906 -5.867188 3.578125 -5.273438 3.578125 -4.546875 L 3.578125 0 Z M 1.375 0 "/></g></g></g><g fill="#ffffff" fill-opacity="1"><g transform="translate(56.71624, 17.268232)"><g><path d="M 8.1875 -3.5 L 10.03125 -2.46875 C 9.6875 -1.8125 9.273438 -1.273438 8.796875 -0.859375 C 7.921875 -0.0859375 6.863281 0.296875 5.625 0.296875 C 4.332031 0.296875 3.222656 -0.128906 2.296875 -0.984375 C 1.367188 -1.835938 0.90625 -3.066406 0.90625 -4.671875 C 0.90625 -6.171875 1.320312 -7.382812 2.15625 -8.3125 C 3 -9.25 4.117188 -9.71875 5.515625 -9.71875 C 7.066406 -9.71875 8.25 -9.140625 9.0625 -7.984375 C 9.644531 -7.140625 9.9375 -5.992188 9.9375 -4.546875 L 9.9375 -4.203125 L 3.140625 -4.203125 C 3.171875 -3.390625 3.445312 -2.765625 3.96875 -2.328125 C 4.488281 -1.898438 5.070312 -1.6875 5.71875 -1.6875 C 6.300781 -1.6875 6.800781 -1.859375 7.21875 -2.203125 C 7.632812 -2.515625 7.957031 -2.945312 8.1875 -3.5 Z M 3.3125 -6 L 7.6875 -6 C 7.570312 -6.53125 7.3125 -6.953125 6.90625 -7.265625 C 6.507812 -7.578125 6.039062 -7.734375 5.5 -7.734375 C 4.96875 -7.734375 4.503906 -7.578125 4.109375 -7.265625 C 3.722656 -6.953125 3.457031 -6.53125 3.3125 -6 Z M 3.3125 -6 "/></g></g></g><g fill="#ffffff" fill-opacity="1"><g transform="translate(67.64327, 17.268232)"><g><path d="M 1.390625 0 L 1.390625 -9.46875 L 3.59375 -9.46875 L 3.59375 -8.59375 C 4.207031 -9.34375 4.988281 -9.71875 5.9375 -9.71875 C 7.03125 -9.71875 7.847656 -9.25 8.390625 -8.3125 C 9.035156 -9.25 9.972656 -9.71875 11.203125 -9.71875 C 12.429688 -9.71875 13.328125 -9.222656 13.890625 -8.234375 C 14.222656 -7.648438 14.390625 -6.851562 14.390625 -5.84375 L 14.390625 0 L 12.1875 0 L 12.1875 -5.21875 C 12.1875 -6.039062 12.117188 -6.601562 11.984375 -6.90625 C 11.773438 -7.457031 11.351562 -7.734375 10.71875 -7.734375 C 10.1875 -7.734375 9.753906 -7.5 9.421875 -7.03125 C 9.140625 -6.632812 9 -5.914062 9 -4.875 L 9 0 L 6.796875 0 L 6.796875 -5.21875 C 6.796875 -6.039062 6.726562 -6.601562 6.59375 -6.90625 C 6.375 -7.457031 5.953125 -7.734375 5.328125 -7.734375 C 4.785156 -7.734375 4.351562 -7.5 4.03125 -7.03125 C 3.738281 -6.632812 3.59375 -5.914062 3.59375 -4.875 L 3.59375 0 Z M 1.390625 0 "/></g></g></g><g fill="#ffffff" fill-opacity="1"><g transform="translate(83.426751, 17.268232)"><g><path d="M 8.3125 -8.359375 L 8.3125 -9.46875 L 10.515625 -9.46875 L 10.515625 0 L 8.3125 0 L 8.3125 -0.984375 C 7.582031 -0.128906 6.640625 0.296875 5.484375 0.296875 C 4.085938 0.296875 2.972656 -0.195312 2.140625 -1.1875 C 1.316406 -2.175781 0.90625 -3.363281 0.90625 -4.75 C 0.90625 -6.25 1.347656 -7.453125 2.234375 -8.359375 C 3.128906 -9.265625 4.222656 -9.71875 5.515625 -9.71875 C 6.691406 -9.71875 7.625 -9.265625 8.3125 -8.359375 Z M 5.78125 -7.734375 C 5 -7.734375 4.363281 -7.441406 3.875 -6.859375 C 3.382812 -6.273438 3.140625 -5.554688 3.140625 -4.703125 C 3.140625 -3.859375 3.382812 -3.144531 3.875 -2.5625 C 4.363281 -1.976562 5 -1.6875 5.78125 -1.6875 C 6.53125 -1.6875 7.160156 -1.945312 7.671875 -2.46875 C 8.191406 -3 8.453125 -3.734375 8.453125 -4.671875 C 8.453125 -5.648438 8.191406 -6.40625 7.671875 -6.9375 C 7.160156 -7.46875 6.53125 -7.734375 5.78125 -7.734375 Z M 5.78125 -7.734375 "/></g></g></g><g fill="#ffffff" fill-opacity="1"><g transform="translate(95.343057, 17.268232)"><g/></g></g><g fill="#ffffff" fill-opacity="1"><g transform="translate(100.581727, 17.268232)"><g><path d="M 1.796875 -15 L 4.09375 -15 L 4.09375 -2.15625 L 8.5 -2.15625 L 8.5 0 L 1.796875 0 Z M 1.796875 -15 "/></g></g></g><g fill="#ffffff" fill-opacity="1"><g transform="translate(109.440262, 17.268232)"><g><path d="M 8.3125 -8.359375 L 8.3125 -9.46875 L 10.515625 -9.46875 L 10.515625 0 L 8.3125 0 L 8.3125 -0.984375 C 7.582031 -0.128906 6.640625 0.296875 5.484375 0.296875 C 4.085938 0.296875 2.972656 -0.195312 2.140625 -1.1875 C 1.316406 -2.175781 0.90625 -3.363281 0.90625 -4.75 C 0.90625 -6.25 1.347656 -7.453125 2.234375 -8.359375 C 3.128906 -9.265625 4.222656 -9.71875 5.515625 -9.71875 C 6.691406 -9.71875 7.625 -9.265625 8.3125 -8.359375 Z M 5.78125 -7.734375 C 5 -7.734375 4.363281 -7.441406 3.875 -6.859375 C 3.382812 -6.273438 3.140625 -5.554688 3.140625 -4.703125 C 3.140625 -3.859375 3.382812 -3.144531 3.875 -2.5625 C 4.363281 -1.976562 5 -1.6875 5.78125 -1.6875 C 6.53125 -1.6875 7.160156 -1.945312 7.671875 -2.46875 C 8.191406 -3 8.453125 -3.734375 8.453125 -4.671875 C 8.453125 -5.648438 8.191406 -6.40625 7.671875 -6.9375 C 7.160156 -7.46875 6.53125 -7.734375 5.78125 -7.734375 Z M 5.78125 -7.734375 "/></g></g></g><g clip-path="url(#8089c3efb1)"><g fill="#ffffff" fill-opacity="1"><g transform="translate(121.356568, 17.268232)"><g><path d="M 3.59375 -16.390625 L 3.59375 -8.359375 C 4.28125 -9.265625 5.21875 -9.71875 6.40625 -9.71875 C 7.695312 -9.71875 8.785156 -9.265625 9.671875 -8.359375 C 10.566406 -7.453125 11.015625 -6.25 11.015625 -4.75 C 11.015625 -3.363281 10.597656 -2.175781 9.765625 -1.1875 C 8.929688 -0.195312 7.820312 0.296875 6.4375 0.296875 C 5.28125 0.296875 4.332031 -0.128906 3.59375 -0.984375 L 3.59375 0 L 1.390625 0 L 1.390625 -16.390625 Z M 6.140625 -7.734375 C 5.390625 -7.734375 4.753906 -7.46875 4.234375 -6.9375 C 3.722656 -6.40625 3.46875 -5.648438 3.46875 -4.671875 C 3.46875 -3.734375 3.722656 -3 4.234375 -2.46875 C 4.753906 -1.945312 5.390625 -1.6875 6.140625 -1.6875 C 6.921875 -1.6875 7.550781 -1.976562 8.03125 -2.5625 C 8.519531 -3.144531 8.765625 -3.859375 8.765625 -4.703125 C 8.765625 -5.554688 8.519531 -6.273438 8.03125 -6.859375 C 7.550781 -7.441406 6.921875 -7.734375 6.140625 -7.734375 Z M 6.140625 -7.734375 "/></g></g></g></g></g></g></svg>